<?xml version="1.0" standalone="no"?>
<!DOCTYPE svg PUBLIC "-//W3C//DTD SVG 20010904//EN"
 "http://www.w3.org/TR/2001/REC-SVG-20010904/DTD/svg10.dtd">
<svg version="1.0" xmlns="http://www.w3.org/2000/svg"
 width="920.000000pt" height="100.000000pt" viewBox="0 0 1224.000000 1193.000000"
 preserveAspectRatio="xMidYMid meet">

<g transform="translate(0.000000,1193.000000) scale(0.100000,-0.100000)"
fill="#000000" stroke="none">
<path d="M5647 11915 c-76 -7 -142 -16 -146 -21 -5 -5 -59 -193 -120 -419 -62
-225 -116 -419 -120 -430 -7 -17 -30 -24 -134 -43 -163 -30 -422 -93 -566
-138 l-114 -36 -28 29 c-15 15 -147 163 -294 328 -146 165 -272 301 -279 303
-34 8 -449 -193 -716 -346 -211 -121 -540 -331 -540 -344 0 -7 61 -194 135
-418 74 -223 135 -411 135 -417 0 -6 -64 -66 -142 -134 -79 -68 -211 -190
-294 -272 l-151 -147 -391 185 c-214 102 -396 185 -403 185 -15 -1 -176 -189
-294 -345 -98 -128 -235 -331 -317 -470 -67 -114 -198 -357 -198 -368 0 -4
140 -149 310 -324 171 -175 310 -325 310 -334 0 -9 -14 -49 -31 -89 -72 -169
-209 -579 -209 -624 0 -9 -6 -16 -12 -17 -7 0 -213 -26 -457 -57 l-445 -57
-18 -80 c-73 -325 -108 -626 -115 -995 l-6 -295 374 -109 c206 -60 401 -118
434 -128 l61 -18 16 -172 c18 -177 53 -404 87 -548 l19 -80 -27 -19 c-14 -10
-187 -116 -384 -236 l-359 -219 7 -35 c13 -70 174 -539 239 -696 89 -213 274
-585 292 -585 16 0 851 149 876 156 13 4 36 -24 93 -113 87 -132 110 -163 313
-421 l144 -182 53 42 c238 189 1104 894 1104 900 1 4 -39 57 -88 118 -490 611
-806 1362 -892 2120 -15 135 -16 521 0 670 110 1084 650 2037 1525 2692 685
512 1556 778 2415 737 954 -45 1824 -431 2501 -1109 639 -638 1017 -1445 1100
-2345 15 -165 12 -534 -5 -701 -77 -734 -376 -1455 -830 -1999 -50 -60 -95
-115 -98 -122 -9 -14 424 -378 849 -714 l317 -249 140 187 c77 104 187 259
244 346 70 106 110 157 122 157 10 0 204 -41 431 -91 226 -49 413 -89 415 -87
11 12 202 398 250 503 118 265 265 686 265 762 0 28 -11 40 -107 116 -134 103
-212 160 -428 312 -93 65 -172 120 -174 121 -2 2 8 65 23 141 29 156 62 388
72 511 4 45 12 88 18 96 6 7 197 76 425 151 l414 138 -6 221 c-8 264 -29 509
-62 742 -27 187 -61 365 -73 375 -5 6 -515 78 -810 115 -29 4 -55 10 -57 14
-3 5 -23 73 -46 152 -22 78 -77 234 -121 346 l-80 203 280 287 c154 158 292
298 306 311 14 14 26 29 26 34 0 33 -260 478 -413 706 -72 109 -285 400 -316
434 -4 4 -190 -62 -413 -148 l-406 -155 -198 198 c-110 110 -243 236 -296 281
-54 46 -98 87 -98 91 0 5 54 194 120 421 88 302 117 415 109 425 -19 23 -331
229 -459 304 -212 123 -560 298 -698 351 -21 8 -53 -20 -348 -308 l-325 -316
-147 46 c-166 53 -375 108 -535 142 -60 13 -110 25 -111 27 -2 1 -47 188 -100
413 -54 226 -101 419 -106 431 -9 24 -6 23 -310 49 -212 18 -704 18 -903 0z
m737 -216 c114 -6 226 -13 249 -17 l42 -7 101 -423 c56 -232 103 -424 105
-426 2 -2 67 -16 144 -31 206 -39 422 -96 672 -177 l222 -71 311 304 c187 182
321 305 334 307 46 6 526 -248 763 -404 l112 -74 -14 -48 c-146 -502 -225
-778 -225 -786 0 -6 37 -40 83 -76 195 -154 409 -358 622 -593 l80 -88 365
141 c201 77 381 147 401 155 l36 14 85 -117 c152 -210 367 -548 429 -675 l22
-46 -211 -218 c-116 -120 -249 -256 -296 -303 -47 -46 -86 -92 -86 -100 0 -9
44 -128 99 -265 103 -263 132 -348 187 -559 18 -70 35 -130 37 -132 2 -2 89
-15 193 -29 498 -66 653 -88 664 -95 31 -19 100 -627 100 -882 l0 -94 -407
-135 c-371 -123 -409 -137 -415 -160 -4 -13 -16 -118 -28 -234 -24 -232 -67
-506 -104 -660 -14 -55 -22 -103 -18 -106 4 -4 108 -78 232 -164 319 -224 480
-345 480 -360 0 -24 -110 -333 -166 -467 -74 -176 -215 -468 -226 -468 -5 0
-194 41 -421 90 -226 50 -416 89 -422 86 -6 -2 -38 -48 -70 -102 -107 -180
-338 -514 -355 -514 -13 0 -358 273 -603 478 -134 112 -205 177 -200 185 4 7
28 39 54 72 78 100 203 293 285 440 525 939 653 2035 358 3062 -119 415 -336
863 -594 1223 -190 266 -499 594 -748 792 -512 408 -1084 678 -1712 808 -368
76 -828 99 -1210 60 -1665 -168 -3064 -1378 -3480 -3008 -76 -298 -109 -543
-117 -877 -10 -410 33 -736 148 -1140 142 -492 404 -1022 699 -1412 27 -36 50
-70 50 -74 0 -4 -180 -154 -400 -333 l-400 -325 -63 75 c-88 107 -224 299
-298 421 -99 161 -83 149 -175 135 -44 -6 -241 -41 -439 -77 -198 -35 -364
-65 -368 -65 -14 0 -160 312 -230 490 -74 187 -157 430 -157 457 0 19 81 70
587 379 90 54 163 105 163 112 0 8 -13 71 -30 141 -64 274 -105 550 -118 800
l-7 134 -425 124 c-234 69 -429 128 -433 132 -12 12 11 444 32 613 11 81 29
198 41 262 21 109 23 115 48 120 15 3 218 29 451 58 244 30 424 56 426 62 127
450 172 586 281 836 l63 145 -102 105 c-57 58 -196 200 -310 316 -114 117
-207 217 -207 223 0 22 132 246 245 416 99 148 204 290 310 418 l30 37 393
-186 393 -187 182 180 c199 196 318 304 505 461 67 57 122 104 122 105 0 1
-61 184 -135 407 -74 223 -135 409 -135 415 1 23 425 273 691 406 228 115 222
112 251 89 13 -10 145 -156 293 -323 179 -203 277 -306 290 -306 11 -1 70 17
132 39 216 76 534 152 868 207 48 8 50 9 62 53 8 25 61 218 120 430 58 212
108 387 110 390 15 17 450 22 707 9z"/>
<path d="M5978 10393 l3 -118 -73 112 -73 113 -44 0 -43 0 6 -72 c3 -40 8
-121 12 -180 l6 -108 36 0 35 0 -7 123 c-5 76 -4 118 2 112 5 -5 42 -58 81
-117 68 -103 73 -108 106 -108 l35 0 0 68 c0 37 -3 118 -7 180 l-6 112 -36 0
-36 0 3 -117z"/>
<path d="M6280 10458 c0 -29 -3 -110 -7 -180 l-6 -128 41 0 42 0 0 180 0 180
-35 0 -35 0 0 -52z"/>
<path d="M6436 10433 c-3 -38 -9 -118 -12 -179 l-7 -111 29 -6 c16 -3 31 -3
34 0 3 2 10 59 15 126 l11 122 32 -67 c18 -38 46 -97 62 -133 29 -63 31 -65
69 -65 l38 0 11 138 c7 76 12 157 12 180 0 41 -1 42 -34 42 l-34 0 -9 -117 -9
-118 -58 120 c-33 66 -64 123 -70 127 -6 4 -25 8 -42 8 l-31 0 -7 -67z"/>
<path d="M5516 10470 l-40 -5 -42 -180 c-24 -99 -43 -182 -44 -185 0 -3 18 -4
40 -2 34 4 41 8 46 31 3 14 7 31 9 37 3 11 59 24 108 24 22 0 30 -6 38 -30 10
-27 15 -30 55 -30 24 0 44 2 44 3 0 11 -160 336 -167 339 -4 2 -26 1 -47 -2z
m64 -206 c0 -10 -12 -14 -41 -14 -34 0 -40 3 -35 18 3 9 8 35 12 57 4 22 9 44
11 48 6 10 53 -88 53 -109z"/>
<path d="M6875 10441 c-32 -14 -55 -46 -62 -85 -9 -56 11 -82 93 -122 86 -41
100 -55 84 -83 -8 -15 -21 -21 -46 -21 -46 0 -70 14 -89 50 -12 23 -22 30 -45
30 -26 0 -30 -4 -30 -29 0 -36 34 -79 76 -97 19 -8 61 -14 94 -14 55 0 65 3
91 29 23 24 29 38 29 74 0 54 -14 68 -113 117 -39 20 -72 40 -74 46 -7 21 24
47 56 46 37 -1 59 -16 72 -49 7 -18 16 -23 44 -23 25 0 35 4 35 16 0 31 -31
80 -60 98 -35 20 -125 30 -155 17z"/>
<path d="M5243 10433 c-17 -3 -23 -11 -23 -30 0 -26 49 -325 54 -330 2 -2 17
0 34 3 40 8 40 12 7 204 -14 80 -25 148 -25 153 0 7 -9 7 -47 0z"/>
<path d="M7157 10383 c-4 -3 -7 -16 -7 -29 0 -18 9 -24 50 -35 28 -7 50 -15
50 -18 -1 -3 -16 -67 -34 -141 -19 -74 -31 -138 -28 -141 4 -4 21 -10 37 -13
l31 -7 33 138 c19 76 35 141 37 145 2 3 27 0 54 -7 l50 -13 8 31 8 32 -125 32
c-132 34 -153 37 -164 26z"/>
<path d="M4915 10358 c-38 -11 -71 -21 -73 -23 -4 -4 81 -329 89 -339 4 -4 47
2 96 15 68 18 95 30 121 55 31 31 32 35 32 115 0 69 -4 89 -25 124 -13 23 -35
50 -49 59 -34 21 -104 19 -191 -6z m173 -98 c26 -51 29 -116 7 -147 -17 -24
-92 -50 -106 -36 -4 4 -17 46 -29 93 -11 47 -23 93 -26 103 -7 23 28 37 86 34
43 -2 46 -4 68 -47z"/>
<path d="M4715 10297 c-16 -5 -31 -11 -32 -12 -2 -1 13 -48 32 -105 19 -57 35
-108 35 -113 0 -5 -24 12 -52 37 -167 147 -152 137 -189 124 -19 -6 -35 -12
-37 -13 -4 -3 108 -345 112 -345 6 0 66 22 66 24 0 1 -16 49 -35 106 -19 57
-35 108 -35 113 0 10 35 -17 134 -106 75 -68 75 -69 111 -57 19 6 35 15 35 19
0 8 -108 333 -112 336 -2 1 -16 -2 -33 -8z"/>
<path d="M7461 10193 c-18 -65 -39 -138 -47 -162 -21 -66 -19 -78 18 -85 17
-3 33 -4 36 -1 7 6 91 307 92 327 0 12 -44 38 -65 38 -1 0 -17 -53 -34 -117z"/>
<path d="M7607 10233 c-7 -36 -5 -38 48 -53 52 -15 52 -9 0 -155 -50 -141 -50
-141 -13 -154 17 -6 35 -8 39 -4 3 5 26 67 49 138 24 72 44 131 45 133 1 1 22
-5 45 -13 53 -19 66 -15 72 19 5 24 1 27 -131 71 -75 25 -139 45 -142 45 -4 0
-9 -12 -12 -27z"/>
<path d="M4353 10170 c-13 -5 -23 -15 -23 -22 0 -16 110 -311 120 -322 12 -12
72 13 67 28 -63 178 -122 326 -131 325 -6 0 -21 -4 -33 -9z"/>
<path d="M3787 10140 c-46 -37 -31 -108 30 -139 18 -9 29 -8 50 3 18 10 22 15
12 16 -26 0 -69 39 -69 62 0 13 10 24 30 31 19 7 29 18 28 27 -5 23 -51 23
-81 0z"/>
<path d="M7907 10002 c-31 -71 -57 -140 -57 -153 0 -59 68 -118 152 -134 43
-8 90 13 115 52 15 23 113 230 113 239 0 8 -61 34 -69 30 -4 -3 -30 -55 -57
-117 -57 -130 -75 -147 -128 -125 -55 23 -55 47 3 174 56 122 59 137 34 145
-10 2 -25 8 -34 11 -12 5 -27 -21 -72 -122z"/>
<path d="M3815 9962 c-129 -67 -459 -277 -475 -303 -4 -5 -40 -35 -82 -66 -43
-32 -113 -86 -157 -121 -81 -63 -81 -63 -65 -87 9 -14 18 -25 21 -25 2 0 20
12 39 26 28 22 37 24 50 14 29 -25 38 -52 20 -62 -22 -12 -20 -35 4 -48 25
-13 150 -26 150 -15 0 4 -9 22 -20 39 l-19 32 32 25 c18 14 37 28 43 32 10 6
84 -86 84 -104 0 -4 -14 -23 -30 -44 -23 -29 -27 -40 -18 -47 23 -14 54 -9 73
12 20 22 33 24 54 11 12 -8 12 -13 -3 -36 -29 -44 -74 -65 -139 -65 l-58 0 3
-32 3 -33 55 3 c95 5 210 75 226 137 11 46 -37 105 -85 105 -13 0 -21 6 -21
18 0 9 -36 68 -81 130 l-81 113 43 37 c55 48 190 133 200 127 4 -3 21 -28 38
-55 l31 -50 -26 -6 c-14 -4 -35 -2 -47 4 -22 10 -22 10 6 22 32 16 33 21 8 45
-19 16 -21 16 -50 -4 -45 -32 -71 -70 -71 -103 0 -69 62 -126 124 -114 17 4
50 20 73 36 l42 31 12 -23 c6 -13 13 -24 14 -26 6 -6 55 30 55 40 0 5 -32 58
-70 118 -39 60 -73 116 -76 123 -2 7 8 22 24 34 54 40 201 114 213 108 6 -5
-10 -19 -41 -36 -74 -41 -80 -47 -80 -90 0 -33 5 -41 30 -54 16 -8 49 -15 74
-15 36 0 52 6 81 31 42 38 71 34 60 -9 -13 -52 -42 -72 -107 -72 -53 0 -58 -2
-64 -25 -4 -14 -3 -29 1 -33 3 -4 64 -8 135 -8 123 -1 129 0 134 20 10 36 7
39 -39 34 l-45 -6 25 30 c50 60 18 158 -51 158 -26 0 -45 -9 -78 -40 -29 -27
-49 -38 -60 -34 -31 12 -11 38 56 77 l67 39 -19 38 c-19 38 -19 39 -1 45 35
11 43 30 24 53 l-18 21 -150 -77z m-170 -402 c-26 -29 -53 -34 -80 -16 -40 26
-29 36 37 36 60 0 61 0 43 -20z m-336 -69 l21 -29 -33 -24 c-53 -41 -56 -41
-82 -11 l-25 28 38 32 c46 40 55 41 81 4z"/>
<path d="M8286 9949 c-19 -27 -15 -34 35 -59 21 -11 39 -23 39 -26 0 -4 -31
-60 -70 -125 -38 -65 -70 -122 -70 -126 0 -5 13 -16 29 -26 34 -20 26 -28 110
116 35 59 67 110 72 112 4 3 27 -6 50 -21 43 -27 44 -27 69 17 7 13 -13 28
-108 85 -64 38 -122 70 -129 72 -6 2 -18 -7 -27 -19z"/>
<path d="M8507 9640 l-96 -151 98 -63 c142 -92 135 -90 154 -57 l16 27 -85 53
-84 53 18 30 c9 17 23 32 29 35 7 3 43 -14 80 -37 l67 -43 18 23 c10 12 18 25
18 29 0 3 -32 25 -70 49 -39 24 -70 46 -70 50 0 12 30 52 39 52 4 0 39 -20 77
-45 38 -24 72 -45 75 -45 4 0 14 11 23 25 l17 25 -101 66 c-56 36 -107 67
-114 70 -8 3 -48 -49 -109 -146z"/>
<path d="M3182 9690 c-20 -16 -21 -22 -10 -39 15 -25 17 -25 47 -2 20 15 22
21 12 39 -14 27 -19 27 -49 2z"/>
<path d="M8985 9436 c-41 -18 -91 -69 -116 -119 -59 -115 41 -257 172 -245 59
6 109 42 151 107 26 40 29 53 26 103 -5 69 -41 121 -102 149 -48 22 -89 23
-131 5z m139 -98 c23 -25 27 -37 23 -65 -11 -63 -82 -133 -136 -133 -24 0 -78
44 -86 71 -14 43 36 121 100 158 29 16 66 5 99 -31z"/>
<path d="M2726 9116 c-70 -74 -139 -150 -154 -170 -15 -19 -70 -88 -123 -153
-52 -65 -98 -126 -102 -135 -4 -12 1 -23 16 -33 21 -15 23 -14 49 16 l27 32
50 -39 c42 -31 51 -44 51 -69 0 -41 -43 -131 -70 -145 -31 -16 -35 -6 -16 34
57 121 -133 205 -208 92 -9 -14 -16 -34 -16 -45 0 -10 -40 -80 -90 -155 -49
-75 -90 -141 -90 -148 0 -7 -10 -29 -22 -48 -28 -46 -199 -382 -196 -385 11
-9 50 -26 53 -23 2 2 20 35 41 73 20 39 39 72 40 74 6 7 62 -21 79 -39 15 -16
13 -18 -30 -29 -46 -11 -53 -24 -37 -62 6 -14 18 -14 122 3 169 26 160 23 160
63 0 40 -3 41 -79 20 -30 -8 -58 -12 -63 -9 -16 10 -8 53 15 77 12 13 27 32
33 42 9 17 14 16 76 -19 l67 -37 15 29 c17 34 18 34 -54 74 -25 14 -77 44
-117 67 l-71 41 16 42 c9 24 33 69 55 101 l38 57 30 -17 c61 -36 62 -63 4 -63
-40 0 -49 -11 -40 -47 l6 -26 137 7 c75 4 137 8 138 9 8 8 6 72 -1 71 -6 -1
-38 -5 -72 -8 l-63 -7 0 34 c0 26 5 36 25 45 14 6 25 16 25 22 0 5 15 10 33
10 57 0 119 39 149 95 15 28 28 62 28 78 0 33 7 34 50 2 31 -23 35 -24 52 -8
10 9 18 22 18 29 0 8 -52 55 -115 105 l-114 92 30 39 c17 21 34 38 38 38 5 0
56 -43 115 -95 95 -85 108 -94 126 -83 11 7 22 18 24 25 3 7 -43 56 -102 110
-59 53 -108 100 -110 103 -3 8 111 141 167 195 l41 39 22 -21 21 -22 -41 -48
c-22 -26 -54 -61 -71 -77 -38 -36 -39 -50 -6 -72 19 -12 37 -15 72 -10 63 8
72 19 46 54 l-21 28 34 40 34 39 58 -63 58 -62 22 23 c12 13 22 27 22 32 0 4
-46 55 -101 112 l-101 104 22 24 c23 24 23 25 5 45 -10 11 -21 20 -25 20 -5 0
-65 -60 -134 -134z m-352 -597 c35 -27 35 -71 0 -102 -14 -12 -35 -39 -45 -60
-21 -39 -26 -40 -73 -4 -13 9 -16 20 -12 35 6 18 15 22 47 22 26 0 46 7 59 20
35 35 27 44 -33 40 -38 -2 -48 27 -18 52 30 23 42 23 75 -3z m-284 -496 c14
-9 26 -17 28 -18 4 -3 -29 -85 -34 -85 -11 0 -74 35 -74 42 0 17 35 78 45 78
6 0 22 -8 35 -17z"/>
<path d="M9218 9096 c-65 -68 -118 -128 -118 -133 0 -5 12 -20 26 -34 l25 -24
46 53 c24 28 50 52 57 52 6 0 34 -22 60 -49 39 -40 53 -48 66 -41 39 21 34 43
-24 95 l-56 51 29 28 29 28 64 -61 65 -60 22 23 23 24 -87 84 c-48 45 -92 84
-98 85 -7 2 -65 -53 -129 -121z"/>
<path d="M9595 8920 c-18 -20 -17 -21 15 -61 27 -34 30 -43 19 -53 -8 -7 -58
-50 -112 -95 l-97 -83 21 -29 c11 -16 23 -29 27 -29 4 0 57 43 117 95 l110 94
35 -41 35 -40 24 19 c22 18 23 22 10 40 -31 44 -170 203 -178 203 -4 0 -16 -9
-26 -20z"/>
<path d="M9750 8579 c-63 -45 -129 -92 -147 -105 l-32 -24 77 -110 c42 -60 80
-110 83 -110 4 0 17 8 29 18 l22 18 -56 80 -57 79 28 22 c15 13 33 23 40 23 6
0 32 -29 58 -65 25 -36 50 -65 54 -65 4 0 16 9 26 20 17 19 16 22 -28 86 -48
70 -49 81 -6 104 14 8 26 -4 69 -65 28 -41 54 -75 58 -75 4 0 18 7 30 16 l22
15 -60 87 c-33 48 -68 97 -78 110 l-18 23 -114 -82z"/>
<path d="M9934 8297 c-58 -28 -119 -94 -128 -139 -15 -73 43 -169 114 -188 42
-11 100 -3 100 14 0 28 -32 56 -64 56 -67 0 -99 78 -55 134 28 35 90 66 133
66 58 0 94 -67 66 -121 -8 -14 -6 -25 6 -44 21 -33 36 -32 57 4 36 62 10 166
-55 214 -42 31 -113 33 -174 4z"/>
<path d="M1902 8185 c-15 -33 -15 -32 8 -45 16 -9 22 -6 36 15 13 20 14 28 4
40 -18 22 -35 18 -48 -10z"/>
<path d="M10108 7950 l-157 -80 10 -30 c6 -16 14 -32 18 -35 5 -2 39 11 78 29
l70 34 31 -63 30 -62 -69 -33 c-38 -19 -69 -37 -69 -41 0 -16 23 -59 32 -59 4
0 78 35 163 77 136 68 154 80 149 98 -14 45 -28 48 -82 21 -28 -14 -55 -26
-60 -26 -10 0 -64 109 -58 119 3 4 27 18 55 31 55 25 63 44 34 78 -18 21 -19
20 -175 -58z"/>
<path d="M10270 7606 c-151 -61 -155 -63 -153 -91 1 -15 6 -32 10 -36 4 -4 52
11 107 32 54 22 103 38 108 37 6 -2 -27 -48 -71 -103 -45 -55 -81 -108 -81
-118 0 -24 18 -57 31 -57 5 0 79 27 165 61 l156 61 -6 31 c-3 17 -8 32 -10 34
-2 3 -52 -14 -112 -36 -59 -23 -109 -41 -112 -41 -2 0 17 26 42 58 135 168
129 156 112 196 -8 20 -19 36 -23 35 -4 -1 -78 -29 -163 -63z"/>
<path d="M1746 7522 c-12 -23 -25 -30 -77 -41 -119 -24 -182 -75 -194 -155 -9
-56 13 -100 56 -115 43 -15 77 -4 94 30 22 42 19 49 -14 38 -67 -23 -97 42
-45 95 24 24 121 62 132 52 2 -3 -13 -58 -33 -123 -21 -65 -43 -140 -50 -168
-8 -27 -23 -85 -34 -127 -12 -43 -21 -91 -21 -108 0 -24 -18 -47 -97 -127
-106 -106 -143 -166 -143 -231 0 -86 37 -132 104 -132 l44 0 4 -42 c2 -24 3
-50 1 -58 -2 -8 -49 -43 -103 -78 l-99 -63 16 -35 c9 -18 19 -34 23 -34 3 0
22 16 41 36 18 20 50 49 70 64 l36 29 0 -347 c0 -197 5 -397 12 -462 7 -63 15
-147 19 -187 4 -39 10 -75 14 -78 4 -4 19 -5 33 -1 18 5 25 13 25 31 0 23 3
25 53 25 63 0 72 5 96 54 l18 39 44 -58 43 -57 22 28 23 27 -65 71 -64 71 53
5 c50 5 52 6 55 38 l3 32 -154 0 -155 0 -4 43 c-3 23 -4 43 -3 44 0 1 67 5
148 9 l147 7 0 34 0 34 -149 -7 -149 -7 -7 74 c-9 96 -3 171 13 177 9 3 12
-15 12 -65 0 -40 5 -74 12 -81 21 -21 58 -13 90 19 22 21 34 27 41 20 12 -12
47 -14 72 -5 45 18 60 136 25 212 l-19 42 29 0 c27 0 30 3 30 33 l0 34 -97 7
c-54 3 -122 9 -150 12 l-53 7 0 48 c0 26 3 50 8 52 6 4 134 -10 260 -29 l42
-6 0 36 c0 20 -4 36 -10 36 -14 0 -230 30 -260 36 -23 4 -25 10 -27 59 -1 30
2 57 6 60 5 2 72 -7 150 -22 78 -14 143 -24 145 -22 3 2 6 18 8 34 l3 30 -145
27 c-80 15 -145 27 -145 28 -4 3 4 121 9 138 7 20 12 22 39 16 45 -9 47 -11
40 -44 -8 -41 13 -39 83 5 70 45 69 64 -6 82 -140 35 -130 30 -130 73 0 26 5
40 13 40 6 0 73 -16 147 -35 74 -19 138 -31 141 -27 4 4 9 19 13 33 6 26 5 27
-102 53 -198 50 -182 43 -182 79 0 26 54 224 65 235 1 1 13 -2 26 -7 16 -6 18
-10 7 -10 -20 -1 -38 -50 -38 -103 0 -56 34 -88 95 -88 57 0 97 35 115 99 9
36 13 40 30 31 32 -17 48 -11 59 20 8 23 7 32 -2 35 -7 3 -50 18 -97 33 -93
31 -107 49 -72 92 24 30 54 20 83 -28 12 -20 24 -38 25 -40 3 -5 64 28 64 35
0 3 -11 25 -25 48 -30 52 -82 80 -130 71 -42 -8 -85 -57 -85 -97 0 -26 -17
-39 -32 -24 -9 9 46 215 57 215 2 0 66 -24 142 -54 l138 -55 12 22 c7 12 12
27 13 33 0 6 -61 35 -136 64 l-136 54 7 32 c4 26 2 35 -14 43 -27 15 -29 15
-45 -17z m58 -442 c20 -7 26 -16 26 -40 0 -28 -29 -70 -49 -70 -18 0 -35 33
-34 65 2 55 11 63 57 45z m-274 -337 c0 -10 -9 -52 -20 -93 -11 -41 -20 -96
-20 -122 0 -43 -3 -48 -26 -54 -35 -9 -72 10 -80 42 -13 52 23 131 95 207 39
41 51 46 51 20z m168 -737 c6 -6 21 -37 32 -68 20 -58 17 -97 -11 -114 -19
-11 -49 33 -49 72 0 19 -3 34 -7 34 -21 -1 -31 -20 -35 -73 -3 -32 -10 -63
-16 -69 -9 -9 -12 8 -12 70 l0 82 -40 0 -40 0 0 46 0 46 83 -7 c45 -4 88 -12
95 -19z m-38 -635 c14 -27 13 -66 -2 -78 -7 -6 -34 -13 -60 -15 -45 -5 -46 -4
-52 25 -3 16 -6 42 -6 58 0 28 1 29 55 29 43 0 56 -4 65 -19z"/>
<path d="M10430 7281 c-49 -10 -117 -50 -137 -80 -26 -40 -33 -88 -19 -142 32
-120 145 -163 267 -101 71 36 99 78 99 149 0 126 -88 199 -210 174z m117 -95
c22 -19 28 -33 28 -64 0 -68 -59 -112 -149 -112 -37 0 -48 5 -70 31 -14 17
-26 39 -26 50 0 37 29 76 72 98 58 28 109 27 145 -3z"/>
<path d="M10503 6861 c-78 -20 -145 -39 -149 -43 -6 -7 29 -178 47 -224 6 -16
14 -20 33 -17 31 6 33 28 10 115 -8 34 -12 64 -7 68 4 4 68 22 141 40 73 18
132 37 132 44 0 6 -3 21 -6 34 -8 30 -28 28 -201 -17z"/>
<path d="M10558 6557 c-94 -27 -132 -74 -132 -167 -1 -65 24 -114 74 -147 71
-49 222 -21 274 50 31 43 33 141 4 191 -40 70 -127 98 -220 73z m150 -101 c54
-53 22 -134 -61 -157 -114 -30 -201 62 -136 145 41 52 151 59 197 12z"/>
<path d="M10550 6138 c-61 -32 -83 -66 -88 -135 -3 -49 0 -63 21 -95 20 -29
22 -38 11 -42 -8 -3 -14 -17 -14 -32 0 -26 1 -27 46 -20 26 3 69 6 95 6 l49 0
0 73 c0 41 -2 76 -5 79 -3 3 -17 3 -30 0 -21 -4 -25 -10 -25 -38 0 -38 -7 -45
-37 -33 -50 19 -62 105 -19 147 21 21 37 27 89 30 57 4 66 1 95 -23 27 -23 32
-34 32 -70 0 -35 -5 -48 -26 -64 -21 -17 -24 -25 -18 -55 3 -20 9 -36 11 -36
23 0 74 47 87 80 52 131 -31 250 -174 250 -38 0 -70 -7 -100 -22z"/>
<path d="M10712 5705 c-98 -53 -106 -55 -178 -55 l-75 0 3 -37 3 -38 70 -5
c62 -4 81 -11 171 -62 55 -32 103 -58 107 -58 4 0 7 18 7 40 0 39 -1 40 -72
76 l-73 37 75 36 c75 36 75 36 78 79 2 23 0 42 -5 42 -4 0 -54 -25 -111 -55z"/>
<path d="M1358 5574 c-49 -35 -88 -68 -88 -72 0 -5 6 -17 14 -27 13 -18 18
-15 91 56 47 46 76 82 74 92 -3 12 -24 1 -91 -49z"/>
<path d="M1401 5504 c-24 -27 -51 -61 -62 -75 -18 -26 -18 -26 6 -49 l25 -23
41 87 c22 48 39 92 37 98 -2 6 -23 -11 -47 -38z"/>
<path d="M10436 5262 c-3 -5 -8 -57 -12 -116 -5 -82 -4 -113 7 -132 26 -50
102 -69 147 -38 21 14 25 14 40 1 41 -37 107 -29 137 16 15 24 48 237 36 237
-3 0 -80 9 -171 20 -192 23 -177 22 -184 12z m113 -78 c28 -6 31 -10 31 -44 0
-20 -5 -51 -11 -69 -10 -28 -15 -32 -42 -29 -42 4 -51 24 -43 91 8 60 10 62
65 51z m165 -73 c-3 -99 -66 -113 -72 -16 -4 66 2 77 40 73 33 -3 33 -3 32
-57z"/>
<path d="M1550 4905 c0 -27 73 -359 90 -408 8 -24 4 -32 -35 -72 -97 -101
-113 -212 -39 -280 31 -29 62 -32 104 -10 33 17 44 43 35 86 l-7 30 -35 -31
-35 -31 -24 22 c-41 39 -28 104 33 162 l30 28 26 -68 c15 -38 31 -88 38 -113
6 -25 17 -52 25 -61 8 -9 27 -54 43 -100 59 -169 333 -739 356 -739 6 0 19 6
29 13 15 11 16 17 7 35 -6 11 -11 23 -11 26 0 6 74 46 84 46 3 0 15 -18 25
-39 l20 -39 -28 -12 c-74 -30 -91 -87 -45 -147 20 -26 32 -33 60 -33 40 0 51
18 34 50 -9 16 -18 21 -36 17 -35 -6 -30 19 8 43 32 19 32 19 54 -1 46 -43 84
-3 84 90 0 50 -1 53 -22 48 -13 -2 -31 -8 -40 -12 -12 -5 -21 1 -32 24 -9 16
-16 35 -16 41 0 5 25 22 55 37 58 29 62 35 42 71 l-13 22 -126 -65 c-70 -36
-131 -65 -137 -65 -9 0 -61 78 -61 92 0 2 61 31 135 62 139 60 151 71 123 109
-12 15 -19 13 -83 -14 -38 -17 -100 -43 -137 -59 l-67 -29 -24 42 c-21 35 -87
182 -87 192 0 4 61 25 74 25 6 0 17 -9 24 -20 10 -16 9 -27 -4 -60 -15 -38
-15 -42 1 -60 10 -11 23 -20 29 -20 11 0 156 248 156 267 0 5 -9 18 -20 28
-25 23 -38 12 -70 -55 -25 -54 -35 -61 -45 -30 -10 31 -52 36 -116 13 l-57
-21 -19 37 c-25 45 -100 258 -93 264 3 3 14 7 25 9 17 2 24 -9 47 -75 33 -97
49 -117 98 -117 27 0 45 7 65 27 32 32 75 114 75 142 0 15 -18 31 -35 31 -1 0
-12 -22 -24 -50 -12 -27 -33 -57 -47 -66 -23 -15 -26 -15 -43 0 -10 9 -26 42
-36 73 -21 65 -22 64 78 89 68 18 69 19 63 48 -4 16 -8 32 -11 34 -4 4 -221
-54 -280 -75 -10 -3 -39 58 -40 81 0 5 63 28 140 50 133 40 140 43 137 66 -1
14 -6 28 -11 33 -5 5 -70 -10 -146 -32 -75 -23 -141 -39 -145 -36 -4 2 -17 39
-30 81 l-23 78 23 18 c12 10 28 18 35 18 18 0 55 -48 55 -71 0 -24 3 -24 43 2
84 55 95 118 42 242 -6 13 -2 17 16 17 36 0 47 12 42 46 l-5 31 -51 -9 c-29
-6 -96 -18 -150 -28 l-98 -18 -6 29 c-4 24 -11 29 -34 29 -24 0 -29 -4 -29
-25z m264 -106 c26 -30 33 -72 17 -97 -6 -11 -16 -8 -46 12 -43 30 -64 32
-104 11 -29 -14 -29 -14 -37 23 -4 20 -8 42 -8 47 -1 9 88 31 136 34 9 1 28
-13 42 -30z"/>
<path d="M10422 4873 c-67 -33 -106 -128 -83 -205 25 -81 101 -128 208 -128
55 0 101 24 137 73 17 23 21 43 21 103 0 75 0 75 -41 114 -64 59 -171 78 -242
43z m161 -81 c68 -28 85 -103 34 -149 -32 -30 -68 -35 -125 -18 -88 26 -117
94 -67 154 37 43 79 47 158 13z"/>
<path d="M10275 4499 c-4 -17 -5 -32 -2 -35 2 -2 55 -22 118 -44 l114 -40 -67
5 c-38 3 -97 8 -132 11 l-63 7 -12 -33 c-6 -18 -11 -34 -11 -36 0 -1 50 -33
111 -69 60 -37 109 -69 106 -71 -2 -2 -56 14 -121 36 l-117 39 -10 -26 c-5
-14 -8 -31 -6 -36 2 -6 78 -36 170 -67 l167 -56 17 53 c9 29 15 54 12 56 -2 2
-50 32 -106 66 -57 35 -103 65 -103 68 0 3 58 2 129 -2 l128 -7 17 48 c9 26
15 49 13 51 -6 5 -326 113 -336 113 -5 0 -12 -14 -16 -31z"/>
<path d="M10105 4043 c-52 -116 -53 -163 -6 -205 30 -27 39 -30 78 -25 38 4
46 1 59 -19 32 -48 106 -52 146 -8 30 35 98 198 85 205 -33 18 -306 139 -313
139 -5 0 -27 -39 -49 -87z m112 -20 c21 -10 39 -18 41 -19 9 -5 -44 -106 -60
-115 -22 -12 -68 11 -68 34 0 11 42 116 47 117 1 0 19 -8 40 -17z m137 -63
c32 -12 33 -33 3 -85 -17 -30 -29 -40 -47 -40 -33 0 -37 32 -13 91 20 48 20
48 57 34z"/>
<path d="M9992 3815 c-17 -36 -15 -45 10 -72 l22 -23 -29 -60 -29 -60 -37 6
c-34 6 -39 4 -54 -26 -9 -17 -14 -35 -11 -38 5 -4 316 -48 367 -52 3 0 14 18
24 40 l18 41 -59 62 c-151 159 -199 207 -205 207 -3 0 -11 -11 -17 -25z m174
-243 c-4 -4 -117 16 -123 22 -2 2 4 20 14 40 l17 36 48 -47 c26 -26 46 -49 44
-51z"/>
<path d="M9777 3441 c-19 -32 -15 -38 56 -80 29 -18 51 -48 98 -132 34 -60 65
-109 69 -109 4 0 15 15 25 34 l19 34 -44 66 c-23 37 -41 68 -39 70 2 2 29 0
59 -5 98 -14 106 -12 129 26 l20 35 -22 4 c-12 3 -69 8 -127 11 -96 6 -110 10
-160 41 -31 19 -58 34 -61 34 -2 0 -12 -13 -22 -29z"/>
<path d="M6082 9033 c-75 -103 -125 -180 -171 -265 l-42 -77 -72 73 c-118 118
-278 186 -440 186 l-79 0 6 -27 c17 -71 17 -166 2 -288 -25 -189 -18 -178 -77
-124 -63 60 -194 125 -283 140 -77 13 -201 8 -219 -10 -8 -8 -2 -38 26 -119
31 -91 67 -250 67 -299 0 -9 -16 -1 -42 22 -99 84 -261 136 -380 121 -56 -7
-140 -42 -145 -61 -1 -5 24 -41 58 -78 58 -67 107 -150 135 -230 14 -39 14
-39 -9 -33 -201 55 -382 4 -449 -127 -19 -39 -20 -42 -3 -52 118 -69 195 -159
266 -311 151 -326 178 -373 247 -442 68 -69 172 -132 240 -147 l32 -7 -78 -83
c-43 -46 -101 -123 -130 -173 -63 -107 -102 -149 -176 -192 -67 -38 -70 -54
-25 -125 94 -148 259 -270 461 -339 68 -23 92 -26 210 -26 155 0 225 13 395
72 l122 42 70 -67 c76 -72 165 -120 289 -157 39 -12 72 -26 72 -32 0 -6 -13
-49 -29 -97 -49 -147 -64 -268 -58 -464 3 -95 9 -185 13 -201 l7 -28 -54 8
c-101 17 -306 9 -402 -15 -181 -44 -282 -54 -524 -55 l-232 -1 -375 -473
c-207 -260 -376 -474 -376 -477 0 -2 25 -42 55 -89 111 -170 127 -237 77 -317
-15 -24 -31 -48 -34 -54 -4 -7 282 -9 853 -6 l858 3 61 -40 c33 -22 85 -50
115 -61 151 -57 353 -27 475 69 l38 30 883 0 883 0 -56 57 c-31 32 -62 71 -67
86 -23 60 -6 155 45 261 13 27 24 55 24 63 0 7 -122 217 -271 468 -207 347
-275 454 -288 451 -46 -13 -176 -16 -254 -6 -54 6 -165 35 -280 71 -105 32
-222 64 -261 70 -120 19 -348 -3 -465 -45 -24 -9 -49 -16 -57 -16 -24 0 -39
108 -39 285 0 185 7 227 61 397 37 114 42 121 109 133 86 15 194 65 249 116
30 28 58 59 61 70 7 20 8 19 33 -10 54 -61 194 -108 394 -132 185 -21 371 18
518 109 139 86 292 254 319 350 10 35 11 35 -104 47 -33 4 -76 13 -95 21 -52
22 -145 118 -201 211 -65 105 -109 156 -181 209 l-58 42 66 26 c121 49 234
132 309 227 24 31 85 128 136 215 50 87 114 192 141 231 60 87 165 188 231
223 26 14 47 29 47 34 0 21 -83 85 -132 102 -41 15 -81 19 -178 19 -109 -1
-134 -4 -191 -26 l-67 -26 18 52 c31 90 71 162 128 231 63 75 62 86 -3 118
-81 41 -260 29 -399 -26 -27 -10 -50 -17 -53 -15 -7 8 36 200 62 276 14 41 24
75 22 76 -36 29 -166 34 -260 9 -62 -16 -160 -61 -211 -97 l-29 -21 7 78 c6
64 39 214 71 323 6 20 2 22 -59 28 -173 19 -334 -41 -484 -180 -34 -32 -64
-56 -66 -54 -2 2 -18 33 -36 69 -71 141 -228 370 -254 370 -8 0 -36 -30 -64
-67z m160 -267 c84 -122 177 -362 218 -561 62 -294 39 -608 -64 -874 -54 -140
-118 -215 -218 -258 -43 -19 -109 9 -183 79 -94 88 -159 231 -202 446 -26 129
-23 362 5 515 51 272 182 583 304 722 l41 46 29 -28 c17 -15 48 -55 70 -87z
m-714 27 c133 -65 268 -243 245 -323 -93 -320 -111 -410 -120 -601 -13 -286
51 -529 186 -708 22 -30 39 -56 38 -58 -2 -1 -29 5 -62 13 -173 45 -304 166
-401 369 -114 239 -119 383 -33 910 21 132 42 281 45 332 8 109 10 110 102 66z
m1342 -35 c0 -7 -7 -40 -16 -73 -23 -92 -28 -323 -14 -612 10 -207 11 -286 1
-372 -33 -308 -134 -493 -335 -614 -57 -35 -59 -35 -91 -20 l-33 16 35 45
c213 280 260 809 113 1285 -22 70 -28 102 -21 115 17 32 146 146 204 181 88
52 157 73 157 49z m-1863 -258 c69 -32 149 -101 196 -169 l30 -44 -12 -81
c-48 -346 -27 -586 70 -781 77 -157 185 -273 336 -361 l67 -39 -47 -3 c-57 -4
-215 37 -289 74 -110 56 -278 250 -343 398 -65 146 -93 321 -105 646 -5 129
-14 263 -21 296 -7 34 -9 69 -6 78 10 24 54 20 124 -14z m2279 -45 c4 -8 -1
-66 -10 -128 -9 -61 -28 -206 -42 -322 -27 -223 -50 -349 -84 -457 -50 -160
-132 -300 -228 -390 -66 -61 -186 -125 -252 -134 l-45 -6 71 68 c85 84 123
137 179 257 87 186 110 347 101 702 l-7 251 48 40 c79 66 111 85 181 110 80
28 81 28 88 9z m-2683 -238 c38 -17 83 -51 126 -94 l68 -68 6 -110 c18 -290
93 -513 240 -707 70 -94 136 -154 247 -227 100 -66 92 -73 -46 -41 -151 35
-222 75 -345 199 -94 94 -112 118 -152 201 -52 107 -92 225 -166 483 -55 190
-80 253 -129 331 -18 28 -32 54 -32 59 0 19 125 1 183 -26z m3095 -56 c-2 -4
-24 -50 -50 -102 -33 -64 -67 -160 -108 -300 -32 -114 -72 -238 -87 -275 -61
-154 -260 -397 -368 -450 -50 -24 -145 -54 -174 -54 -7 0 -1 10 15 22 61 46
128 116 174 183 50 75 123 213 147 280 23 65 59 238 88 420 15 94 34 177 41
186 24 27 165 88 224 97 57 8 103 5 98 -7z m-3303 -334 c96 -50 102 -58 151
-220 59 -195 101 -300 154 -378 54 -79 157 -183 230 -232 l55 -37 -76 0 c-144
0 -255 45 -354 145 -67 67 -114 151 -209 368 -70 161 -96 204 -168 286 -32 36
-58 69 -58 73 0 19 50 28 135 25 74 -3 99 -8 140 -30z m3605 -41 c0 -7 -14
-31 -31 -52 -52 -64 -95 -135 -184 -304 -101 -191 -147 -261 -223 -339 -105
-107 -346 -202 -448 -177 -28 7 -27 8 31 39 109 58 303 275 377 422 17 33 46
101 64 150 29 79 41 97 94 147 33 32 78 67 100 78 83 43 220 65 220 36z
m-1725 -851 c107 -27 184 -72 265 -154 92 -93 131 -166 138 -262 8 -116 -34
-193 -139 -249 -61 -33 -69 -35 -165 -35 -94 0 -104 2 -166 34 l-66 33 -67
-27 c-91 -36 -175 -49 -237 -36 -147 32 -248 143 -248 272 0 73 20 127 74 203
101 142 213 208 380 226 116 12 168 11 231 -5z m-684 -123 c-17 -21 -57 -87
-89 -147 -47 -89 -67 -117 -107 -147 -60 -46 -181 -109 -250 -132 -137 -44
-423 -69 -550 -47 -113 19 -110 16 -72 64 19 23 71 97 115 163 172 255 237
281 725 283 l258 1 -30 -38z m1219 8 c36 -5 137 -14 225 -19 102 -6 178 -16
210 -27 67 -23 136 -94 256 -264 93 -131 116 -155 244 -244 18 -13 17 -15 -33
-40 -78 -39 -163 -56 -293 -56 -172 0 -355 42 -499 115 -70 35 -79 51 -91 151
-13 119 -31 179 -90 296 l-49 98 27 0 c16 0 57 -5 93 -10z m-1346 -487 c3 -21
6 -57 6 -80 0 -37 -4 -44 -30 -58 l-30 -16 0 85 c0 70 3 87 18 95 26 16 29 14
36 -26z m-134 -112 l0 -99 -30 -11 -30 -10 0 100 c0 94 1 100 23 109 12 5 25
9 30 9 4 1 7 -44 7 -98z m-130 -41 c0 -99 0 -101 -26 -110 -14 -6 -30 -10 -35
-10 -5 0 -9 46 -9 104 0 111 0 111 53 115 15 1 17 -10 17 -99z m-140 -30 l0
-100 -35 0 -35 0 0 93 c0 52 3 97 7 100 3 4 19 7 35 7 l28 0 0 -100z m-459 80
c27 0 29 -3 29 -35 0 -19 -4 -35 -8 -35 -4 0 -26 19 -47 41 -24 25 -32 39 -22
35 10 -3 32 -6 48 -6z m172 -21 c6 -9 7 -39 3 -72 l-7 -56 -35 16 c-32 16 -34
19 -34 68 0 29 3 55 7 59 12 12 55 2 66 -15z m145 -66 l-3 -88 -30 0 -30 0 -3
88 -3 87 36 0 36 0 -3 -87z m772 -28 c0 -25 -4 -45 -9 -45 -20 0 -51 54 -51
87 l0 34 30 -16 c27 -14 30 -21 30 -60z m960 12 c0 -57 -3 -66 -30 -92 l-30
-29 0 82 c0 76 2 83 23 92 36 14 37 13 37 -53z m230 38 c29 -15 30 -19 30 -80
0 -36 -3 -65 -6 -65 -4 0 -22 9 -40 21 -32 20 -34 23 -34 80 0 64 4 68 50 44z
m-1032 -118 c1 -48 0 -87 -4 -87 -4 0 -22 9 -40 21 -33 20 -34 22 -34 88 0 37
2 70 5 73 3 3 20 2 38 -1 l32 -7 3 -87z m323 93 c17 -10 19 -22 19 -131 l0
-120 -47 3 -48 3 -3 104 c-4 135 18 173 79 141z m339 -89 l0 -99 -31 -11 c-18
-6 -36 -11 -40 -11 -10 0 -12 203 -2 213 3 4 21 7 40 7 l33 0 0 -99z m-519 69
l29 0 0 -99 c0 -55 -4 -103 -10 -106 -5 -3 -25 -3 -45 1 l-35 6 0 105 c0 92 2
104 16 99 9 -3 29 -6 45 -6z m359 -105 c0 -115 0 -115 -24 -115 -13 0 -31 -3
-40 -6 -14 -5 -16 8 -16 108 0 63 3 118 7 121 3 4 21 7 40 7 l33 0 0 -115z
m684 85 c24 -9 26 -14 26 -70 0 -65 -1 -66 -49 -49 -30 11 -31 13 -31 70 0 64
5 68 54 49z m626 5 c0 -7 -92 -75 -101 -75 -5 0 -9 11 -9 25 0 20 7 26 43 35
23 6 47 13 52 15 6 2 11 4 13 4 1 1 2 -1 2 -4z m-452 -98 l3 -58 -38 3 -38 3
-3 58 -3 58 38 -3 38 -3 3 -58z m262 18 c0 -25 -4 -45 -9 -45 -5 0 -16 -3 -25
-6 -13 -5 -16 2 -16 39 0 44 4 50 43 56 4 0 7 -19 7 -44z m-122 -22 c-3 -46
-4 -48 -35 -51 l-33 -3 0 50 0 51 36 0 35 0 -3 -47z m-1161 -240 c-2 -10 -16
-57 -30 -105 -59 -199 -71 -441 -32 -638 8 -41 15 -80 15 -86 0 -24 -32 -23
-74 3 -45 27 -45 27 -62 118 -23 121 -23 351 0 460 10 44 31 122 48 173 l31
92 54 0 c48 0 55 -2 50 -17z m626 -808 c37 -8 130 -34 206 -59 205 -67 249
-76 398 -76 l132 0 19 -27 c10 -16 108 -179 217 -363 109 -184 205 -346 214
-359 l15 -24 -149 5 c-119 5 -218 17 -475 61 -384 66 -539 82 -708 73 -187
-11 -383 -69 -492 -146 -15 -11 -33 -20 -39 -20 -15 0 -14 136 4 455 8 143 15
284 15 312 l0 53 68 33 c37 19 91 42 120 52 131 43 333 56 455 30z m-976 -30
c45 -9 109 -30 153 -52 l75 -38 -2 -130 c-1 -155 -22 -621 -29 -652 -4 -22 -6
-21 -78 18 -169 91 -284 114 -561 113 -224 0 -263 -4 -685 -74 -303 -50 -414
-62 -528 -58 l-92 3 317 399 318 399 210 2 c221 3 336 16 525 59 125 29 261
33 377 11z m-201 -830 c115 -20 171 -38 267 -87 58 -31 75 -43 67 -53 -8 -10
-28 -4 -88 26 -101 51 -211 78 -354 87 -163 12 -316 0 -668 -52 -389 -57 -504
-68 -669 -64 -196 4 -179 23 22 24 168 1 230 8 597 70 113 19 257 40 320 48
160 19 397 20 506 1z m1320 4 c60 -6 255 -35 434 -66 268 -46 353 -56 483 -61
105 -3 155 -8 148 -15 -6 -6 -70 -8 -173 -4 -137 4 -211 13 -463 58 l-300 53
-230 0 c-208 0 -238 -2 -310 -22 -75 -21 -207 -79 -267 -118 -26 -17 -27 -17
-46 7 -11 13 -18 28 -15 33 11 16 188 94 253 111 131 34 301 42 486 24z
m-1291 -108 c91 -19 255 -85 255 -104 0 -11 -3 -10 -119 33 -140 51 -237 63
-471 57 -161 -4 -249 -12 -410 -36 -377 -59 -489 -71 -652 -71 -94 0 -159 4
-163 10 -4 6 39 10 122 10 146 0 364 23 698 74 127 19 244 37 260 39 17 2 111
5 210 5 141 1 200 -2 270 -17z m1717 -40 c163 -28 338 -55 390 -60 l93 -10
-115 4 c-63 2 -196 17 -295 34 -304 50 -400 61 -554 61 -221 0 -371 -32 -533
-115 -60 -30 -90 -33 -73 -5 10 16 126 76 190 99 125 45 178 51 395 47 192 -4
224 -7 502 -55z m-1237 -73 c59 -68 135 -217 135 -267 0 -71 -57 -101 -191
-101 -190 0 -226 65 -133 239 35 68 119 181 134 181 5 0 29 -24 55 -52z m915
37 c41 -3 188 -24 325 -46 193 -31 289 -42 423 -46 94 -3 172 -10 172 -14 0
-32 -195 -30 -405 6 -528 88 -817 86 -1102 -10 -145 -49 -143 -49 -143 -36 0
12 104 65 185 94 90 32 169 48 275 57 83 7 115 6 270 -5z m-1415 -14 c110 -23
219 -63 222 -82 2 -8 -1 -20 -5 -27 -7 -10 -27 -8 -97 13 -220 63 -426 86
-595 66 -52 -6 -162 -25 -245 -41 -223 -43 -354 -54 -551 -46 -201 8 -284 24
-131 25 146 1 314 18 577 56 129 19 264 39 300 44 36 5 148 9 250 10 146 1
204 -3 275 -18z m-75 -110 c159 -34 255 -64 255 -81 0 -21 -32 -18 -195 16
-123 25 -154 28 -360 28 -191 1 -247 -3 -370 -23 -182 -29 -472 -39 -619 -21
-128 16 -148 34 -24 23 130 -12 396 -9 493 6 47 7 140 23 208 37 67 13 153 28
190 33 99 14 312 5 422 -18z m1638 14 c81 -9 233 -30 337 -47 128 -21 228 -31
308 -32 64 0 117 -4 117 -7 0 -27 -208 -24 -459 5 -512 61 -765 54 -1073 -32
-54 -15 -68 -17 -68 -6 0 33 229 105 405 127 77 10 300 6 433 -8z m-1633 -128
c180 -36 235 -51 235 -64 0 -11 -4 -11 -20 -3 -15 8 -253 10 -815 8 l-795 -3
0 24 c0 20 3 23 28 17 15 -4 119 -10 232 -13 208 -6 265 -1 565 43 113 17 469
11 570 -9z m1935 -11 c157 -21 237 -27 339 -24 91 2 136 -1 138 -8 2 -7 -24
-13 -73 -18 -108 -9 -1504 -8 -1504 2 0 8 115 36 260 64 149 28 565 20 840
-16z"/>
<path d="M6508 4805 c4 -23 9 -25 53 -25 46 0 49 2 49 25 0 24 -3 25 -54 25
-51 0 -53 -1 -48 -25z"/>
<path d="M6353 4799 c-53 -20 -64 -37 -40 -57 10 -8 29 -5 73 10 72 26 67 22
59 47 -8 26 -25 26 -92 0z"/>
<path d="M6682 4798 c2 -18 14 -24 63 -34 67 -13 75 -11 75 16 0 21 -51 40
-108 40 -29 0 -33 -3 -30 -22z"/>
<path d="M6875 4760 c-9 -27 -9 -27 46 -35 41 -6 47 -5 52 14 6 25 2 28 -50
37 -36 5 -42 4 -48 -16z"/>
<path d="M7050 4731 c0 -25 4 -27 68 -36 51 -7 52 -6 52 18 0 19 -6 26 -31 31
-61 12 -89 8 -89 -13z"/>
<path d="M7255 4710 c-9 -27 -9 -27 48 -35 46 -7 47 -7 47 19 0 15 -6 26 -14
26 -7 0 -27 3 -44 6 -25 5 -31 2 -37 -16z"/>
<path d="M6467 4689 c-32 -5 -79 -18 -104 -29 -46 -20 -47 -21 -27 -40 19 -19
20 -19 74 0 30 11 74 19 98 20 40 0 42 1 42 30 0 18 -5 30 -12 29 -7 -1 -39
-5 -71 -10z"/>
<path d="M6630 4676 c0 -27 5 -29 83 -40 20 -2 37 -1 37 4 0 5 3 15 6 23 6 15
0 17 -88 32 -36 6 -38 4 -38 -19z"/>
<path d="M6827 4664 c-20 -21 -5 -42 37 -53 69 -17 86 -15 86 13 0 20 -7 25
-37 31 -21 3 -47 9 -58 11 -11 3 -24 2 -28 -2z"/>
<path d="M7023 4624 c-13 -33 5 -44 72 -44 58 0 65 2 65 20 0 21 -12 25 -88
34 -31 3 -45 0 -49 -10z"/>
<path d="M7246 4593 c-10 -25 2 -31 87 -42 107 -15 107 -15 107 14 0 31 -3 32
-107 39 -69 4 -82 3 -87 -11z"/>
<path d="M6558 4565 c-3 -3 -3 -17 0 -30 4 -24 8 -25 72 -25 53 0 69 4 74 16
15 40 8 44 -67 44 -41 0 -76 -2 -79 -5z"/>
<path d="M6780 4541 c0 -12 0 -24 0 -28 -1 -5 24 -13 54 -19 46 -9 56 -9 61 3
11 30 4 41 -32 48 -21 3 -48 9 -60 12 -18 4 -23 1 -23 -16z"/>
<path d="M6403 4529 c-58 -22 -59 -25 -38 -53 14 -18 16 -18 62 -1 62 23 67
28 54 54 -14 25 -13 25 -78 0z"/>
<path d="M6958 4497 c-4 -23 -1 -26 50 -36 76 -15 82 -14 82 13 0 27 -10 33
-79 42 -46 6 -48 5 -53 -19z"/>
<path d="M7168 4466 c-5 -27 -4 -28 94 -41 41 -5 47 -4 53 16 10 30 -1 36 -76
44 -65 6 -67 6 -71 -19z"/>
<path d="M7394 4455 c-4 -14 -3 -29 1 -33 9 -9 152 -8 161 1 4 4 2 18 -4 32
-10 22 -16 24 -39 18 -35 -9 -51 -9 -85 0 -24 6 -28 4 -34 -18z"/>
<path d="M6600 4423 c0 -36 15 -44 71 -41 51 3 54 5 57 31 l3 27 -65 0 c-56 0
-66 -3 -66 -17z"/>
<path d="M6800 4417 c0 -8 -2 -22 -5 -29 -4 -11 10 -17 57 -26 34 -6 63 -10
64 -9 1 1 5 14 9 29 7 28 9 27 -87 44 -30 5 -38 3 -38 -9z"/>
<path d="M6445 4407 c-16 -7 -41 -18 -54 -26 l-23 -13 21 -21 c19 -20 24 -20
53 -8 18 7 45 16 61 18 27 5 32 17 21 47 -7 19 -36 19 -79 3z"/>
<path d="M6990 4376 c0 -8 -2 -20 -5 -28 -4 -10 14 -17 71 -26 42 -6 80 -9 85
-6 5 3 9 16 9 29 0 20 -7 24 -63 34 -83 14 -97 14 -97 -3z"/>
<path d="M7216 4335 c-4 -15 -5 -29 -3 -31 2 -2 38 -7 80 -10 l77 -7 0 32 c0
29 -2 31 -37 31 -21 0 -54 3 -74 6 -33 6 -37 4 -43 -21z"/>
<path d="M7448 4305 c-7 -33 2 -37 89 -43 l73 -5 0 27 c0 31 -3 32 -91 40 -65
6 -67 6 -71 -19z"/>
<path d="M5612 4798 c3 -20 10 -23 56 -26 50 -3 52 -2 52 22 0 25 -3 26 -56
26 -52 0 -55 -1 -52 -22z"/>
<path d="M5458 4798 c-47 -10 -56 -20 -39 -46 7 -11 19 -11 70 -1 54 10 62 14
59 33 -4 25 -24 28 -90 14z"/>
<path d="M5783 4785 c-7 -21 -3 -24 62 -50 49 -20 57 -21 70 -8 23 22 19 29
-34 52 -59 25 -89 27 -98 6z"/>
<path d="M5277 4763 c-22 -4 -28 -9 -25 -26 3 -20 8 -22 53 -19 58 4 59 4 50
31 -6 21 -17 23 -78 14z"/>
<path d="M4880 4727 c0 -17 7 -26 23 -31 44 -12 57 -7 57 19 0 20 -5 25 -24
25 -13 0 -31 3 -40 6 -12 5 -16 0 -16 -19z"/>
<path d="M5093 4743 c-38 -4 -43 -7 -43 -29 0 -27 7 -28 84 -18 40 6 46 10 46
30 0 26 3 25 -87 17z"/>
<path d="M5532 4679 c-62 -8 -66 -11 -57 -38 5 -18 12 -19 58 -14 60 6 66 11
58 38 -5 18 -11 20 -59 14z"/>
<path d="M5670 4658 c0 -23 5 -26 54 -32 30 -3 76 -15 102 -27 46 -19 49 -19
61 -2 7 9 12 22 10 27 -5 16 -106 47 -169 53 -57 6 -58 5 -58 -19z"/>
<path d="M5317 4648 c-42 -9 -47 -13 -41 -32 4 -11 8 -22 9 -24 3 -4 116 16
121 21 2 2 1 13 -3 25 -6 24 -14 25 -86 10z"/>
<path d="M5103 4623 c-38 -4 -43 -7 -43 -29 0 -21 4 -24 39 -24 73 0 101 10
101 36 0 26 1 26 -97 17z"/>
<path d="M4778 4614 c-5 -4 -8 -18 -8 -31 0 -23 2 -23 105 -23 l105 0 0 25 c0
24 -3 25 -54 25 -29 0 -73 3 -97 6 -24 3 -47 2 -51 -2z"/>
<path d="M5517 4553 c-4 -3 -7 -17 -7 -30 0 -23 2 -24 73 -21 65 3 72 5 75 24
3 18 -4 22 -35 27 -50 9 -98 9 -106 0z"/>
<path d="M5338 4533 c-32 -5 -31 -4 -19 -36 9 -23 11 -24 65 -14 49 9 56 13
56 34 0 20 -4 23 -37 22 -21 -1 -50 -4 -65 -6z"/>
<path d="M5736 4515 c-10 -28 -8 -32 45 -54 39 -16 55 -18 65 -10 23 19 16 39
-19 54 -61 25 -84 28 -91 10z"/>
<path d="M5158 4503 c-27 -3 -38 -9 -38 -21 0 -38 13 -42 79 -31 55 10 62 14
59 33 -3 23 -27 27 -100 19z"/>
<path d="M4672 4453 c3 -27 5 -28 76 -31 l72 -3 0 31 0 30 -76 0 -75 0 3 -27z"/>
<path d="M4900 4449 l0 -31 73 7 c39 4 74 9 75 10 2 2 1 13 -3 24 -6 19 -14
21 -76 21 l-69 0 0 -31z"/>
<path d="M5482 4403 c3 -26 6 -28 59 -31 51 -3 57 -1 62 19 9 34 1 39 -64 39
-60 0 -60 0 -57 -27z"/>
<path d="M5322 4410 c-42 -10 -46 -14 -38 -43 5 -23 7 -23 66 -14 57 9 60 11
60 38 0 25 -4 29 -27 28 -16 -1 -43 -5 -61 -9z"/>
<path d="M5686 4394 c-12 -31 -5 -40 55 -63 58 -22 61 -23 74 -5 21 28 19 34
-27 53 -68 29 -95 33 -102 15z"/>
<path d="M5095 4371 c-36 -5 -40 -9 -37 -31 2 -14 6 -27 8 -29 6 -6 129 10
143 18 8 5 11 17 6 30 -7 22 -34 25 -120 12z"/>
<path d="M4903 4352 l-73 -3 0 -29 c0 -29 1 -30 49 -30 82 0 111 9 111 36 0
29 -1 30 -87 26z"/>
<path d="M4570 4310 l0 -30 95 0 95 0 0 30 0 30 -95 0 -95 0 0 -30z"/>
<path d="M5655 2764 c-27 -2 -124 -8 -215 -14 -1009 -68 -2026 -319 -2973
-735 -59 -26 -107 -49 -107 -52 0 -3 34 -78 76 -167 106 -225 102 -199 36
-226 -89 -35 -375 -186 -504 -265 l-117 -71 40 -74 c22 -40 169 -314 326 -609
157 -295 289 -539 293 -544 3 -4 54 15 112 42 389 182 832 345 1208 445 96 26
180 49 186 51 8 2 -10 91 -57 277 -38 150 -69 280 -69 289 0 12 15 19 53 27
458 98 733 145 1042 182 978 114 1911 78 2845 -110 223 -46 426 -93 435 -102
3 -3 -115 -499 -131 -550 -4 -13 5 -19 38 -28 458 -117 858 -257 1286 -451 96
-44 178 -79 182 -79 4 0 155 275 335 611 273 511 325 613 314 624 -33 32 -251
155 -444 251 -115 58 -211 106 -213 108 -2 2 33 84 78 181 45 98 78 181 73
186 -4 4 -66 33 -138 64 -760 331 -1569 556 -2417 670 -383 51 -621 67 -1088
70 -239 1 -457 1 -485 -1z m930 -225 c806 -45 1696 -230 2463 -510 196 -72
434 -167 446 -179 6 -6 -330 -755 -349 -778 -1 -1 -110 33 -241 77 -703 235
-1371 366 -2214 433 -206 17 -1002 17 -1225 0 -831 -61 -1614 -210 -2333 -444
-68 -22 -125 -38 -126 -36 -2 2 -83 171 -180 377 -134 283 -174 376 -164 383
7 4 93 39 190 78 909 362 1882 569 2868 610 215 9 602 4 865 -11z m-3851
-1372 c196 -416 317 -688 311 -696 -3 -5 -19 -14 -35 -20 l-30 -10 -230 458
-229 459 47 20 c26 11 49 21 52 21 3 1 54 -104 114 -232z m6853 206 c24 -10
43 -21 43 -26 0 -17 -451 -907 -460 -907 -16 0 -60 23 -60 31 0 5 75 169 166
366 240 518 256 553 263 553 3 0 25 -8 48 -17z m-6939 -518 c122 -245 222
-449 222 -454 0 -4 -18 -15 -40 -23 l-39 -16 -231 438 c-126 242 -230 443
-230 449 0 11 66 50 85 51 6 0 110 -200 233 -445z m7142 420 l49 -25 -59 -112
c-33 -62 -137 -260 -232 -440 -94 -180 -176 -329 -182 -331 -6 -3 -28 2 -48
10 l-37 15 227 454 c125 250 228 454 230 454 1 0 25 -11 52 -25z m-7335 -523
c125 -238 226 -434 224 -436 -2 -2 -18 -11 -36 -20 -31 -16 -33 -15 -46 6 -8
13 -108 199 -222 413 -114 215 -212 394 -216 400 -20 21 -9 51 24 67 17 9 35
13 38 9 4 -3 109 -201 234 -439z m7526 421 c16 -10 29 -22 29 -28 0 -6 -103
-201 -228 -435 -205 -383 -230 -425 -251 -422 -12 1 -31 8 -40 15 -16 11 2 49
212 450 127 240 235 437 240 437 5 0 22 -8 38 -17z m-6855 -377 c14 -14 104
-230 104 -249 0 -8 -16 -19 -36 -25 l-35 -11 -31 67 c-52 117 -108 243 -108
246 0 8 96 -17 106 -28z m6014 19 c0 -9 -132 -290 -140 -299 -7 -6 -80 9 -80
18 0 1 24 60 53 131 53 127 55 130 93 142 42 12 74 16 74 8z m-5788 -61 c21
-6 75 -141 62 -154 -5 -5 -23 -12 -40 -16 -30 -6 -31 -5 -67 83 -21 48 -37 92
-37 96 0 8 36 4 82 -9z m5502 -86 c-21 -51 -38 -94 -39 -95 0 -1 -18 3 -39 9
-34 11 -37 15 -32 40 3 15 16 49 28 75 20 43 28 49 68 59 25 6 47 10 49 8 2
-2 -14 -45 -35 -96z m-5254 33 l85 -18 -73 -23 c-40 -12 -75 -20 -77 -18 -11
10 -34 78 -28 78 5 -1 46 -9 93 -19z m5050 5 c0 -1 -5 -17 -11 -35 -13 -36
-28 -38 -109 -12 l-55 18 65 15 c63 16 110 22 110 14z"/>
<path d="M7318 2404 c-3 -3 -1 -21 5 -40 7 -22 17 -34 29 -34 26 0 91 -62 119
-114 13 -25 21 -47 19 -49 -3 -3 -43 1 -90 9 -47 7 -113 16 -148 20 l-63 7 14
-34 c11 -29 19 -35 54 -40 50 -6 75 -25 71 -53 -2 -17 -13 -23 -55 -30 l-52
-9 2 -41 c2 -41 2 -41 -50 -58 -61 -21 -113 -10 -113 23 0 26 37 39 89 32 34
-5 41 -3 41 11 0 34 -20 56 -50 56 -17 0 -30 5 -30 10 0 6 8 10 18 10 10 0 28
7 40 16 56 39 -4 132 -77 120 -41 -6 -81 -46 -81 -80 0 -13 10 -36 22 -51 19
-24 20 -29 6 -39 -46 -34 -44 -98 5 -146 34 -33 79 -45 133 -37 44 7 64 23 64
50 0 16 8 11 39 -24 38 -43 40 -44 99 -44 l60 1 -5 -31 c-4 -23 1 -35 21 -54
16 -15 30 -21 35 -15 5 5 19 77 32 161 12 84 26 157 29 164 6 8 26 8 76 0 67
-10 94 -27 94 -58 0 -16 -41 -33 -81 -33 -33 0 -35 -8 -18 -77 8 -28 26 -60
49 -84 34 -36 41 -39 93 -39 l56 0 -5 -32 c-5 -27 0 -38 24 -61 l30 -29 11 54
c6 29 22 106 35 171 13 65 25 119 27 122 2 2 28 -2 57 -7 59 -12 61 -17 40
-107 -10 -43 -15 -51 -35 -51 -29 0 -29 -4 7 -67 31 -54 51 -74 57 -56 12 36
27 42 79 30 47 -11 50 -14 43 -37 -15 -52 -10 -86 16 -110 14 -13 26 -22 28
-19 1 2 20 76 41 164 21 88 40 163 42 167 3 3 19 2 36 -3 39 -11 42 -8 33 30
-5 26 -13 32 -48 41 -23 6 -52 15 -65 20 -45 19 -559 127 -690 145 -36 5 -55
12 -59 24 -23 67 -88 183 -118 210 -32 28 -73 40 -87 25z m-182 -238 c15 -12
17 -18 8 -33 -15 -24 -58 -24 -62 0 -4 18 14 47 27 47 4 0 16 -6 27 -14z m289
-62 l47 -7 -6 -63 c-4 -35 -9 -70 -12 -78 -14 -36 -131 -54 -160 -24 -24 23
-3 48 40 48 59 0 71 37 35 104 -15 29 -17 37 -6 33 8 -3 36 -9 62 -13z m390
-68 c32 -8 49 -18 48 -27 -1 -8 -7 -40 -13 -72 -11 -53 -15 -60 -46 -73 -48
-20 -107 -18 -128 5 -15 16 -15 19 -1 31 9 7 33 16 53 19 36 6 37 7 36 51 0
25 -4 53 -8 63 -10 20 -6 21 59 3z m392 -90 c38 -13 37 -10 21 -86 -13 -66
-14 -66 -84 -49 -46 12 -46 12 -39 48 3 20 11 53 16 74 11 41 7 40 86 13z"/>
<path d="M5670 2279 c-252 -11 -360 -21 -360 -33 1 -20 26 -45 52 -51 24 -6
26 -11 31 -85 7 -113 48 -160 139 -160 43 0 47 -2 50 -27 2 -18 14 -33 36 -46
l32 -19 -6 181 -7 181 86 0 87 0 0 -58 0 -57 -32 0 c-28 0 -33 -4 -36 -27 -3
-22 12 -43 80 -113 94 -99 115 -114 125 -90 4 11 -11 33 -46 69 -46 46 -50 54
-37 66 13 10 16 34 16 111 l0 98 43 6 c24 4 61 5 83 3 l39 -4 3 -73 c3 -66 1
-73 -18 -78 -27 -7 -26 -13 11 -59 48 -60 75 -71 81 -31 3 19 10 22 56 25 l52
3 0 -50 c0 -43 4 -52 29 -70 16 -12 32 -21 35 -21 3 0 6 79 6 176 l0 177 67
-7 c37 -4 69 -9 71 -11 2 -1 0 -35 -4 -74 -6 -60 -9 -71 -25 -71 -30 0 -22
-24 24 -76 44 -48 67 -52 67 -13 0 18 6 20 53 17 l52 -3 0 -49 c0 -41 4 -52
27 -69 15 -11 30 -18 33 -15 3 2 11 81 18 174 l12 169 37 3 c36 3 36 4 27 32
l-10 28 -117 7 c-64 3 -169 10 -232 15 -126 11 -486 10 -730 -1z m560 -134 l0
-75 -39 0 c-67 0 -71 4 -71 81 l0 69 55 0 55 0 0 -75z m-666 19 c10 -76 7
-110 -11 -126 -28 -24 -58 -37 -70 -30 -6 4 -14 48 -18 99 l-7 92 38 4 c22 2
44 4 50 5 6 1 14 -19 18 -44z m1029 36 c30 0 33 -14 21 -104 l-7 -47 -51 3
-51 3 4 70 c4 82 6 89 35 81 11 -3 33 -6 49 -6z"/>
<path d="M4885 2199 c-313 -48 -1103 -215 -1128 -238 -4 -4 4 -18 18 -31 l25
-24 113 28 c61 15 118 30 124 32 17 4 29 -46 15 -55 -7 -4 -55 -17 -107 -30
-123 -30 -139 -50 -58 -75 57 -18 103 -54 103 -80 0 -8 -7 -22 -16 -31 -15
-14 -18 -14 -40 0 -31 20 -41 19 -54 -6 -20 -37 -4 -67 43 -80 23 -7 61 -30
84 -51 26 -23 48 -35 58 -32 22 9 19 16 -25 59 l-39 38 29 34 c41 47 40 82 -5
122 -20 17 -41 31 -48 32 -22 1 48 28 75 29 17 0 28 -6 31 -17 3 -10 13 -50
22 -89 15 -66 18 -71 51 -83 20 -7 37 -11 39 -9 2 2 -13 78 -34 168 -21 91
-36 168 -32 172 3 4 25 10 47 14 49 7 41 23 79 -162 l27 -131 35 -12 c19 -7
36 -11 38 -9 4 3 -13 88 -61 319 -6 25 -5 26 103 44 59 10 120 20 134 22 25 5
27 2 34 -47 4 -28 5 -53 3 -55 -2 -3 -42 -12 -89 -22 -71 -15 -84 -21 -87 -39
-2 -15 9 -31 36 -53 51 -40 72 -40 72 -2 0 31 14 41 60 41 26 0 28 -4 39 -60
10 -51 16 -62 42 -76 17 -8 34 -13 37 -9 5 5 -19 177 -45 316 -5 24 -1 27 34
33 21 4 47 10 59 12 18 5 22 0 28 -38 4 -24 9 -57 12 -74 5 -26 2 -32 -15 -37
-12 -3 -21 -9 -21 -15 0 -12 90 -82 106 -82 6 0 17 14 23 30 9 27 14 30 54 30
48 0 57 -9 57 -59 0 -22 8 -31 36 -45 20 -9 38 -15 41 -12 2 2 -5 69 -16 148
-29 197 -29 194 15 205 l36 8 -22 28 c-25 31 -17 31 -175 6z m48 -81 c3 -13 9
-46 13 -75 l6 -52 -38 -6 c-22 -4 -46 -9 -55 -11 -13 -4 -18 10 -28 67 -6 40
-9 74 -6 77 4 5 63 18 91 21 7 0 14 -9 17 -21z"/>
<path d="M6576 1818 c11 -37 24 -48 58 -48 36 0 64 -16 122 -72 55 -53 68 -32
19 30 -59 77 -110 112 -162 112 -41 0 -44 -2 -37 -22z"/>
<path d="M4960 1778 c1 -30 27 -45 82 -50 44 -4 70 -13 112 -41 63 -42 66 -43
66 -23 0 16 -63 70 -120 105 -40 24 -140 30 -140 9z"/>
<path d="M8130 1578 c1 -37 14 -56 42 -62 43 -8 82 -40 115 -91 30 -48 60 -62
47 -22 -14 45 -86 147 -118 167 -37 22 -86 27 -86 8z"/>
</g>
</svg>
