<?xml version="1.0" standalone="no"?>
<!DOCTYPE svg PUBLIC "-//W3C//DTD SVG 20010904//EN"
 "http://www.w3.org/TR/2001/REC-SVG-20010904/DTD/svg10.dtd">
<svg version="1.0" xmlns="http://www.w3.org/2000/svg"
 width="2560.000000pt" height="60.000000pt" viewBox="0 0 2560.000000 725.000000"
 preserveAspectRatio="xMidYMid meet">

<g transform="translate(0.000000,725.000000) scale(0.100000,-0.100000)"
fill="#000000" stroke="none">
<path d="M130 6770 l0 -360 560 0 560 0 0 -1185 0 -1185 415 0 415 0 0 1185 0
1185 565 0 565 0 0 360 0 360 -1540 0 -1540 0 0 -360z"/>
<path d="M10030 5545 l0 -1545 410 0 410 0 0 1545 0 1545 -410 0 -410 0 0
-1545z"/>
<path d="M7273 6286 c-178 -43 -325 -195 -362 -374 -7 -36 -11 -283 -11 -762
0 -479 4 -726 11 -762 37 -177 179 -327 354 -373 51 -13 202 -15 1152 -15
l1093 0 0 290 0 290 -783 0 c-873 0 -850 -2 -920 66 -75 73 -72 50 -72 524 0
473 -3 452 71 524 69 67 59 66 748 66 601 0 621 1 661 20 95 46 103 60 266
473 l19 47 -1088 -1 c-833 -1 -1099 -4 -1139 -13z"/>
<path d="M3540 5375 c0 -631 3 -930 11 -966 37 -174 175 -320 344 -363 51 -14
183 -16 1011 -16 l951 0 62 31 c71 36 66 30 267 323 l152 221 -912 5 c-680 4
-918 8 -938 17 -48 21 -106 83 -125 131 -16 43 -18 88 -18 517 l0 470 653 3
652 2 0 -146 c0 -80 -5 -154 -10 -165 -26 -48 -40 -49 -510 -49 l-440 0 0
-162 c1 -187 8 -234 45 -266 l27 -23 696 3 697 3 45 24 c61 32 107 76 138 136
l27 50 0 480 0 480 -28 47 c-15 26 -42 59 -60 72 -77 59 -2 56 -1428 56
l-1309 0 0 -915z"/>
<path d="M11285 6246 c-47 -21 -82 -64 -260 -321 l-166 -240 558 -5 c398 -4
566 -8 584 -17 42 -19 98 -73 122 -117 l22 -41 3 -752 2 -753 410 0 410 0 0
903 c0 736 -3 914 -14 968 -39 181 -170 322 -345 371 -60 17 -115 18 -681 18
-492 -1 -621 -3 -645 -14z"/>
<path d="M130 1650 l0 -1550 408 2 407 3 3 1188 2 1188 464 -3 c451 -3 465 -4
492 -24 15 -11 37 -33 48 -48 21 -27 21 -36 26 -1164 l5 -1137 410 0 410 0 5
1142 5 1142 35 36 c19 19 50 40 70 45 20 6 181 10 371 10 365 0 398 -4 466
-55 19 -15 46 -51 59 -79 l24 -51 0 -1097 0 -1098 410 0 410 0 0 1298 c0 1107
-2 1306 -15 1359 -46 196 -193 352 -395 420 -53 17 -143 18 -2087 21 l-2033 2
0 -1550z"/>
<path d="M8682 1653 l3 -1548 410 0 410 0 0 1545 0 1545 -413 3 -412 2 2
-1547z"/>
<path d="M12150 2644 c0 -442 3 -554 13 -547 6 4 191 125 410 270 l397 263 0
285 0 285 -410 0 -410 0 0 -556z"/>
<path d="M19060 2788 c0 -227 0 -797 0 -1265 l0 -853 -623 0 -624 0 -33 22
c-18 13 -41 39 -52 58 -18 33 -19 58 -16 445 3 445 3 442 62 512 14 17 48 42
74 55 46 23 55 23 417 28 l370 5 53 29 c29 16 57 35 62 41 5 6 75 122 154 256
l144 244 -860 3 c-933 2 -928 3 -1037 -53 -71 -35 -163 -125 -198 -192 -66
-123 -64 -90 -61 -944 l3 -774 24 -60 c48 -119 177 -214 318 -235 42 -6 562
-10 1356 -10 l1287 0 0 1550 0 1550 -410 0 -410 0 0 -412z"/>
<path d="M5680 2355 c-25 -8 -64 -30 -87 -50 -35 -29 -363 -490 -363 -509 0
-3 425 -6 945 -6 634 0 960 -4 994 -11 65 -14 123 -56 158 -116 l28 -48 3
-482 3 -483 -726 0 -726 0 3 151 3 151 28 24 28 24 520 0 519 0 0 185 c0 206
-6 232 -60 260 -26 14 -121 15 -782 13 -746 -3 -753 -3 -799 -24 -60 -28 -125
-93 -153 -153 -20 -45 -21 -60 -24 -508 -3 -455 -2 -463 19 -513 24 -55 81
-113 138 -138 33 -16 155 -17 1426 -17 l1390 0 3 875 c1 540 -1 907 -7 958
-25 207 -164 364 -367 417 -84 22 -2044 21 -2114 0z"/>
<path d="M9955 2359 c-17 -4 -45 -23 -63 -40 -28 -27 -372 -512 -372 -524 0
-2 242 -5 538 -7 l538 -3 49 -26 c62 -32 110 -93 124 -159 7 -34 11 -290 11
-775 l0 -725 410 0 410 0 0 913 c0 1002 1 976 -61 1099 -39 77 -126 164 -201
200 -118 58 -120 58 -763 57 -324 0 -604 -5 -620 -10z"/>
<path d="M13512 1238 l3 -1133 412 -3 413 -2 2 842 3 843 490 0 c541 0 537 0
607 -63 78 -71 72 -8 78 -857 l5 -760 413 -3 412 -2 0 912 c0 770 -3 923 -15
976 -43 184 -177 319 -362 367 -49 13 -227 15 -1260 15 l-1203 0 2 -1132z"/>
<path d="M20670 2356 c-96 -26 -183 -105 -219 -200 -21 -57 -21 -60 -21 -1056
l0 -1000 413 2 412 3 5 766 5 765 27 41 c34 52 81 88 133 102 25 7 163 11 371
11 227 0 342 4 365 12 78 26 110 60 257 268 80 113 161 226 179 253 l35 47
-959 -1 c-724 0 -969 -3 -1003 -13z"/>
<path d="M23062 2355 c-87 -27 -114 -56 -287 -310 -91 -134 -165 -246 -165
-249 0 -3 425 -6 945 -6 645 0 960 -3 995 -11 66 -14 127 -62 159 -124 25 -48
26 -54 29 -295 2 -135 1 -350 -3 -478 l-7 -232 -719 0 -719 0 0 146 0 146 29
29 29 29 521 0 521 0 0 185 c0 205 -6 232 -60 260 -44 23 -1471 23 -1548 0
-74 -22 -144 -82 -178 -152 l-29 -58 -3 -462 c-3 -455 -2 -464 19 -513 24 -55
81 -113 138 -138 33 -16 155 -17 1426 -17 l1390 0 0 925 0 925 -22 71 c-53
167 -177 284 -350 329 -81 21 -2044 21 -2111 0z"/>
<path d="M12630 2135 c-179 -112 -346 -224 -371 -248 -26 -24 -60 -68 -75 -98
l-29 -54 -3 -817 -2 -818 410 0 410 0 0 1120 c0 616 -3 1120 -7 1119 -5 0
-154 -92 -333 -204z"/>
</g>
</svg>
