<?xml version="1.0" standalone="no"?>
<!DOCTYPE svg PUBLIC "-//W3C//DTD SVG 20010904//EN"
 "http://www.w3.org/TR/2001/REC-SVG-20010904/DTD/svg10.dtd">
<svg version="1.0" xmlns="http://www.w3.org/2000/svg"
 width="920.000000pt" height="80.000000pt" viewBox="0 0 180.000000 213.000000"
 preserveAspectRatio="xMidYMid meet">

<g transform="translate(0.000000,213.000000) scale(0.100000,-0.100000)"
fill="#000000" stroke="none">
<path d="M4040 1705 l0 -425 90 0 90 0 0 195 c0 211 5 237 51 261 57 29 119
11 144 -41 12 -26 15 -72 15 -224 l0 -191 90 0 90 0 0 223 c0 122 -5 238 -10
258 -26 93 -101 149 -197 149 -62 0 -104 -15 -150 -54 l-33 -28 0 151 0 151
-90 0 -90 0 0 -425z"/>
<path d="M4760 2050 l0 -80 95 0 95 0 0 80 0 80 -95 0 -95 0 0 -80z"/>
<path d="M6280 1980 c0 -82 -3 -150 -6 -150 -3 0 -22 14 -43 30 -124 100 -316
49 -392 -105 -80 -163 -30 -370 108 -448 99 -55 214 -47 291 19 l42 36 0 -41
0 -41 85 0 85 0 0 425 0 425 -85 0 -85 0 0 -150z m-71 -247 c35 -25 71 -99 71
-143 0 -45 -37 -118 -73 -144 -59 -44 -148 -23 -200 45 -39 54 -34 157 10 210
51 60 134 74 192 32z"/>
<path d="M0 1553 l0 -538 23 35 c113 168 677 1029 677 1034 0 3 -157 6 -350 6
l-350 0 0 -537z"/>
<path d="M1270 1075 l0 -1015 38 15 c198 83 391 286 472 495 66 172 63 141 67
863 l4 657 -290 0 -291 0 0 -1015z"/>
<path d="M2370 1685 l0 -405 85 0 85 0 0 262 0 263 116 -174 116 -174 114 173
114 174 0 -262 0 -262 90 0 90 0 0 405 0 405 -98 0 -97 0 -101 -162 c-55 -89
-104 -163 -109 -164 -6 -2 -55 70 -110 159 l-101 162 -97 3 -97 3 0 -406z"/>
<path d="M7730 2000 c0 -15 7 -20 25 -20 24 0 25 -2 25 -70 0 -63 2 -70 20
-70 18 0 20 7 20 70 0 68 1 70 25 70 18 0 25 5 25 20 0 18 -7 20 -70 20 -63 0
-70 -2 -70 -20z"/>
<path d="M7910 1930 c0 -83 1 -90 20 -90 18 0 20 7 20 58 l0 57 21 -32 c12
-18 24 -33 28 -33 4 0 16 15 26 33 l20 32 3 -57 c3 -50 6 -58 22 -58 18 0 20
7 20 90 0 87 -1 90 -23 90 -15 0 -28 -11 -41 -35 -11 -19 -22 -35 -26 -35 -4
0 -15 16 -26 35 -13 24 -26 35 -41 35 -22 0 -23 -3 -23 -90z"/>
<path d="M3465 1896 c-27 -8 -62 -19 -77 -25 l-27 -10 21 -63 c11 -35 22 -65
24 -67 1 -1 33 5 71 14 97 25 169 16 206 -25 15 -17 27 -42 27 -56 0 -23 -3
-25 -22 -19 -13 3 -57 9 -99 12 -183 13 -293 -74 -276 -219 12 -98 79 -156
192 -165 71 -6 124 7 173 44 l32 24 0 -30 0 -31 85 0 85 0 0 216 c0 134 -4
231 -11 255 -16 51 -62 105 -112 131 -54 27 -216 35 -292 14z m215 -359 c31
-11 35 -16 33 -45 -4 -100 -185 -143 -223 -53 -33 81 77 137 190 98z"/>
<path d="M5385 1896 c-16 -7 -45 -25 -62 -40 l-33 -28 0 36 0 36 -90 0 -90 0
0 -310 0 -310 90 0 90 0 0 195 c0 213 6 241 55 263 56 26 115 8 140 -43 12
-26 15 -72 15 -224 l0 -191 90 0 90 0 0 223 c0 231 -5 272 -43 328 -45 68
-171 101 -252 65z"/>
<path d="M6888 1889 c-21 -10 -49 -36 -63 -56 l-25 -38 0 53 0 52 -90 0 -90 0
0 -310 0 -310 90 0 90 0 0 146 c0 81 5 164 11 185 17 54 65 97 127 111 l52 13
0 87 0 88 -32 0 c-18 -1 -50 -10 -70 -21z"/>
<path d="M7215 1896 c-27 -8 -62 -19 -77 -25 l-27 -10 21 -63 c11 -35 22 -65
24 -67 1 -1 33 5 71 14 97 25 169 16 206 -25 15 -17 27 -42 27 -56 0 -23 -3
-25 -22 -19 -13 3 -57 9 -99 12 -183 13 -293 -74 -276 -219 12 -98 79 -156
192 -165 71 -6 124 7 173 44 l32 24 0 -30 0 -31 85 0 85 0 0 216 c0 134 -4
231 -11 255 -16 51 -62 105 -112 131 -54 27 -216 35 -292 14z m215 -359 c31
-11 35 -16 33 -45 -4 -100 -185 -143 -223 -53 -33 81 77 137 190 98z"/>
<path d="M4770 1590 l0 -310 85 0 85 0 0 310 0 310 -85 0 -85 0 0 -310z"/>
<path d="M468 741 c-142 -214 -258 -394 -258 -400 0 -17 75 -95 144 -150 83
-66 181 -118 284 -151 l87 -28 3 279 c1 153 1 405 0 558 l-3 280 -257 -388z"/>
<path d="M3240 1010 l0 -40 45 0 45 0 0 40 0 40 -45 0 -45 0 0 -40z"/>
<path d="M4830 1010 l0 -40 45 0 45 0 0 40 0 40 -45 0 -45 0 0 -40z"/>
<path d="M2332 863 c3 -204 13 -236 81 -281 35 -23 51 -27 116 -27 92 0 140
24 174 89 20 37 22 58 25 219 l4 177 -41 0 -40 0 -3 -174 c-3 -169 -4 -175
-27 -200 -54 -57 -145 -51 -188 13 -22 32 -23 44 -23 197 l0 164 -41 0 -41 0
4 -177z"/>
<path d="M5040 970 c0 -43 -3 -50 -20 -50 -16 0 -20 -7 -20 -35 0 -28 4 -35
19 -35 18 0 20 -10 23 -126 3 -124 3 -126 31 -150 52 -44 137 -28 137 27 0 26
-3 29 -24 23 -13 -3 -34 -1 -45 6 -19 10 -21 19 -21 115 l0 105 45 0 c45 0 45
0 45 35 0 35 0 35 -45 35 l-45 0 0 50 0 50 -40 0 -40 0 0 -50z"/>
<path d="M2954 911 c-18 -10 -34 -25 -37 -33 -3 -7 -6 -1 -6 15 -1 25 -4 27
-41 27 l-40 0 0 -180 0 -180 40 0 40 0 0 121 0 121 30 30 c25 24 36 29 58 23
52 -12 57 -25 60 -165 l4 -130 39 0 39 0 0 130 c0 138 -9 179 -48 214 -32 28
-100 31 -138 7z"/>
<path d="M3905 916 c-88 -38 -130 -166 -86 -262 47 -103 186 -136 272 -65 l34
29 -25 20 c-24 20 -25 20 -49 1 -26 -21 -90 -25 -122 -9 -16 9 -49 58 -49 75
0 3 59 5 131 5 l132 0 -6 50 c-15 129 -125 203 -232 156z m123 -78 c11 -13 24
-35 27 -50 l7 -28 -91 0 c-57 0 -91 4 -91 10 0 20 30 69 47 79 31 18 78 13
101 -11z"/>
<path d="M4368 914 c-15 -8 -34 -27 -42 -42 l-15 -27 -1 38 c0 37 -1 37 -40
37 l-40 0 0 -180 0 -180 40 0 40 0 0 90 c0 128 32 190 97 190 21 0 23 5 23 45
0 50 -13 56 -62 29z"/>
<path d="M4553 916 c-42 -19 -68 -71 -59 -119 8 -43 19 -52 103 -86 78 -32 96
-52 70 -78 -22 -23 -78 -20 -122 5 l-34 21 -21 -29 -21 -29 41 -21 c119 -61
240 -17 240 86 0 48 -32 79 -111 109 -79 31 -94 49 -60 76 24 20 52 18 104 -6
26 -13 28 -12 42 15 15 29 14 30 -15 45 -45 23 -119 28 -157 11z"/>
<path d="M3250 740 l0 -180 40 0 40 0 0 180 0 180 -40 0 -40 0 0 -180z"/>
<path d="M3413 888 c7 -18 40 -99 72 -180 l59 -148 36 0 36 0 59 148 c32 81
65 162 72 180 l13 32 -43 0 -42 0 -45 -125 c-24 -69 -46 -125 -49 -125 -4 0
-26 56 -50 125 l-43 125 -44 0 -44 0 13 -32z"/>
<path d="M4840 740 l0 -180 40 0 40 0 0 180 0 180 -40 0 -40 0 0 -180z"/>
<path d="M5269 898 c5 -13 36 -90 70 -172 34 -82 61 -157 61 -166 0 -27 -26
-43 -60 -37 -26 6 -32 2 -45 -22 -14 -29 -14 -29 17 -40 67 -24 120 -6 148 49
16 31 104 256 146 373 l13 37 -42 0 -43 0 -42 -130 c-24 -71 -45 -130 -47
-130 -2 0 -24 59 -50 130 l-48 130 -43 0 c-41 0 -43 -1 -35 -22z"/>
<path d="M2425 270 c-40 -16 -68 -57 -69 -103 -2 -85 66 -133 149 -105 38 12
40 15 43 61 l3 47 -45 0 c-26 0 -46 -4 -46 -10 0 -5 16 -10 35 -10 32 0 35 -2
35 -30 0 -57 -82 -70 -131 -21 -34 35 -37 72 -9 118 27 44 72 54 133 28 10 -4
17 -3 17 3 0 6 -17 16 -37 21 -44 13 -51 13 -78 1z"/>
<path d="M2610 165 c0 -70 4 -115 10 -115 6 0 10 45 10 115 0 70 -4 115 -10
115 -6 0 -10 -45 -10 -115z"/>
<path d="M2900 165 c0 -70 4 -115 10 -115 6 0 10 6 10 14 0 12 4 12 29 0 18
-9 40 -12 56 -8 73 18 73 140 0 158 -25 6 -64 -7 -77 -28 -4 -6 -8 13 -8 42 0
28 -4 52 -10 52 -6 0 -10 -45 -10 -115z m122 18 c22 -20 23 -70 1 -95 -36 -40
-103 -10 -103 45 0 58 60 88 102 50z"/>
<path d="M3290 165 c0 -70 4 -115 10 -115 6 0 10 45 10 115 0 70 -4 115 -10
115 -6 0 -10 -45 -10 -115z"/>
<path d="M3460 270 c0 -5 16 -10 35 -10 l35 0 0 -105 c0 -63 4 -105 10 -105 6
0 10 42 10 105 l0 105 40 0 c22 0 40 5 40 10 0 6 -35 10 -85 10 -50 0 -85 -4
-85 -10z"/>
<path d="M3680 165 c0 -70 4 -115 10 -115 6 0 10 28 10 65 0 53 3 66 19 75 53
28 81 -1 81 -81 0 -33 4 -59 10 -59 6 0 10 27 10 60 0 51 -4 65 -25 85 -28 29
-42 31 -73 9 -22 -15 -22 -15 -22 30 0 25 -4 46 -10 46 -6 0 -10 -45 -10 -115z"/>
<path d="M3870 270 c0 -5 5 -10 10 -10 6 0 10 5 10 10 0 6 -4 10 -10 10 -5 0
-10 -4 -10 -10z"/>
<path d="M4160 165 c0 -63 4 -115 9 -115 13 0 16 43 13 143 -5 128 -22 107
-22 -28z"/>
<path d="M4980 165 l0 -115 80 0 c47 0 80 4 80 10 0 6 -30 10 -70 10 l-70 0 0
40 0 40 60 0 c33 0 60 4 60 10 0 6 -27 10 -60 10 l-60 0 0 45 0 45 70 0 c40 0
70 4 70 10 0 6 -33 10 -80 10 l-80 0 0 -115z"/>
<path d="M6320 236 l0 -45 -27 15 c-38 19 -47 18 -79 -10 -21 -18 -28 -32 -28
-61 0 -70 82 -109 122 -58 11 15 12 15 12 -5 0 -12 5 -22 10 -22 6 0 10 45 10
115 0 70 -4 115 -10 115 -5 0 -10 -20 -10 -44z m-18 -53 c10 -9 18 -30 18 -46
0 -60 -59 -88 -100 -47 -56 56 23 146 82 93z"/>
<path d="M6500 165 l0 -115 75 0 c43 0 75 4 75 10 0 6 -28 10 -65 10 l-65 0 0
105 c0 63 -4 105 -10 105 -6 0 -10 -45 -10 -115z"/>
<path d="M7200 236 l0 -45 -27 15 c-38 19 -47 18 -79 -10 -21 -18 -28 -32 -28
-61 0 -70 82 -109 122 -58 11 15 12 15 12 -5 0 -12 5 -22 10 -22 6 0 10 45 10
115 0 70 -4 115 -10 115 -5 0 -10 -20 -10 -44z m-18 -53 c10 -9 18 -30 18 -46
0 -60 -59 -88 -100 -47 -56 56 23 146 82 93z"/>
<path d="M2740 213 c-77 -29 -80 -124 -6 -153 56 -21 110 16 110 76 0 53 -57
95 -104 77z m70 -35 c25 -28 26 -62 0 -88 -40 -40 -110 -14 -110 42 0 63 68
91 110 46z"/>
<path d="M3138 213 c-32 -8 -19 -19 17 -15 40 5 65 -11 65 -40 0 -16 -5 -18
-32 -13 -71 12 -114 -52 -57 -84 22 -12 29 -12 57 2 27 13 32 13 32 1 0 -8 5
-14 10 -14 6 0 10 27 10 60 0 51 -4 65 -25 85 -23 24 -40 28 -77 18z m60 -79
c25 -7 29 -35 8 -53 -8 -7 -30 -11 -48 -9 -38 4 -51 34 -22 55 20 14 29 15 62
7z"/>
<path d="M3870 135 c0 -50 4 -85 10 -85 6 0 10 35 10 85 0 50 -4 85 -10 85 -6
0 -10 -35 -10 -85z"/>
<path d="M3960 135 c0 -50 4 -85 10 -85 6 0 10 28 10 65 0 53 3 66 19 75 53
28 81 -1 81 -81 0 -33 4 -59 10 -59 6 0 10 27 10 60 0 51 -4 65 -25 85 -28 29
-42 31 -73 9 -20 -14 -22 -14 -22 0 0 9 -4 16 -10 16 -6 0 -10 -35 -10 -85z"/>
<path d="M4232 177 c-43 -44 -52 -60 -29 -51 8 3 26 -11 42 -33 16 -21 30 -40
32 -42 2 -2 6 -2 9 1 3 3 -9 27 -27 52 l-33 46 34 35 c19 19 29 35 24 35 -5 0
-29 -19 -52 -43z"/>
<path d="M4365 208 c-68 -40 -57 -135 18 -153 26 -7 77 10 77 25 0 7 -6 8 -19
0 -30 -15 -66 -12 -84 8 -31 34 -21 42 48 42 57 0 65 2 65 19 0 46 -65 82
-105 59z m69 -24 c31 -31 20 -44 -39 -44 -59 0 -68 10 -38 42 20 22 56 23 77
2z"/>
<path d="M4520 135 c0 -50 4 -85 10 -85 6 0 10 24 10 54 0 50 3 57 32 80 18
14 30 27 27 31 -3 3 -18 -4 -32 -16 l-27 -20 0 20 c0 12 -4 21 -10 21 -6 0
-10 -35 -10 -85z"/>
<path d="M4660 200 c-28 -28 -23 -41 31 -67 52 -25 60 -56 17 -61 -15 -2 -37
2 -49 8 -17 10 -20 9 -17 -1 11 -33 98 -29 111 5 11 27 -2 43 -49 61 -32 12
-44 22 -42 34 3 12 14 16 46 15 23 0 42 3 42 8 0 4 -6 8 -12 8 -7 0 -23 3 -35
6 -14 4 -28 -1 -43 -16z"/>
<path d="M5200 135 c0 -50 4 -85 10 -85 6 0 10 28 10 65 0 53 3 66 19 75 53
28 81 -1 81 -81 0 -33 4 -59 10 -59 6 0 10 27 10 60 0 51 -4 65 -25 85 -28 29
-42 31 -73 9 -20 -14 -22 -14 -22 0 0 9 -4 16 -10 16 -6 0 -10 -35 -10 -85z"/>
<path d="M5409 191 c-33 -33 -36 -56 -13 -89 24 -35 59 -45 95 -27 28 15 29
15 29 -9 0 -37 -23 -50 -83 -43 -40 5 -48 4 -33 -5 30 -17 94 -13 116 7 17 15
20 31 20 107 0 52 -4 88 -10 88 -5 0 -10 -6 -10 -14 0 -13 -4 -13 -27 0 -39
20 -51 18 -84 -15z m93 -8 c37 -33 11 -103 -39 -103 -28 0 -63 33 -63 60 0 26
34 60 62 60 12 0 30 -7 40 -17z"/>
<path d="M5638 213 c-32 -8 -19 -19 17 -15 40 5 65 -11 65 -40 0 -16 -5 -18
-32 -13 -71 12 -114 -52 -57 -84 22 -12 29 -12 57 2 27 13 32 13 32 1 0 -8 5
-14 10 -14 6 0 10 27 10 60 0 51 -4 65 -25 85 -23 24 -40 28 -77 18z m60 -79
c25 -7 29 -35 8 -53 -8 -7 -30 -11 -48 -9 -38 4 -51 34 -22 55 20 14 29 15 62
7z"/>
<path d="M5809 191 c-33 -33 -36 -56 -13 -89 24 -35 59 -45 95 -27 28 15 29
15 29 -9 0 -37 -23 -50 -83 -43 -40 5 -48 4 -33 -5 30 -17 94 -13 116 7 17 15
20 31 20 107 0 52 -4 88 -10 88 -5 0 -10 -6 -10 -14 0 -13 -4 -13 -27 0 -39
20 -51 18 -84 -15z m93 -8 c37 -33 11 -103 -39 -103 -28 0 -63 33 -63 60 0 26
34 60 62 60 12 0 30 -7 40 -17z"/>
<path d="M6045 208 c-68 -40 -57 -135 18 -153 26 -7 77 10 77 25 0 7 -6 8 -19
0 -30 -15 -66 -12 -84 8 -31 34 -21 42 48 42 57 0 65 2 65 19 0 46 -65 82
-105 59z m69 -24 c31 -31 20 -44 -39 -44 -59 0 -68 10 -38 42 20 22 56 23 77
2z"/>
<path d="M6735 208 c-68 -40 -57 -135 18 -153 26 -7 77 10 77 25 0 7 -6 8 -19
0 -30 -15 -66 -12 -84 8 -31 34 -21 42 48 42 57 0 65 2 65 19 0 46 -65 82
-105 59z m69 -24 c31 -31 20 -44 -39 -44 -59 0 -68 10 -38 42 20 22 56 23 77
2z"/>
<path d="M6918 213 c-32 -8 -19 -19 17 -15 40 5 65 -11 65 -40 0 -16 -5 -18
-32 -13 -71 12 -114 -52 -57 -84 22 -12 29 -12 57 2 27 13 32 13 32 1 0 -8 5
-14 10 -14 6 0 10 27 10 60 0 51 -4 65 -25 85 -23 24 -40 28 -77 18z m60 -79
c25 -7 29 -35 8 -53 -8 -7 -30 -11 -48 -9 -38 4 -51 34 -22 55 20 14 29 15 62
7z"/>
<path d="M7325 208 c-68 -40 -57 -135 18 -153 26 -7 77 10 77 25 0 7 -6 8 -19
0 -30 -15 -66 -12 -84 8 -31 34 -21 42 48 42 57 0 65 2 65 19 0 46 -65 82
-105 59z m69 -24 c31 -31 20 -44 -39 -44 -59 0 -68 10 -38 42 20 22 56 23 77
2z"/>
<path d="M7470 135 c0 -50 4 -85 10 -85 6 0 10 24 10 54 0 50 3 57 32 80 18
14 30 27 27 31 -3 3 -18 -4 -32 -16 l-27 -20 0 20 c0 12 -4 21 -10 21 -6 0
-10 -35 -10 -85z"/>
<path d="M7610 200 c-28 -28 -23 -41 31 -67 52 -25 60 -56 17 -61 -15 -2 -37
2 -49 8 -17 10 -20 9 -17 -1 11 -33 98 -29 111 5 11 27 -2 43 -49 61 -32 12
-44 22 -42 34 3 12 14 16 46 15 23 0 42 3 42 8 0 4 -6 8 -12 8 -7 0 -23 3 -35
6 -14 4 -28 -1 -43 -16z"/>
<path d="M4800 65 c0 -8 7 -15 15 -15 8 0 15 7 15 15 0 8 -7 15 -15 15 -8 0
-15 -7 -15 -15z"/>
<path d="M7750 65 c0 -8 7 -15 15 -15 8 0 15 7 15 15 0 8 -7 15 -15 15 -8 0
-15 -7 -15 -15z"/>
</g>
</svg>
