<?xml version="1.0" standalone="no"?>
<!DOCTYPE svg PUBLIC "-//W3C//DTD SVG 20010904//EN"
 "http://www.w3.org/TR/2001/REC-SVG-20010904/DTD/svg10.dtd">
<svg version="1.0" xmlns="http://www.w3.org/2000/svg"
 width="920.000000pt" height="100.000000pt" viewBox="0 0 920.000000 920.000000"
 preserveAspectRatio="xMidYMid meet">

<g transform="translate(0.000000,920.000000) scale(0.100000,-0.100000)"
fill="#000000" stroke="none">
<path d="M4160 8980 c0 -5 -12 -12 -27 -16 -72 -15 -203 -106 -203 -140 0 -7
-3 -14 -7 -16 -5 -1 -19 -25 -33 -53 -23 -45 -25 -60 -25 -175 1 -112 11 -186
35 -245 4 -11 18 -47 31 -80 12 -33 31 -75 41 -92 51 -92 64 -114 114 -183
158 -223 358 -397 586 -513 172 -87 236 -106 374 -114 202 -11 334 55 404 203
111 231 -2 604 -279 923 -85 99 -85 98 -161 166 -189 167 -402 286 -572 319
-32 6 -58 14 -58 18 0 5 -49 8 -110 8 -65 0 -110 -4 -110 -10z m215 -220 c-5
-7 -92 -7 -99 0 -3 3 19 5 49 5 29 0 52 -2 50 -5z m22 -12 c-3 -8 -6 -5 -6 6
-1 11 2 17 5 13 3 -3 4 -12 1 -19z m-184 -6 c-2 -11 3 -24 14 -32 15 -12 16
-12 6 0 -16 18 -17 34 -1 24 7 -5 9 -2 5 8 -4 11 -1 15 11 13 9 -2 21 -4 25
-4 5 -1 6 -5 2 -10 -3 -5 -1 -13 5 -16 6 -4 9 -1 8 6 -4 20 82 19 106 0 11 -9
16 -10 12 -3 -4 6 -2 12 4 12 6 0 9 4 6 9 -4 5 1 8 9 7 21 -3 28 -13 14 -22
-8 -5 -10 -3 -4 7 5 8 4 10 0 6 -5 -4 -10 -14 -11 -23 -2 -11 1 -12 11 -4 8 7
15 7 19 1 5 -7 41 -8 41 -1 0 1 8 3 18 5 12 2 21 -5 27 -21 11 -27 16 -29 26
-12 4 6 3 8 -3 5 -5 -3 -10 0 -10 8 0 13 3 13 17 0 9 -8 20 -12 24 -8 4 4 4
-1 0 -11 -5 -14 -9 -15 -15 -4 -5 8 -9 9 -9 2 0 -6 8 -18 17 -25 9 -8 14 -9
10 -3 -4 7 0 17 7 23 12 10 13 8 9 -11 -5 -23 -5 -23 11 -3 12 16 15 16 10 3
-4 -13 -1 -16 13 -13 12 2 20 -2 20 -11 0 -10 -4 -11 -14 -3 -22 19 -15 3 9
-17 12 -10 18 -14 15 -7 -4 6 -3 14 3 18 6 3 10 -4 11 -17 0 -22 1 -22 9 -3 5
11 9 14 9 7 1 -7 6 -10 13 -6 7 5 8 3 2 -7 -14 -22 -14 -41 -1 -31 27 20 43
20 44 -1 1 -11 14 -32 29 -46 15 -14 24 -20 20 -13 -4 6 -2 12 4 12 6 0 8 5 5
10 -10 16 1 11 16 -7 11 -14 11 -15 1 -9 -10 6 -13 3 -10 -9 1 -10 10 -20 18
-22 12 -4 12 -3 2 5 -11 7 -11 10 3 15 9 4 13 3 10 -2 -3 -5 -1 -12 5 -16 6
-4 7 -12 3 -18 -4 -7 2 -5 12 3 17 14 18 14 5 -10 -12 -23 -12 -24 4 -10 16
13 20 12 33 -5 7 -11 12 -28 10 -37 -3 -11 0 -15 9 -11 8 3 11 10 7 17 -3 6
-2 7 2 3 15 -13 18 -60 4 -51 -8 5 -9 3 -4 -6 6 -10 11 -9 22 5 12 17 13 18
13 1 0 -10 4 -14 12 -10 7 4 8 3 4 -5 -4 -6 -11 -9 -16 -6 -5 3 -12 1 -15 -5
-4 -6 -1 -9 6 -8 7 2 13 -3 14 -10 0 -7 6 -16 13 -21 14 -8 34 -72 33 -106 0
-15 2 -17 9 -5 5 7 5 21 1 29 -5 9 -11 33 -15 53 -4 20 -13 39 -22 41 -9 3 -8
4 3 3 12 -1 21 -15 28 -44 6 -24 14 -39 18 -35 5 4 5 -1 1 -11 -5 -14 -4 -17
5 -12 6 4 11 4 10 -1 -1 -4 0 -11 1 -15 1 -5 4 -17 5 -28 1 -11 3 -21 5 -22 7
-9 7 -37 0 -33 -5 3 -8 -4 -7 -15 1 -11 5 -20 10 -20 5 0 4 -6 -2 -14 -10 -11
-9 -16 5 -24 11 -6 13 -11 5 -16 -6 -4 -11 -2 -11 5 0 7 -6 4 -14 -6 -8 -11
-12 -24 -9 -30 4 -5 2 -6 -2 -2 -14 13 -15 41 -1 57 13 15 16 94 3 106 -4 4
-2 13 4 20 7 8 7 14 -1 19 -14 9 -17 -50 -6 -110 6 -28 5 -29 -9 -11 -8 10
-12 22 -10 27 3 4 1 10 -4 14 -9 5 -9 -4 1 -45 4 -17 -21 -21 -42 -6 -8 6 -12
6 -8 2 4 -5 3 -15 -3 -22 -7 -9 -6 -15 3 -20 19 -12 38 -14 38 -3 0 6 -6 9
-14 7 -8 -2 -15 1 -16 6 -1 13 28 17 36 5 3 -6 3 -22 -1 -37 -5 -20 -8 -23
-16 -11 -7 11 -9 10 -10 -6 -1 -11 -1 -25 0 -31 1 -6 -11 -21 -26 -35 -19 -16
-23 -17 -12 -4 9 11 14 27 12 35 -4 12 -2 12 5 2 6 -9 9 -5 10 16 0 19 -7 37
-21 49 l-22 18 19 -22 c11 -14 16 -29 12 -40 -6 -13 -9 -14 -15 -4 -6 10 -10
9 -15 -4 -9 -25 -6 -43 4 -20 6 14 9 16 9 4 1 -17 -68 -103 -77 -95 -3 3 -12
0 -20 -7 -13 -9 -14 -9 -8 1 4 7 2 12 -5 12 -6 0 -9 -8 -6 -19 3 -12 -3 -27
-15 -37 -18 -17 -19 -17 -12 2 7 17 6 18 -11 4 -10 -8 -16 -10 -12 -3 4 6 2
15 -4 18 -5 4 -8 13 -6 19 3 7 1 19 -5 27 -8 11 -9 11 -5 -2 3 -9 1 -22 -4
-30 -7 -12 -9 -12 -10 1 -1 8 -1 19 0 23 1 5 -3 6 -9 2 -7 -4 -7 -12 0 -25 16
-30 11 -37 -9 -11 -14 18 -20 21 -26 11 -5 -9 -4 -11 3 -6 7 4 12 3 12 -3 0
-15 -18 -23 -25 -11 -9 15 -23 12 -34 -8 -8 -15 -6 -18 14 -18 13 0 22 3 20 7
-3 3 9 5 25 4 19 -2 34 3 41 14 10 15 10 15 6 0 -3 -9 -1 -21 5 -27 6 -6 6
-12 -3 -17 -7 -5 -10 -4 -6 2 4 6 -2 13 -13 16 -18 5 -25 -4 -21 -26 1 -5 -3
-6 -8 -2 -6 3 -7 13 -4 23 6 15 5 15 -10 3 -13 -10 -15 -17 -6 -27 7 -9 8 -14
1 -14 -5 0 -12 7 -16 15 -3 8 -9 15 -13 14 -4 -1 -11 0 -15 1 -5 1 -18 3 -30
4 -12 0 -23 8 -25 16 -4 13 -3 13 6 0 9 -12 10 -11 8 7 -2 12 -6 25 -10 28 -4
3 -5 2 -3 -1 3 -3 -1 -12 -7 -19 -10 -10 -15 -9 -25 9 -13 20 -13 20 -7 -4 4
-14 3 -20 -2 -14 -4 6 -16 10 -25 9 -11 -2 -15 2 -11 12 5 12 7 12 15 1 8 -10
9 -10 5 2 -2 8 -9 15 -15 15 -5 0 -14 3 -18 8 -13 12 -24 8 -25 -10 -1 -12 -4
-9 -8 7 -5 19 -14 25 -34 25 -22 -1 -24 2 -14 15 6 8 7 12 2 7 -4 -4 -19 3
-32 15 -12 12 -26 18 -30 15 -8 -9 -33 12 -33 27 0 6 5 4 10 -4 5 -8 10 -10
10 -4 0 19 -29 37 -47 30 -10 -4 -14 -4 -10 0 4 4 1 14 -6 23 -10 14 -10 14 3
6 10 -6 9 -4 -2 6 -9 9 -14 20 -10 25 4 5 0 3 -8 -3 -13 -10 -16 -8 -18 8 -4
42 -6 48 -14 43 -4 -3 -4 -14 2 -24 6 -10 6 -21 2 -24 -5 -3 -9 0 -10 7 -5 42
-11 70 -18 75 -4 4 -4 -2 -1 -13 l7 -20 -16 20 c-8 11 -19 19 -24 18 -9 -3 -8
16 3 33 4 7 0 17 -8 24 -8 7 -12 17 -8 23 3 6 1 7 -6 3 -9 -6 -9 -11 -1 -21 8
-10 8 -15 -1 -21 -7 -4 -9 -3 -6 3 4 6 -2 18 -13 28 -10 9 -16 23 -14 30 3 7
-1 24 -9 37 -8 13 -13 35 -12 50 1 15 -2 25 -7 22 -5 -3 -7 5 -4 19 2 14 -1
24 -8 24 -7 0 -13 -6 -13 -13 0 -7 5 -10 10 -7 6 3 7 1 3 -6 -4 -6 -3 -18 4
-26 8 -9 8 -15 0 -20 -6 -4 -9 -3 -8 2 1 4 -3 18 -10 31 -7 12 -10 22 -6 22 3
0 0 8 -7 17 -12 14 -12 16 0 9 9 -6 12 -5 9 5 -3 8 2 22 11 32 13 15 13 18 1
15 -8 -2 -14 3 -12 10 1 8 -2 11 -8 7 -8 -5 -8 -11 -1 -19 8 -9 7 -13 -3 -13
-17 0 -12 37 6 49 10 6 10 8 -2 9 -8 1 -19 1 -25 -1 -5 -1 -4 4 2 11 8 8 9 17
3 24 -7 8 -5 12 4 12 8 0 13 -8 11 -17 -2 -9 3 -17 11 -17 10 0 11 4 4 11 -6
6 -4 16 8 30 11 14 12 17 2 9 -9 -7 -21 -8 -29 -4 -9 6 -7 10 8 14 12 3 21 13
20 24 -1 16 -2 16 -6 1 -2 -10 -9 -18 -15 -18 -6 0 -3 11 6 25 21 32 20 41 -1
24 -17 -13 -17 -13 0 7 9 11 14 24 10 29 -5 4 -3 5 4 1 7 -4 18 4 27 21 8 15
15 23 16 17 0 -6 -9 -23 -20 -37 -13 -16 -17 -28 -10 -32 6 -4 9 -3 8 2 -4 11
27 54 34 48 3 -3 3 5 1 18 -3 14 2 29 13 38 10 8 15 9 12 4 -4 -6 -3 -17 3
-25 6 -11 9 -9 9 11 0 14 3 29 7 32 10 11 11 8 6 -11z m254 -14 c-3 -8 -6 -5
-6 6 -1 11 2 17 5 13 3 -3 4 -12 1 -19z m332 -174 c4 3 8 -1 8 -9 0 -11 -4
-12 -14 -4 -7 6 -12 19 -12 28 1 13 2 13 6 -2 2 -9 8 -15 12 -13z m-380 -638
c9 -11 9 -16 -1 -22 -7 -4 -10 -4 -6 1 4 4 3 14 -3 22 -6 7 -9 13 -6 13 2 0
10 -6 16 -14z m602 -3 c12 -16 12 -17 -2 -6 -9 7 -20 9 -24 5 -5 -4 -5 -1 -1
6 9 16 11 15 27 -5z m44 -1 c-3 -3 -11 0 -18 7 -9 10 -8 11 6 5 10 -3 15 -9
12 -12z m-580 -42 c3 -6 -1 -7 -9 -4 -18 7 -21 14 -7 14 6 0 13 -4 16 -10z
m502 4 c-3 -3 -12 -4 -19 -1 -8 3 -5 6 6 6 11 1 17 -2 13 -5z m-37 -8 c0 -2
-9 -6 -20 -9 -11 -3 -18 -1 -14 4 5 9 34 13 34 5z m-415 -15 c3 -5 2 -12 -3
-15 -5 -3 -9 1 -9 9 0 17 3 19 12 6z m175 -25 c0 -3 -4 -8 -10 -11 -5 -3 -10
-1 -10 4 0 6 5 11 10 11 6 0 10 -2 10 -4z m177 -12 c-3 -3 -12 -4 -19 -1 -8 3
-5 6 6 6 11 1 17 -2 13 -5z m-62 -34 c-3 -5 -12 -10 -18 -10 -7 0 -6 4 3 10
19 12 23 12 15 0z"/>
<path d="M4251 8734 c0 -11 3 -14 6 -6 3 7 2 16 -1 19 -3 4 -6 -2 -5 -13z"/>
<path d="M4171 8704 c0 -11 3 -14 6 -6 3 7 2 16 -1 19 -3 4 -6 -2 -5 -13z"/>
<path d="M4517 8701 c-4 -17 -3 -21 5 -13 5 5 8 16 6 23 -3 8 -7 3 -11 -10z"/>
<path d="M4903 8445 c0 -8 5 -11 10 -8 7 4 8 -1 3 -13 -5 -14 -4 -16 4 -8 6 6
8 18 4 27 -8 21 -21 22 -21 2z"/>
<path d="M4106 8408 c3 -5 10 -6 15 -3 13 9 11 12 -6 12 -8 0 -12 -4 -9 -9z"/>
<path d="M4146 8287 c3 -10 9 -15 12 -12 3 3 0 11 -7 18 -10 9 -11 8 -5 -6z"/>
<path d="M4167 8235 c-4 -8 -2 -17 3 -20 6 -4 10 3 10 14 0 25 -6 27 -13 6z"/>
<path d="M4216 8148 c3 -5 10 -6 15 -3 13 9 11 12 -6 12 -8 0 -12 -4 -9 -9z"/>
<path d="M5065 8049 c-4 -6 -5 -12 -2 -15 2 -3 7 2 10 11 7 17 1 20 -8 4z"/>
<path d="M4940 8026 c0 -2 8 -10 18 -17 15 -13 16 -12 3 4 -13 16 -21 21 -21
13z"/>
<path d="M4934 7998 c3 -10 1 -20 -4 -23 -6 -4 -7 -13 -1 -24 6 -10 6 -23 0
-32 -7 -11 -9 -9 -9 8 0 32 -15 36 -16 5 0 -15 -4 -36 -8 -47 -5 -14 2 -9 23
13 25 26 29 37 22 51 -6 11 -6 22 -1 27 6 6 5 15 -1 24 -9 13 -10 12 -5 -2z"/>
<path d="M4884 7939 c2 -14 0 -32 -5 -40 -9 -15 -12 -8 -12 33 0 10 -3 15 -8
13 -4 -3 -6 -18 -3 -33 4 -26 4 -26 -11 -7 -16 19 -16 19 -11 -7 2 -14 -1 -34
-8 -43 -11 -15 -12 -12 -10 21 2 22 0 34 -4 27 -15 -25 -6 -66 15 -69 16 -3
20 1 16 14 -2 10 3 24 11 31 13 11 16 11 16 0 1 -9 4 -8 11 4 15 26 18 52 8
68 -7 10 -8 7 -5 -12z"/>
<path d="M4703 7865 c0 -8 4 -12 9 -9 5 3 6 10 3 15 -9 13 -12 11 -12 -6z"/>
<path d="M4666 7848 c3 -5 10 -6 15 -3 13 9 11 12 -6 12 -8 0 -12 -4 -9 -9z"/>
<path d="M4653 7819 c-2 -23 3 -25 10 -4 4 8 3 16 -1 19 -4 3 -9 -4 -9 -15z"/>
<path d="M6570 8085 c42 -43 135 -91 182 -94 39 -2 61 15 31 25 -24 8 -64 24
-85 35 -10 5 -23 9 -30 9 -7 0 -40 14 -72 30 l-59 29 33 -34z"/>
<path d="M2703 8092 c-23 -9 -45 -20 -49 -24 -4 -5 -13 -8 -21 -8 -7 0 -32 -9
-56 -19 -23 -10 -50 -22 -60 -25 -33 -11 -6 -26 38 -22 52 5 132 46 171 87 15
16 26 29 23 28 -2 0 -23 -8 -46 -17z"/>
<path d="M2236 8064 c-12 -31 -6 -61 17 -82 13 -12 28 -22 35 -22 24 0 54 -44
48 -72 -3 -16 -1 -28 4 -28 6 0 10 4 10 9 0 26 101 101 137 101 7 0 13 5 13
10 0 12 -27 13 -34 1 -8 -12 -84 -51 -100 -51 -13 0 -86 73 -86 86 0 4 11 -1
25 -10 34 -22 32 -17 -14 32 -44 47 -46 48 -55 26z"/>
<path d="M7000 8029 c-25 -28 -47 -53 -50 -57 -3 -3 10 6 29 21 50 41 51 23 2
-27 l-43 -44 -32 17 c-44 24 -68 33 -61 21 3 -6 12 -10 19 -10 15 0 86 -66 86
-80 0 -6 4 -10 8 -10 5 0 7 12 4 28 -2 20 4 34 22 51 14 14 26 21 26 18 0 -4
14 5 30 20 29 25 37 54 24 87 -9 23 -14 20 -64 -35z"/>
<path d="M6800 7980 c0 -5 7 -10 15 -10 8 0 15 5 15 10 0 6 -7 10 -15 10 -8 0
-15 -4 -15 -10z"/>
<path d="M2595 7892 c-27 -16 -77 -39 -110 -52 -33 -13 -64 -27 -70 -32 -5 -4
-17 -8 -27 -8 -10 0 -18 -4 -18 -9 0 -15 40 -24 53 -12 7 5 19 6 26 2 20 -13
86 25 150 86 31 29 54 52 51 52 -3 0 -27 -12 -55 -27z"/>
<path d="M6650 7915 c0 -8 45 -52 80 -77 62 -46 112 -70 123 -59 6 6 16 6 28
-2 15 -9 22 -8 36 6 16 16 16 17 -3 17 -11 0 -24 4 -29 8 -6 5 -37 19 -70 32
-33 13 -84 36 -112 51 -29 16 -53 26 -53 24z"/>
<path d="M2060 7856 c-5 -5 -10 -26 -10 -46 0 -28 8 -44 36 -71 25 -24 33 -28
28 -14 -5 15 3 10 30 -15 33 -31 37 -39 31 -70 l-6 -35 41 47 c37 42 126 98
157 98 18 0 16 17 -3 24 -22 8 -24 8 -25 -6 0 -7 -32 -28 -70 -47 l-71 -33
-54 56 c-56 59 -76 99 -26 55 79 -72 85 -59 7 15 -37 36 -57 50 -65 42z"/>
<path d="M7180 7823 c-67 -68 -81 -93 -27 -49 62 51 60 28 -2 -35 l-50 -50
-70 33 c-39 18 -71 39 -71 46 0 14 -9 15 -28 3 -10 -6 6 -18 53 -42 61 -31
125 -86 125 -109 0 -6 4 -10 9 -10 6 0 7 15 4 33 -4 28 0 38 28 65 33 32 57
43 43 20 -4 -7 3 -4 15 7 13 11 29 32 37 47 13 25 13 32 -1 58 -9 17 -17 30
-18 29 -1 -1 -22 -21 -47 -46z"/>
<path d="M2550 7690 c-8 -6 -46 -21 -85 -36 -144 -53 -233 -103 -220 -123 3
-6 -2 -14 -12 -18 -10 -4 -44 -22 -77 -41 l-58 -34 -54 57 c-57 60 -65 83 -17
45 48 -38 39 -1 -14 54 -28 28 -53 59 -57 69 -8 25 -23 13 -36 -31 -14 -47 3
-91 60 -157 39 -45 56 -43 24 3 -9 13 -14 26 -11 29 8 7 67 -77 67 -96 0 -9
-7 -29 -15 -45 -18 -35 -18 -36 -1 -36 7 0 19 13 26 29 15 38 42 61 114 100
42 23 67 31 85 26 17 -4 21 -3 12 3 -11 8 -11 11 0 18 7 4 14 3 17 -4 10 -31
105 6 175 68 65 58 125 150 77 120z m-220 -130 c0 -5 -5 -10 -11 -10 -5 0 -7
5 -4 10 3 6 8 10 11 10 2 0 4 -4 4 -10z m-40 -20 c0 -5 -4 -10 -10 -10 -5 0
-10 5 -10 10 0 6 5 10 10 10 6 0 10 -4 10 -10z"/>
<path d="M6759 7646 c67 -96 227 -193 243 -146 2 6 44 -9 96 -35 82 -40 97
-51 124 -95 32 -52 59 -60 33 -10 -8 16 -15 40 -15 52 0 27 59 103 60 78 0 -9
-5 -21 -12 -28 -6 -6 -9 -15 -5 -19 8 -7 18 5 67 74 32 44 40 105 20 144 -13
23 -30 25 -30 4 0 -8 -25 -43 -56 -76 -31 -33 -53 -63 -50 -66 3 -3 25 7 48
22 l43 28 -49 -54 c-27 -30 -55 -60 -62 -68 -10 -11 -20 -8 -60 15 -27 15 -57
34 -68 43 -10 9 -21 16 -25 16 -3 0 -5 3 -4 7 5 15 -75 64 -148 91 -41 16 -93
37 -117 48 -62 28 -66 24 -33 -25z m221 -86 c0 -5 -4 -10 -10 -10 -5 0 -10 5
-10 10 0 6 5 10 10 10 6 0 10 -4 10 -10z m55 -20 c3 -5 -1 -10 -9 -10 -8 0
-18 5 -21 10 -3 6 1 10 9 10 8 0 18 -4 21 -10z"/>
<path d="M6911 7381 c41 -73 78 -109 151 -145 78 -39 143 -52 73 -15 -22 12
-49 28 -60 35 -17 12 -17 14 -2 14 9 0 17 -4 17 -10 0 -5 9 -10 20 -10 11 0
20 -4 20 -10 0 -5 6 -10 14 -10 21 0 122 -47 180 -84 33 -21 59 -47 70 -70 9
-20 20 -36 25 -36 17 0 18 13 5 38 -8 15 -14 37 -14 48 0 20 80 140 104 156
23 15 17 -4 -18 -57 -45 -68 -35 -70 22 -4 37 44 42 55 42 100 0 28 -5 59 -10
70 -10 17 -17 13 -79 -49 -58 -59 -93 -112 -73 -112 3 0 25 19 49 42 62 61 62
41 1 -29 -29 -33 -58 -68 -63 -78 -10 -17 -22 -12 -149 51 -133 66 -165 97
-57 54 64 -25 69 -25 47 -1 -22 25 -79 52 -180 85 -42 15 -96 36 -118 47 l-40
20 23 -40z"/>
<path d="M1741 7361 c-10 -41 -10 -54 3 -85 12 -30 96 -128 96 -113 0 3 -16
28 -35 57 -19 29 -35 59 -35 68 0 19 2 17 69 -71 54 -72 62 -106 36 -141 -18
-24 -19 -36 -2 -36 7 0 21 15 30 34 19 41 78 83 173 126 38 16 77 35 86 40 23
13 45 13 32 1 -5 -6 -22 -17 -39 -25 -44 -23 -5 -20 52 5 26 11 65 32 85 46
38 26 115 130 104 140 -3 4 -25 -3 -48 -15 -24 -11 -72 -30 -108 -42 -82 -27
-145 -58 -166 -81 -21 -24 -17 -24 46 1 59 23 99 27 60 6 -84 -45 -250 -126
-259 -126 -5 0 -13 10 -17 22 -3 12 -27 43 -52 70 -55 58 -48 78 8 23 35 -34
40 -36 40 -18 0 12 -29 50 -70 92 -39 39 -71 71 -73 71 -2 0 -9 -22 -16 -49z
m499 -95 c0 -2 -7 -6 -15 -10 -8 -3 -15 -1 -15 4 0 6 7 10 15 10 8 0 15 -2 15
-4z"/>
<path d="M1585 7177 c-23 -55 -19 -135 8 -178 31 -50 101 -138 110 -139 10 0
9 19 -3 33 -17 20 -60 88 -60 94 0 6 7 -2 53 -56 9 -12 17 -26 17 -31 0 -6 4
-10 9 -10 17 0 21 -61 6 -97 -16 -39 -20 -73 -7 -73 4 0 20 25 35 55 28 57 82
105 162 144 115 55 177 82 182 77 3 -3 -3 -9 -13 -13 -10 -3 -21 -9 -24 -12
-10 -12 -92 -51 -106 -51 -8 0 -14 -4 -14 -10 0 -15 18 -12 86 11 93 33 163
85 212 158 23 35 41 66 38 68 -3 3 -22 -4 -43 -16 -21 -11 -84 -36 -140 -55
-118 -41 -171 -66 -197 -95 -24 -26 -19 -26 36 0 23 12 52 25 63 29 11 4 33
13 48 19 33 13 37 13 37 4 0 -9 -15 -16 -132 -68 -42 -19 -95 -46 -117 -60
-49 -30 -58 -31 -66 -5 -3 11 -40 56 -81 101 -41 44 -74 87 -74 95 0 8 2 14 3
14 2 0 32 -27 67 -60 34 -34 65 -59 67 -56 12 11 -14 55 -63 106 -29 31 -60
69 -68 85 l-15 29 -16 -37z"/>
<path d="M7680 7184 c0 -8 -24 -41 -54 -73 -47 -48 -84 -107 -74 -117 2 -1 32
24 68 57 35 32 65 59 66 59 1 0 0 -9 -3 -21 -3 -11 -33 -51 -67 -88 -33 -37
-70 -80 -81 -95 l-20 -29 -51 32 c-28 17 -54 31 -57 31 -16 0 -199 91 -194 97
4 3 21 0 39 -7 18 -6 42 -15 53 -20 11 -4 40 -17 63 -29 55 -26 60 -26 36 0
-27 30 -76 53 -201 96 -59 20 -123 45 -140 55 -42 23 -43 8 -5 -53 43 -67 106
-115 195 -149 110 -43 130 -33 30 15 -46 22 -83 43 -83 47 0 10 35 -4 144 -57
131 -63 172 -95 202 -161 19 -42 29 -53 37 -45 8 8 8 20 -2 44 -26 64 -25 83
10 134 36 52 54 73 64 73 3 0 -8 -20 -25 -45 -45 -66 -32 -76 20 -14 80 95 99
165 66 244 -15 36 -36 47 -36 19z"/>
<path d="M4792 7083 c-4 -1 -322 -4 -707 -7 -749 -7 -883 -10 -986 -27 -36 -5
-70 -9 -75 -8 -18 5 -178 -25 -229 -43 -121 -42 -215 -111 -236 -175 -40 -121
28 -319 150 -441 26 -26 88 -71 138 -100 173 -101 244 -198 279 -379 10 -54
14 -199 15 -590 3 -628 12 -976 29 -1023 25 -75 67 -144 109 -181 43 -39 60
-44 136 -40 148 8 231 141 249 398 3 39 8 96 11 125 2 29 7 181 10 338 15 714
14 697 48 770 88 189 360 202 448 21 40 -82 48 -183 50 -626 1 -220 5 -506 9
-635 7 -212 11 -242 33 -307 31 -89 73 -144 132 -172 124 -58 269 11 324 156
47 125 43 46 55 1103 3 302 6 362 21 405 23 67 48 106 95 148 108 99 292 59
362 -77 47 -91 48 -110 48 -676 0 -521 9 -758 31 -850 33 -136 90 -229 156
-256 18 -8 64 -14 103 -14 67 0 72 2 110 37 65 58 98 147 126 338 2 17 6 314
7 661 l4 631 23 67 c58 164 214 253 490 280 257 25 431 118 504 271 14 29 20
70 24 146 4 99 2 113 -28 200 -73 218 -160 344 -275 398 -27 13 -58 27 -67 32
-10 5 -29 9 -42 9 -14 0 -27 4 -30 9 -3 4 -36 12 -73 16 -38 4 -104 11 -148
15 -44 5 -148 13 -231 19 -84 5 -167 12 -185 15 -43 7 -995 25 -1017 19z
m-1497 -802 c3 -5 2 -12 -3 -15 -5 -3 -9 1 -9 9 0 17 3 19 12 6z m17 -23 c-18
-18 -15 -33 4 -18 8 8 14 9 12 3 -2 -6 2 -11 7 -12 6 -1 10 3 10 8 0 5 3 13 7
17 4 3 6 -3 3 -14 -2 -12 0 -24 6 -27 5 -4 9 2 10 12 0 16 1 16 9 -2 5 -11 9
-23 9 -27 1 -13 -27 -9 -31 4 -7 21 -34 17 -35 -6 -1 -11 1 -15 4 -8 3 6 9 12
14 12 6 0 8 -4 5 -9 -3 -4 6 -19 20 -32 14 -13 24 -19 22 -14 -2 6 2 10 7 10
6 0 9 -4 7 -8 -1 -5 2 -6 8 -2 5 3 10 1 10 -6 0 -7 6 -5 13 6 16 21 33 5 23
-21 -3 -9 -1 -12 4 -9 6 3 10 14 10 23 0 14 2 15 10 2 5 -9 5 -19 -1 -26 -10
-13 13 -39 25 -27 3 4 13 8 21 9 11 2 14 -5 11 -22 -3 -13 -1 -22 4 -19 5 3 7
19 5 36 -3 17 0 40 5 50 7 12 7 20 0 24 -5 3 -10 12 -10 18 0 7 4 6 10 -3 5
-8 10 -11 10 -6 0 5 8 2 17 -5 15 -12 16 -12 10 3 -3 10 -3 20 2 22 4 3 8 0 9
-7 1 -7 4 -30 6 -52 4 -28 3 -34 -4 -20 l-9 20 -1 -20 -1 -20 -9 20 c-6 14 -9
15 -10 5 -1 -8 -3 -23 -5 -33 -3 -15 -1 -16 13 -5 13 11 15 11 9 -4 -3 -10 -2
-20 4 -23 5 -4 9 -3 8 2 -3 20 2 34 10 28 6 -3 8 -15 6 -26 -4 -18 -2 -19 12
-7 15 11 16 11 10 -7 -7 -20 -7 -20 8 -1 8 11 16 17 16 13 1 -4 2 -11 3 -16 0
-5 5 -13 10 -18 5 -4 6 -3 2 4 -3 6 -2 14 4 18 9 6 15 -16 11 -39 -1 -6 -5
-23 -8 -39 -5 -24 -3 -28 8 -22 8 5 7 0 -4 -12 -9 -11 -15 -22 -12 -25 3 -2
-1 -5 -8 -5 -8 0 -14 6 -14 13 0 7 3 11 7 9 4 -2 7 1 7 8 0 7 2 26 5 42 3 17
3 24 1 17 -3 -7 -8 -10 -12 -7 -5 2 -6 -8 -4 -23 3 -20 2 -23 -5 -13 -8 11
-10 3 -8 -27 2 -32 0 -39 -9 -32 -9 8 -11 4 -8 -14 3 -13 0 -26 -5 -30 -6 -3
-9 2 -8 11 2 10 1 12 -1 5 -3 -7 -9 -10 -14 -7 -5 3 -6 -2 -2 -11 4 -12 3 -15
-5 -10 -8 5 -10 1 -5 -10 4 -11 3 -15 -4 -11 -7 5 -9 -1 -6 -15 4 -19 3 -20
-7 -8 -9 12 -11 9 -8 -17 3 -19 0 -30 -6 -26 -5 4 -7 -1 -3 -11 5 -11 3 -15
-5 -10 -7 5 -9 -1 -6 -18 3 -15 0 -25 -7 -25 -7 0 -10 8 -8 18 3 9 1 19 -4 22
-4 3 -8 -9 -8 -26 0 -18 -5 -32 -12 -32 -6 0 -15 -4 -20 -9 -5 -5 -3 -6 5 -2
7 4 12 1 12 -9 0 -9 -4 -14 -8 -11 -4 2 -6 -11 -4 -30 5 -43 14 -37 18 12 1
19 5 38 8 41 3 3 4 -13 2 -36 -2 -23 -8 -47 -14 -53 -16 -16 -15 -31 1 -22 6
4 3 -3 -7 -15 -13 -14 -20 -38 -21 -66 -1 -25 -5 -48 -9 -53 -4 -4 -7 -2 -6 3
5 25 -1 45 -15 45 -9 0 -15 -9 -15 -22 0 -13 -4 -29 -9 -37 -11 -17 -3 -43 10
-35 5 3 7 9 5 12 -2 4 -1 23 4 42 7 29 8 31 9 10 1 -15 7 -32 14 -40 10 -12 9
-12 -5 -1 -21 15 -24 2 -5 -18 8 -10 8 -12 0 -7 -6 3 -19 -3 -27 -15 -15 -23
-12 -44 5 -34 15 10 10 -2 -8 -16 -10 -8 -14 -9 -10 -2 4 6 3 14 -3 18 -6 4
-7 12 -1 24 5 9 6 23 1 31 -4 7 -5 20 -2 29 5 14 4 14 -14 1 -14 -10 -16 -11
-7 0 10 11 10 17 0 29 -9 12 -9 13 1 7 7 -4 12 -1 12 9 0 9 -4 14 -9 11 -5 -3
-15 1 -22 10 -10 12 -10 15 1 12 8 -2 16 5 18 15 2 9 -2 17 -8 17 -6 0 -8 -5
-4 -12 5 -7 3 -8 -6 -3 -10 6 -10 11 3 20 9 7 14 15 10 18 -3 4 -13 1 -22 -6
-14 -10 -14 -10 -3 5 9 11 10 18 2 23 -5 3 -10 12 -10 18 0 7 4 6 10 -3 8 -12
10 -10 10 8 0 13 -3 21 -8 18 -4 -2 -7 12 -7 32 0 21 -4 40 -10 44 -6 5 -5 8
4 8 11 0 11 4 -1 23 -8 12 -14 45 -13 75 0 29 -4 52 -10 52 -5 0 -4 4 3 8 13
9 24 109 13 117 -4 2 -7 24 -7 49 1 24 -1 42 -4 39 -7 -7 -7 -102 1 -98 8 6 5
-63 -4 -70 -4 -3 -5 -2 -2 1 2 4 0 16 -6 27 -8 14 -8 18 0 13 6 -4 11 -3 11 3
0 5 -4 12 -9 16 -6 3 -8 14 -6 25 2 11 0 22 -4 25 -5 2 -6 16 -3 31 3 15 0 29
-7 34 -9 5 -8 9 4 13 10 5 14 3 9 -5 -4 -6 -3 -8 4 -4 8 4 7 16 -3 40 -11 26
-11 36 -2 46 9 10 9 11 -1 6 -16 -9 -28 20 -15 37 12 15 24 47 18 47 -11 0
-36 -70 -29 -82 5 -7 9 -18 10 -24 1 -6 5 -22 8 -35 5 -20 3 -19 -7 4 -7 15
-17 24 -22 20 -5 -5 -4 -1 3 9 9 11 10 18 2 23 -5 3 -10 15 -10 26 0 11 -4 18
-9 14 -5 -3 -13 0 -17 6 -4 7 -3 9 3 6 6 -4 22 11 37 33 14 22 29 40 33 40 4
0 2 -5 -5 -12z m99 -56 c0 -14 2 -13 9 3 7 16 9 17 9 3 1 -9 6 -20 13 -24 7
-5 9 -2 5 8 -6 16 15 19 29 5 4 -4 13 -2 21 5 11 9 13 8 11 -3 -2 -8 3 -13 12
-11 8 2 12 0 8 -4 -4 -4 -3 -13 3 -20 12 -14 1 -67 -12 -58 -5 3 -7 9 -5 13 3
4 0 13 -5 21 -7 11 -8 7 -5 -12 5 -28 -8 -47 -18 -29 -4 5 -2 12 4 16 7 4 7
13 0 26 -6 11 -15 17 -20 14 -5 -3 -12 -1 -15 5 -5 8 -11 8 -20 0 -9 -7 -16
-6 -25 5 -9 11 -16 12 -25 5 -9 -7 -16 -6 -23 3 -9 11 -7 13 11 13 16 -1 22 4
21 21 0 12 3 20 8 17 4 -3 8 -13 9 -22z m229 -6 c0 -2 -8 -10 -17 -17 -16 -13
-17 -12 -4 4 13 16 21 21 21 13z m1526 -40 c0 -14 -4 -22 -8 -20 -4 3 -8 -2
-8 -10 0 -20 23 -16 32 4 5 12 7 11 7 -3 1 -10 6 -15 11 -12 6 4 8 10 6 14 -3
4 2 8 10 8 10 0 11 -4 5 -10 -11 -11 4 -37 21 -37 6 0 6 6 -1 14 -8 10 -9 16
-1 21 6 4 9 3 8 -2 -2 -4 2 -9 7 -9 6 -1 9 3 7 10 -2 6 0 7 5 3 4 -5 8 -14 8
-20 0 -7 11 -12 25 -12 17 0 26 -6 29 -20 l4 -20 7 20 c6 16 8 13 7 -13 0 -18
-4 -35 -9 -38 -5 -3 -8 0 -7 7 1 8 -3 25 -9 39 -9 22 -11 23 -12 5 l-1 -20
-10 20 c-9 19 -9 19 -6 -1 3 -12 0 -29 -6 -39 -7 -13 -6 -16 3 -10 7 5 6 -3
-4 -22 -12 -24 -12 -33 -3 -44 10 -11 9 -11 -5 0 -10 7 -14 19 -11 28 4 10 2
14 -5 9 -6 -3 -14 -1 -18 5 -4 8 -3 9 4 5 7 -4 12 -3 12 2 0 17 -13 22 -27 10
-8 -6 -13 -7 -12 -2 4 22 -2 54 -10 54 -4 0 -7 -11 -6 -25 2 -14 -1 -27 -5
-30 -5 -3 -7 7 -4 21 4 24 3 26 -10 14 -9 -7 -13 -17 -9 -24 3 -6 2 -7 -3 -3
-5 5 -9 17 -9 28 0 10 -4 19 -10 19 -5 0 -10 -4 -10 -9 0 -5 -4 -13 -8 -18 -5
-4 -7 -1 -5 7 2 10 -4 15 -19 14 -13 -1 -20 2 -18 7 3 4 1 10 -5 14 -5 3 -11
-2 -11 -12 -1 -17 -2 -17 -6 0 -2 9 -9 15 -14 11 -5 -3 -7 -9 -5 -13 3 -4 -1
-8 -9 -8 -8 0 -13 3 -12 6 1 3 -2 7 -8 9 -5 1 -10 -2 -10 -7 0 -5 -3 -13 -7
-17 -4 -3 -6 3 -3 15 2 11 0 21 -6 21 -9 0 -13 -16 -9 -35 1 -5 -8 -1 -19 9
-21 19 -30 9 -11 -10 7 -7 6 -11 -3 -11 -8 0 -14 5 -15 11 -1 6 -3 22 -5 36
-1 14 -8 24 -15 23 -7 -2 -12 3 -12 10 0 8 -4 7 -11 -3 -9 -13 -10 -13 -6 0 2
8 -2 22 -9 31 -12 13 -12 16 0 16 8 0 15 -3 14 -6 -2 -19 4 -24 13 -11 9 13
10 13 6 -2 -3 -9 1 -19 9 -22 11 -4 13 1 10 20 -3 15 -2 23 2 19 7 -6 8 -10
11 -36 0 -5 5 -8 11 -4 5 3 6 13 3 23 -4 10 2 7 15 -8 12 -14 21 -20 22 -14 0
5 -5 15 -10 22 -6 6 -7 10 -4 7 4 -3 14 1 23 8 14 10 14 10 4 -4 -7 -9 -10
-19 -6 -22 3 -4 0 -13 -7 -22 -7 -8 -8 -15 -2 -15 13 0 33 25 26 32 -3 3 0 9
7 14 7 4 10 3 5 -4 -3 -6 -2 -13 4 -17 5 -3 10 2 11 12 0 16 1 16 9 -2 l9 -20
1 20 c2 11 2 24 1 29 -1 5 4 4 12 -2 10 -9 17 -9 27 1 7 6 10 7 7 2 -3 -6 1
-21 10 -35 13 -23 14 -23 10 -3 -3 13 0 21 6 20 6 -1 12 4 13 11 4 31 10 30
10 -2z m-1525 -10 c-16 -21 -18 -52 -4 -64 10 -10 13 -10 13 0 0 9 3 9 10 -2
8 -13 10 -12 10 4 0 12 -5 16 -15 12 -21 -8 -19 28 3 45 14 11 15 11 5 -1 -15
-17 -17 -34 -3 -25 6 3 10 1 10 -5 0 -6 4 -9 9 -6 5 4 7 -4 4 -16 -4 -19 -3
-20 6 -8 8 11 11 12 11 2 0 -7 5 -10 10 -7 8 5 7 12 -2 23 -12 15 -11 16 5 3
13 -10 14 -17 7 -26 -8 -9 -8 -15 0 -20 5 -3 10 -2 10 2 0 5 7 18 15 29 14 16
14 14 0 -14 -20 -41 -13 -55 8 -17 12 25 15 26 21 9 4 -10 4 -15 0 -11 -4 4
-14 -3 -22 -15 -14 -19 -16 -20 -28 -4 -10 15 -12 12 -12 -19 0 -21 -5 -42
-11 -48 -8 -8 -8 -2 -2 19 9 32 -3 79 -18 69 -5 -3 -12 -1 -16 4 -3 5 -14 8
-25 6 -12 -2 -18 0 -15 5 3 5 1 11 -4 14 -6 4 -6 18 -1 35 4 16 6 31 4 34 -2
2 3 4 11 4 9 0 11 -4 6 -11z m1016 -3 c-4 -3 0 -14 9 -24 10 -11 12 -19 4 -24
-5 -3 -8 -11 -4 -16 3 -6 12 -2 19 8 11 15 11 21 -1 34 -12 14 -12 16 0 16 8
0 14 -4 13 -8 -1 -4 3 -6 8 -5 6 0 9 5 7 9 -1 5 2 6 8 2 8 -5 8 -11 0 -20 -8
-9 -8 -15 0 -20 5 -3 10 0 10 7 0 9 3 9 10 -2 5 -8 10 -19 10 -25 0 -5 -5 -3
-10 5 -9 13 -10 13 -10 0 0 -13 -1 -13 -10 0 -9 13 -10 13 -10 0 0 -13 -1 -13
-10 0 -13 20 -13 4 0 -20 7 -13 7 -21 0 -25 -9 -6 -15 8 -11 29 1 5 -4 4 -12
-2 -8 -7 -18 -8 -22 -4 -5 4 -4 0 0 -8 5 -9 -1 -7 -15 5 l-23 20 7 -25 c6 -19
5 -21 -3 -10 -7 9 -11 10 -11 3 0 -6 -9 -10 -19 -8 -15 3 -19 -1 -15 -13 3 -9
-2 -6 -11 8 l-16 25 6 -25 c5 -19 4 -22 -4 -10 -10 13 -11 13 -11 0 0 -13 -1
-13 -10 0 -9 13 -10 13 -10 0 0 -13 -1 -13 -11 0 -8 12 -9 10 -4 -9 5 -17 4
-21 -5 -16 -6 4 -10 16 -7 26 3 10 1 21 -3 24 -5 3 -11 -7 -13 -22 -3 -16 -3
-7 -2 20 1 26 5 51 9 55 4 4 7 3 6 -3 -1 -5 -2 -19 -1 -30 1 -16 3 -17 10 -5
6 8 7 18 5 22 -3 5 0 7 8 6 7 -2 12 2 11 8 -1 6 4 11 12 11 10 0 6 -10 -11
-30 -13 -16 -21 -34 -17 -40 4 -6 9 -3 13 9 4 10 18 28 31 39 l24 20 -22 -26
c-33 -36 -28 -55 5 -21 15 15 21 20 13 10 -9 -11 -10 -18 -3 -18 6 0 18 10 26
22 9 12 16 17 16 10 0 -7 5 -10 12 -6 7 5 5 11 -7 21 -11 7 -14 13 -8 13 12 0
28 -19 28 -32 0 -5 5 -8 10 -8 6 0 10 3 10 8 0 4 4 12 8 18 4 7 0 17 -8 24
-14 11 -12 30 2 30 4 0 3 -3 0 -7z m98 -2 c3 -5 2 -12 -3 -15 -5 -3 -9 1 -9 9
0 17 3 19 12 6z m83 -4 c9 16 11 15 17 -9 4 -15 2 -35 -4 -45 -8 -14 -10 -14
-11 -3 0 13 -1 13 -11 0 -8 -12 -9 -10 -4 8 3 12 4 22 0 22 -3 0 -10 -10 -15
-22 l-9 -23 0 23 c-1 12 4 22 10 22 5 0 7 5 4 10 -4 6 -10 8 -14 6 -4 -3 -8 1
-8 9 0 13 3 13 18 -1 16 -14 18 -14 27 3z m45 -17 c3 -11 2 -20 -3 -20 -4 0
-10 11 -12 25 -6 29 7 25 15 -5z m-1146 -5 c0 -8 -4 -12 -9 -9 -5 3 -6 10 -3
15 9 13 12 11 12 -6z m904 -2 c13 -16 12 -17 -3 -4 -10 7 -18 15 -18 17 0 8 8
3 21 -13z m131 5 c-5 -8 -6 -22 -1 -33 7 -18 8 -18 9 5 l2 25 7 -25 c5 -17 14
-25 29 -25 13 0 27 -7 33 -15 10 -13 10 -13 6 1 -6 19 1 30 31 47 22 13 23 12
17 -10 -15 -48 -24 -66 -35 -73 -5 -3 -7 -11 -4 -17 5 -7 2 -8 -5 -4 -9 6 -9
12 2 24 18 21 28 62 16 62 -5 0 -9 -8 -9 -18 0 -19 -39 -63 -41 -46 0 12 -22
-37 -23 -53 -1 -7 -4 -13 -8 -13 -5 0 -13 0 -19 0 -5 0 -7 5 -3 11 4 8 9 7 15
-2 6 -9 7 1 4 26 -3 26 -2 33 4 21 7 -19 8 -19 14 3 4 15 10 20 18 15 8 -5 10
-3 4 6 -6 9 -4 11 5 5 9 -5 11 -4 6 4 -4 6 -11 9 -16 6 -4 -3 -10 -2 -13 2 -2
5 -2 3 -1 -4 2 -7 -1 -15 -6 -18 -9 -5 -14 7 -12 26 1 9 -46 5 -55 -5 -4 -4
-3 -6 2 -4 6 2 11 -1 12 -7 0 -5 -4 -9 -10 -7 -6 2 -6 -3 2 -12 8 -9 8 -16 2
-20 -6 -4 -7 -14 -4 -24 6 -14 4 -15 -9 -5 -13 11 -15 9 -12 -15 1 -15 3 -29
4 -32 4 -10 -2 -45 -10 -55 -4 -5 -6 -18 -5 -27 2 -10 -2 -16 -8 -15 -6 1 -12
-4 -13 -10 -1 -7 -3 -16 -4 -20 -1 -5 -2 -12 -1 -16 1 -5 -3 -6 -9 -2 -6 3 -8
12 -4 18 3 7 -1 4 -9 -5 -8 -10 -17 -15 -21 -11 -4 4 -4 -1 0 -11 5 -12 4 -17
-2 -13 -6 3 -10 -9 -9 -31 1 -20 -7 -51 -16 -68 -13 -24 -15 -34 -6 -44 9 -9
9 -11 -2 -8 -7 2 -16 -3 -19 -11 -3 -9 0 -11 9 -6 8 5 6 0 -3 -11 -12 -14 -15
-24 -8 -32 7 -9 7 -9 -2 -2 -15 12 -20 42 -6 34 7 -4 8 -2 4 5 -4 6 -3 18 3
25 8 9 7 13 -2 13 -8 0 -14 -5 -15 -11 -2 -22 -8 -41 -16 -55 -6 -9 -5 -12 0
-8 6 3 15 -3 22 -13 9 -14 9 -21 0 -26 -6 -4 -8 -3 -4 4 9 15 -12 26 -28 13
-7 -6 -17 -7 -22 -3 -5 4 -6 3 -2 -2 4 -5 3 -15 -3 -23 -6 -7 -8 -13 -4 -13 4
0 2 -7 -5 -15 -17 -20 -34 -8 -18 13 10 13 7 13 -9 -1 -12 -11 -19 -25 -16
-34 5 -12 7 -12 14 -1 10 14 12 6 9 -34 -1 -14 3 -29 9 -33 7 -4 6 -14 -4 -29
-8 -12 -13 -25 -10 -28 10 -9 14 -47 6 -52 -6 -4 -10 15 -12 67 0 11 -5 15
-12 10 -7 -3 -5 2 4 13 11 13 14 27 8 44 -5 18 -8 20 -9 8 -1 -10 -3 -22 -4
-27 0 -5 -4 -12 -7 -16 -4 -3 -4 12 -2 34 5 40 -11 86 -27 76 -5 -3 -12 0 -16
6 -4 8 -3 9 4 5 7 -4 12 -2 12 5 0 8 5 6 13 -5 12 -16 14 -16 32 6 l20 23 -22
-19 c-27 -23 -30 -11 -5 18 17 21 17 21 -5 2 -13 -11 -23 -14 -23 -8 0 6 5 14
11 17 7 5 6 12 -4 23 -8 10 -13 25 -12 34 2 10 -1 20 -6 24 -5 3 -6 10 -3 16
4 7 2 8 -5 4 -9 -6 -9 -11 0 -22 9 -11 8 -14 -2 -14 -11 0 -11 -2 1 -10 13 -9
13 -10 0 -10 -13 0 -13 -1 0 -10 11 -7 11 -10 2 -10 -9 0 -10 -5 -2 -19 5 -11
6 -22 2 -25 -5 -3 -9 0 -10 7 -1 7 -3 23 -5 37 -1 14 -7 31 -11 39 -6 10 -5
12 2 7 16 -10 15 -1 -7 45 -11 21 -16 37 -12 35 4 -3 12 3 18 13 9 14 8 18 -3
18 -7 0 -10 -5 -7 -11 3 -6 0 -5 -8 2 -8 7 -15 22 -15 32 -1 11 -2 27 -3 36 0
9 -6 12 -13 8 -7 -4 -8 -3 -4 5 4 6 13 8 19 4 7 -4 6 0 -2 10 -7 9 -17 14 -22
12 -4 -3 -6 4 -4 16 9 44 17 59 28 53 7 -4 9 -3 4 1 -4 5 1 18 10 29 18 21 18
21 -4 2 -23 -19 -33 -10 -12 11 8 8 7 13 -2 18 -7 5 -10 4 -5 -3 3 -6 2 -13
-3 -16 -15 -10 -20 32 -6 51 13 17 14 16 24 -9 13 -34 21 -37 14 -5 -4 18 -3
19 6 7 8 -11 11 -12 11 -2 0 7 5 10 10 7 8 -5 8 -11 0 -20 -8 -9 -8 -15 0 -20
6 -4 10 -3 9 2 -1 4 0 11 1 16 1 4 3 12 4 17 1 13 21 13 21 1 0 -6 7 -16 15
-23 12 -11 12 -11 2 3 -6 9 -10 18 -7 21 3 3 -1 11 -10 18 -8 7 -15 20 -16 29
0 12 -2 11 -9 -4 l-9 -20 -1 20 c-2 11 -1 27 0 34 1 13 -1 13 -14 2 -13 -11
-14 -17 -5 -28 9 -11 9 -17 -1 -26 -10 -10 -12 -8 -6 8 6 20 6 20 -9 1 -9 -12
-15 -15 -15 -7 0 7 -6 11 -15 7 -8 -3 -19 2 -23 11 -10 16 -13 1 -14 -66 0
-16 -3 -20 -8 -11 -4 7 -6 31 -3 54 3 29 2 37 -5 27 -6 -8 -8 -19 -6 -26 3 -6
-3 -18 -13 -26 -10 -7 -15 -9 -10 -4 4 4 -1 18 -10 29 -18 21 -18 21 5 2 26
-23 29 -11 5 18 -17 20 -17 20 0 7 16 -13 25 -2 10 13 -10 10 -12 35 -3 41 4
2 7 -5 6 -17 -1 -17 5 -22 27 -23 26 -2 53 23 42 39 -3 3 -2 3 2 0 4 -3 8 -11
8 -17 0 -7 5 -12 10 -12 6 0 9 3 8 7 -2 5 3 7 10 6 6 -2 11 2 10 9 -1 6 5 10
15 8 10 -1 16 -9 14 -21 -3 -15 -2 -16 12 -5 13 11 14 17 4 30 -11 14 -11 14
3 4 9 -7 20 -9 25 -5 4 4 4 0 -2 -8 -13 -18 -3 -65 14 -65 7 0 17 -6 21 -14 7
-11 10 -10 15 6 6 20 56 28 56 9 1 -6 7 0 15 14 12 21 14 22 12 5 -1 -11 -7
-27 -11 -35 -5 -8 -6 -12 -1 -8 4 4 14 3 20 -2 9 -7 16 -6 24 4 8 10 9 16 1
21 -7 4 -7 12 1 26 6 12 13 18 16 15 4 -3 12 -1 18 4 9 8 14 6 19 -5 4 -11 2
-14 -6 -9 -7 5 -8 3 -4 -5 6 -9 13 -8 27 5 23 21 25 8 3 -17 -12 -14 -13 -18
-2 -25 7 -4 10 -3 5 1 -4 5 1 17 10 27 13 14 14 21 5 30 -7 7 -12 17 -12 23 0
5 5 3 10 -5 6 -10 10 -11 10 -2 0 6 6 11 13 10 6 -2 12 6 12 17 1 21 12 45 22
45 3 0 1 -6 -5 -12z m-961 -25 c13 -16 12 -17 -3 -4 -10 7 -18 15 -18 17 0 8
8 3 21 -13z m614 5 c5 4 5 1 1 -6 -6 -10 -11 -10 -22 -1 -8 6 -14 14 -14 16 0
3 6 0 13 -6 8 -6 18 -7 22 -3z m501 -26 c0 -22 -6 -39 -13 -39 -11 0 -10 18 2
58 9 28 12 23 11 -19z m-1138 3 c-3 -3 -9 2 -12 12 -6 14 -5 15 5 6 7 -7 10
-15 7 -18z m458 -30 c1 -8 -5 -20 -14 -27 -15 -11 -15 -11 -6 2 6 8 10 23 8
33 -1 11 0 16 4 13 3 -4 7 -13 8 -21z m1122 -6 c-2 -32 -13 -46 -22 -30 -4 5
-2 12 4 16 5 3 10 15 10 26 0 10 2 19 5 19 3 0 4 -14 3 -31z m-44 0 c-3 -6 2
-19 12 -30 13 -14 20 -16 30 -8 8 6 12 14 10 18 -3 4 0 13 6 21 8 12 9 11 4
-3 -4 -12 -2 -17 6 -15 7 3 13 10 13 16 0 5 3 13 7 17 3 4 5 -1 4 -12 -2 -10
0 -23 5 -29 5 -7 3 -11 -6 -11 -8 0 -11 5 -8 10 4 6 1 7 -6 3 -9 -6 -9 -12 3
-25 9 -10 14 -20 11 -23 -3 -3 5 -13 17 -24 21 -18 22 -18 8 0 -17 22 -21 44
-9 52 5 3 9 -4 9 -14 0 -11 7 -25 15 -32 8 -7 12 -17 8 -23 -3 -6 -1 -7 6 -3
6 4 9 11 6 16 -3 5 -1 11 4 14 8 5 25 -30 22 -47 -1 -5 3 -6 8 -3 5 4 17 -4
25 -16 11 -15 16 -18 16 -8 1 8 8 3 16 -12 8 -16 19 -28 24 -28 5 0 7 -8 4
-17 -4 -14 -3 -15 4 -5 7 11 11 10 17 -5 5 -10 9 -26 10 -35 2 -10 4 -21 5
-25 1 -5 1 -12 0 -18 -1 -5 2 -6 6 -2 11 10 14 38 4 32 -4 -3 -6 12 -4 33 2
26 1 33 -6 22 -5 -8 -10 -10 -10 -5 0 6 4 16 8 23 6 9 12 6 20 -12 7 -17 8
-27 1 -32 -6 -3 -6 -10 -1 -17 9 -11 9 -21 2 -52 -5 -20 0 -36 9 -31 5 4 8 -2
6 -11 -1 -10 3 -24 9 -32 9 -12 8 -12 -10 -3 -20 11 -22 9 -20 -19 1 -16 -1
-32 -6 -35 -5 -3 -5 -10 -2 -16 4 -7 2 -8 -4 -4 -10 6 -17 -11 -14 -36 1 -3
-6 -12 -16 -20 -15 -12 -16 -11 -3 5 7 9 11 17 7 17 -3 0 -1 12 4 26 8 19 7
25 -2 22 -6 -2 -12 -12 -14 -22 -1 -10 -8 -24 -15 -30 -9 -8 -9 -6 0 12 6 12
9 22 6 22 -11 0 -20 -5 -18 -11 1 -3 -5 -6 -13 -6 -9 0 -11 4 -5 10 13 13 -17
59 -33 50 -6 -3 -8 -2 -3 2 4 5 -3 19 -15 32 -12 13 -18 23 -13 23 5 0 -2 12
-16 27 -13 14 -19 23 -12 19 6 -3 14 -2 18 4 3 5 1 10 -5 10 -6 0 -8 5 -5 10
3 6 1 10 -6 10 -7 0 -4 7 7 15 18 14 18 14 -3 8 -14 -3 -23 -1 -23 6 0 7 5 9
13 5 9 -6 9 -5 0 8 -7 8 -9 19 -5 23 4 5 1 5 -6 1 -7 -4 -10 -11 -8 -15 3 -4
-1 -8 -8 -8 -8 0 -12 11 -11 28 1 15 -3 27 -9 26 -6 -1 -10 4 -8 11 1 6 -3 12
-9 12 -6 0 -17 7 -26 15 -8 8 -19 13 -24 9 -5 -3 -8 0 -7 8 2 7 -2 12 -9 11
-8 -2 -10 4 -6 14 4 10 2 14 -4 10 -14 -9 -19 34 -10 88 6 39 5 37 17 30 6 -4
8 -11 4 -16z m-539 -29 c-1 -17 -7 -36 -13 -42 -9 -9 -7 -17 6 -32 9 -11 12
-16 5 -13 -6 4 -19 -3 -29 -15 -9 -13 -14 -16 -11 -6 3 9 3 19 -1 22 -11 12
-10 35 1 33 7 -1 13 5 13 13 1 8 3 18 4 23 1 4 4 12 5 17 1 6 4 13 5 18 1 4 2
11 1 15 -1 5 3 6 8 3 5 -3 8 -20 6 -36z m-168 5 c-4 -8 -2 -17 4 -20 5 -4 7
-11 3 -16 -9 -14 -23 -1 -19 19 2 9 4 20 4 25 1 4 4 7 7 7 3 0 4 -7 1 -15z
m833 0 c0 -8 5 -14 12 -12 16 3 23 -32 9 -46 -7 -7 -12 -5 -16 9 -4 10 -11 27
-16 36 -12 23 -11 28 1 28 6 0 10 -7 10 -15z m-1115 -48 c-12 -17 -12 -25 0
-53 12 -29 12 -34 -3 -46 -9 -7 -14 -8 -9 -3 4 4 -1 18 -10 29 -17 20 -17 20
1 6 18 -14 18 -13 11 10 -4 14 -8 30 -8 35 0 30 4 42 17 42 13 0 13 -3 1 -20z
m90 14 c-9 -8 -36 -10 -30 -2 2 4 11 8 20 8 8 0 13 -3 10 -6z m1087 -15 c7 4
8 2 4 -5 -12 -18 1 -41 19 -35 8 3 12 10 9 15 -3 5 -10 7 -15 4 -5 -3 -6 1 -2
11 5 15 7 14 17 -2 6 -11 11 -23 11 -29 0 -13 26 -14 45 -1 12 8 13 8 3 -4
-15 -16 -17 -34 -4 -25 5 3 12 1 16 -4 3 -6 -3 -8 -15 -6 -11 2 -20 0 -20 -4
0 -16 13 -19 37 -10 16 6 22 6 18 -1 -3 -6 -14 -10 -23 -11 -11 0 -12 -3 -4
-6 6 -2 12 -9 12 -14 0 -18 -40 16 -51 44 -7 16 -15 24 -19 18 -9 -15 -47 28
-53 59 -2 14 -2 19 0 12 3 -7 9 -9 15 -6z m-850 -219 c-7 -8 -8 -18 -4 -22 4
-5 1 -5 -5 -1 -10 5 -10 11 -1 26 7 11 14 17 17 15 2 -3 -1 -11 -7 -18z m-217
-206 c3 -5 1 -12 -5 -16 -5 -3 -10 1 -10 9 0 18 6 21 15 7z m128 -55 c7 4 2
-4 -10 -18 -29 -31 -30 -47 -1 -22 13 11 9 3 -9 -20 -28 -34 -36 -75 -12 -60
5 3 7 9 4 14 -3 5 -1 11 4 14 11 7 9 -13 -2 -31 -5 -7 -5 -17 -2 -23 3 -5 4
-10 1 -10 -10 0 -40 65 -42 90 0 14 6 33 14 43 8 9 11 17 7 17 -4 0 0 10 11
21 l19 21 3 -21 c2 -13 8 -19 15 -15z m-60 -156 c-3 -12 -8 -19 -11 -16 -5 6
5 36 12 36 2 0 2 -9 -1 -20z m-1053 -24 c0 -2 -8 -10 -17 -17 -16 -13 -17 -12
-4 4 13 16 21 21 21 13z m1067 -11 c0 -8 -4 -12 -9 -9 -5 3 -6 10 -3 15 9 13
12 11 12 -6z"/>
<path d="M3280 6210 c-6 -11 -8 -20 -6 -20 3 0 10 9 16 20 6 11 8 20 6 20 -3
0 -10 -9 -16 -20z"/>
<path d="M3563 6157 c0 -6 -4 -21 -7 -32 -5 -13 -2 -12 8 5 8 14 15 19 16 12
0 -16 20 -6 20 10 0 6 -3 8 -7 5 -3 -4 -11 -2 -18 3 -8 6 -12 6 -12 -3z"/>
<path d="M3349 5848 c-5 -19 -8 -50 -4 -46 7 7 15 48 9 48 -2 0 -4 -1 -5 -2z"/>
<path d="M3344 5758 c1 -18 6 -39 10 -47 5 -8 11 -35 13 -60 7 -90 11 -106 21
-104 14 3 13 -58 -1 -75 -8 -10 -7 -12 4 -10 8 2 15 -5 15 -17 3 -37 6 -40 13
-10 5 22 12 30 28 29 15 0 20 5 18 17 -2 9 2 25 9 34 7 10 11 35 9 59 -5 48
-13 62 -13 22 0 -16 -4 -25 -10 -21 -6 4 -7 12 -4 18 4 7 3 8 -2 4 -5 -5 -9
-13 -9 -19 0 -6 -8 -12 -17 -14 -10 -1 -18 3 -18 9 0 7 -5 5 -10 -3 -8 -12
-10 -10 -10 8 0 13 4 21 8 18 4 -2 9 5 9 16 2 20 1 20 -13 2 -13 -18 -14 -17
-10 9 3 16 1 25 -5 22 -5 -4 -7 4 -5 17 2 13 -2 34 -9 48 -7 14 -10 30 -8 37
2 7 0 20 -5 29 -7 12 -9 7 -8 -18z m125 -222 c-5 -17 -9 -32 -9 -33 0 -2 -5
-3 -11 -3 -8 0 -8 4 1 15 6 8 10 22 7 32 -4 15 -5 14 -6 -3 0 -12 -8 -27 -16
-34 -8 -7 -15 -18 -15 -24 0 -8 3 -7 8 1 4 7 13 9 21 4 9 -6 6 -10 -11 -14
-12 -4 -25 -7 -27 -7 -2 0 -5 20 -5 44 -1 36 2 43 16 41 10 -2 20 0 22 4 3 4
12 8 19 8 12 0 13 -7 6 -31z"/>
<path d="M3423 5543 c4 -3 1 -13 -6 -22 -11 -14 -10 -14 5 -2 16 12 16 31 1
31 -4 0 -3 -3 0 -7z"/>
<path d="M3539 5778 c-5 -19 -8 -50 -4 -46 7 7 15 48 9 48 -2 0 -4 -1 -5 -2z"/>
<path d="M3430 5636 c0 -2 8 -10 18 -17 15 -13 16 -12 3 4 -13 16 -21 21 -21
13z"/>
<path d="M3460 6193 c0 -7 0 -16 0 -20 0 -5 5 -9 10 -9 6 -1 12 -3 15 -4 3 -1
10 -3 15 -4 6 0 15 -8 20 -16 8 -13 10 -13 10 1 0 9 -9 24 -20 34 -14 13 -20
14 -20 5 0 -9 -5 -7 -15 6 -8 11 -15 14 -15 7z"/>
<path d="M3411 6174 c6 -7 16 -11 21 -8 11 7 3 17 -18 20 -12 2 -13 -1 -3 -12z"/>
<path d="M5077 6129 c-3 -12 -12 -17 -25 -14 -12 2 -27 -4 -34 -13 -8 -10 -9
-13 -1 -9 6 4 15 3 18 -3 4 -7 11 -8 18 -1 17 13 29 12 50 -6 16 -15 17 -15
18 3 0 18 1 18 9 -1 8 -19 9 -19 9 -1 1 18 2 18 21 1 11 -10 17 -23 13 -29 -3
-6 5 0 20 13 l26 23 10 -33 c6 -21 10 -26 10 -14 2 40 -24 62 -69 60 -34 -2
-44 2 -52 20 -12 26 -35 28 -41 4z m36 -14 c7 -17 -9 -30 -18 -15 -4 6 -12 7
-18 3 -7 -4 -6 0 2 10 17 21 27 22 34 2z m-53 -11 c0 -8 -19 -13 -24 -6 -3 5
1 9 9 9 8 0 15 -2 15 -3z m138 -21 c-8 -10 -14 -10 -24 -2 -18 15 -18 15 11
15 19 0 22 -3 13 -13z"/>
<path d="M4965 6120 c-4 -6 -10 -8 -14 -6 -3 3 -7 -4 -7 -14 0 -11 2 -17 5
-15 2 3 10 0 18 -6 7 -6 13 -8 14 -3 0 5 2 17 4 26 4 21 -11 33 -20 18z m8
-15 c-3 -9 -8 -14 -10 -11 -3 3 -2 9 2 15 9 16 15 13 8 -4z"/>
<path d="M5253 6088 c-10 -16 -5 -47 11 -70 11 -15 13 -12 14 26 2 45 -10 67
-25 44z m14 -45 c-3 -10 -5 -2 -5 17 0 19 2 27 5 18 2 -10 2 -26 0 -35z"/>
<path d="M4590 6055 c-11 -13 -10 -14 4 -9 9 3 16 10 16 15 0 13 -6 11 -20 -6z"/>
<path d="M4836 6122 c-2 -4 -1 -14 5 -22 7 -12 9 -10 9 8 0 23 -5 28 -14 14z"/>
<path d="M4437 6033 c-4 -6 4 -24 18 -41 13 -16 22 -32 20 -36 -3 -3 -2 -4 2
-1 10 8 13 36 3 30 -10 -6 -27 15 -32 40 -2 13 -6 16 -11 8z"/>
<path d="M4337 6023 c-13 -12 -7 -20 13 -18 11 1 23 5 27 11 5 5 4 6 -1 2 -5
-4 -14 -3 -21 2 -7 5 -15 7 -18 3z"/>
<path d="M4644 6013 c2 -9 11 -17 20 -19 17 -2 17 -2 0 17 -21 23 -23 23 -20
2z"/>
<path d="M4531 5986 c-9 -11 -9 -16 1 -22 22 -14 36 -13 34 2 -4 26 -22 36
-35 20z m23 -17 c-3 -5 -10 -7 -15 -3 -5 3 -7 10 -3 15 3 5 10 7 15 3 5 -3 7
-10 3 -15z"/>
<path d="M4491 5946 c-9 -11 -9 -16 1 -22 7 -4 10 -4 6 1 -4 4 -3 14 3 22 6 7
9 13 6 13 -2 0 -10 -6 -16 -14z"/>
<path d="M4695 5941 c-3 -5 -1 -12 5 -16 12 -7 13 -48 3 -59 -5 -4 -8 -13 -8
-19 -1 -7 -6 -11 -12 -10 -13 3 -11 -22 2 -34 4 -4 5 -3 2 3 -4 7 0 17 8 24 8
7 13 16 10 20 -3 5 -1 11 5 15 5 3 10 17 10 30 0 13 -5 27 -10 30 -6 4 -8 11
-5 16 4 5 4 9 1 9 -3 0 -7 -4 -11 -9z"/>
<path d="M4433 5925 c0 -8 4 -12 9 -9 5 3 6 10 3 15 -9 13 -12 11 -12 -6z"/>
<path d="M4350 5840 c-8 -16 -6 -21 12 -30 20 -10 21 -9 6 2 -12 10 -13 19 -7
31 6 9 8 17 5 17 -3 0 -10 -9 -16 -20z"/>
<path d="M4611 5696 c-8 -10 -9 -16 -1 -21 5 -3 10 -5 11 -3 4 18 7 38 4 38
-1 0 -8 -6 -14 -14z"/>
<path d="M4397 5673 c-3 -5 -1 -17 4 -28 6 -17 7 -16 6 8 -1 28 -3 32 -10 20z"/>
<path d="M4596 5657 c3 -10 9 -15 12 -12 3 3 0 11 -7 18 -10 9 -11 8 -5 -6z"/>
<path d="M5307 6000 c-7 -28 34 -100 56 -100 6 0 4 5 -5 11 -10 5 -18 15 -18
21 0 6 7 5 17 -3 10 -8 14 -9 10 -2 -4 6 -3 14 3 18 5 3 10 11 10 18 0 6 -7 2
-16 -9 -15 -19 -15 -19 -9 2 3 13 -1 26 -10 34 -8 7 -15 9 -16 4 0 -5 -4 0 -8
10 -7 18 -8 18 -14 -4z m39 -22 c3 -4 2 -14 -4 -24 -6 -11 -11 -13 -16 -5 -4
6 -2 11 3 11 6 0 11 5 11 11 0 5 -4 8 -9 4 -5 -3 -12 -1 -15 4 -7 10 19 9 30
-1z"/>
<path d="M5370 5996 c0 -2 8 -10 18 -17 15 -13 16 -12 3 4 -13 16 -21 21 -21
13z"/>
<path d="M5550 5853 c0 -6 8 -17 18 -24 16 -13 16 -13 2 6 -8 11 -16 22 -17
24 -2 2 -3 0 -3 -6z"/>
<path d="M5480 5695 c7 -8 18 -15 24 -14 7 0 6 2 -2 6 -6 2 -10 9 -6 14 3 5
-2 9 -12 9 -13 0 -14 -3 -4 -15z"/>
<path d="M5536 5671 c-3 -5 -16 -7 -29 -3 -20 5 -21 4 -8 -12 8 -9 16 -14 19
-12 3 3 13 -9 22 -27 16 -30 55 -45 55 -22 0 6 4 17 9 25 7 12 6 13 -4 3 -11
-10 -18 -9 -34 5 -20 16 -20 16 -7 0 9 -13 10 -18 2 -18 -17 0 -31 43 -19 58
6 6 8 12 5 12 -3 0 -8 -4 -11 -9z m48 -69 c3 -5 -1 -9 -9 -9 -8 0 -12 4 -9 9
3 4 7 8 9 8 2 0 6 -4 9 -8z"/>
<path d="M5618 5622 c-4 -12 -2 -24 2 -27 13 -8 18 8 10 29 -6 19 -7 19 -12
-2z"/>
<path d="M4750 5929 c0 -5 5 -7 10 -4 6 3 10 8 10 11 0 2 -4 4 -10 4 -5 0 -10
-5 -10 -11z"/>
<path d="M5462 5980 c0 -14 2 -19 5 -12 2 6 2 18 0 25 -3 6 -5 1 -5 -13z"/>
<path d="M4540 5483 c0 -12 -4 -23 -10 -25 -5 -1 -12 -19 -14 -38 -3 -31 -3
-32 10 -16 7 11 11 23 8 28 -3 5 1 17 10 26 10 12 12 22 6 32 -8 12 -10 11
-10 -7z"/>
<path d="M7840 6918 c0 -9 -30 -43 -66 -75 -61 -54 -114 -124 -114 -151 0 -7
32 15 72 48 72 61 100 76 76 41 -18 -25 -167 -181 -173 -181 -3 0 -24 9 -48
19 -23 11 -69 29 -102 41 -48 17 -116 49 -144 67 -13 9 10 13 26 4 31 -17 146
-51 152 -45 15 15 -77 66 -198 108 -40 14 -94 37 -119 51 -25 14 -47 23 -50
20 -3 -2 6 -26 19 -52 32 -62 131 -162 196 -196 61 -32 185 -79 192 -72 6 6
10 3 -99 64 -92 50 -179 110 -135 93 11 -4 87 -40 168 -80 l149 -73 30 -67
c35 -79 35 -79 48 -66 7 7 2 31 -15 72 -15 36 -23 72 -20 85 6 22 60 99 118
167 49 58 42 23 -11 -49 -96 -132 -92 -148 10 -35 76 84 88 117 70 203 -12 54
-32 92 -32 59z"/>
<path d="M1432 6881 c-30 -98 -9 -159 86 -248 72 -69 65 -42 -19 67 -53 69
-43 85 13 19 108 -129 115 -148 78 -235 -20 -46 -21 -74 -2 -74 5 0 20 27 32
59 12 33 29 66 38 74 10 9 85 48 167 88 83 39 153 74 158 76 4 2 7 2 7 -1 0
-9 -81 -61 -165 -106 -90 -48 -90 -48 -84 -55 8 -7 132 40 192 72 70 38 155
125 196 202 l33 63 -44 -26 c-24 -14 -93 -44 -154 -66 -110 -41 -184 -81 -184
-101 0 -11 21 -6 79 17 18 8 42 14 52 14 11 0 19 5 19 10 0 6 7 10 15 10 8 0
15 -3 15 -7 0 -10 -105 -59 -180 -85 -30 -11 -70 -27 -87 -35 l-33 -15 -77 82
c-129 138 -138 162 -24 69 40 -34 74 -59 76 -57 3 2 -5 23 -17 47 -13 26 -46
63 -84 94 -35 28 -66 59 -70 69 -9 28 -20 21 -32 -21z"/>
<path d="M1302 6626 c-26 -76 -28 -147 -6 -182 20 -30 174 -147 174 -132 0 6
-29 38 -64 72 -87 84 -117 145 -74 152 11 1 15 -3 11 -13 -4 -9 26 -46 81
-102 98 -101 103 -116 65 -215 -21 -53 -20 -86 0 -86 6 0 15 18 21 40 6 22 24
55 39 73 29 32 43 41 201 125 47 25 98 54 113 64 16 11 31 17 35 13 10 -10
-47 -53 -136 -102 -92 -51 -81 -55 31 -11 101 39 171 103 206 191 13 32 21 60
19 63 -3 3 -26 -9 -51 -26 -25 -16 -51 -30 -59 -30 -8 0 -18 -4 -24 -8 -5 -5
-29 -15 -54 -22 -56 -17 -127 -53 -160 -80 -31 -26 -22 -25 100 19 47 17 91
30 99 31 24 0 -32 -36 -94 -60 -33 -13 -93 -41 -134 -62 -72 -37 -91 -40 -91
-13 0 8 -30 40 -67 72 -99 86 -123 110 -123 123 0 11 76 -36 117 -73 54 -48
38 31 -16 82 -21 20 -53 45 -72 56 -22 13 -39 34 -49 63 l-16 43 -22 -65z"/>
<path d="M7960 6664 c0 -39 -23 -70 -70 -94 -21 -11 -50 -34 -63 -52 -25 -35
-50 -88 -41 -88 3 0 41 25 85 55 43 31 79 52 79 47 0 -5 -23 -31 -52 -58 -107
-100 -155 -149 -160 -163 -3 -11 -17 -7 -63 18 -63 33 -191 91 -202 91 -4 0
-15 7 -25 17 -10 9 -21 13 -25 9 -11 -10 30 -39 122 -86 185 -95 223 -125 244
-195 7 -25 17 -45 22 -45 21 0 20 33 -1 84 -23 58 -28 103 -14 128 17 29 194
210 194 199 0 -33 -35 -85 -99 -148 -39 -38 -71 -76 -71 -83 0 -8 13 -2 33 16
17 17 58 49 90 73 32 23 62 54 68 67 15 40 11 100 -11 161 -25 70 -40 88 -40
47z"/>
<path d="M7280 6568 c0 -35 61 -137 105 -176 44 -39 193 -108 216 -100 5 2
-24 20 -65 41 -40 20 -89 50 -107 67 -32 28 -33 30 -17 46 16 16 22 16 110
-15 133 -46 138 -47 108 -21 -26 22 -100 59 -160 80 -72 25 -103 39 -152 69
-27 16 -38 19 -38 9z"/>
<path d="M1152 6286 c-16 -68 -15 -96 3 -139 19 -46 57 -82 120 -114 28 -14
60 -34 73 -46 l22 -20 0 21 c0 13 -18 35 -47 59 -148 120 -166 160 -28 61 54
-39 92 -73 100 -91 13 -31 12 -40 -21 -160 -16 -61 -17 -69 -3 -83 15 -14 17
-11 28 33 21 83 38 110 94 152 51 39 308 173 316 165 9 -8 -50 -47 -136 -90
-50 -25 -100 -55 -110 -66 -18 -20 -17 -21 2 -11 26 14 61 28 105 43 71 24
122 55 157 93 48 53 118 207 95 207 -5 0 -15 -7 -22 -15 -16 -19 -82 -50 -160
-75 -76 -24 -128 -52 -169 -90 -36 -34 -36 -52 1 -28 13 8 52 25 88 37 36 13
84 31 107 42 55 25 73 24 47 -1 -11 -11 -73 -42 -137 -69 -65 -27 -139 -63
-166 -80 -56 -36 -61 -37 -61 -13 0 25 -50 70 -147 131 -44 28 -87 58 -94 67
-15 18 -4 31 13 16 8 -6 53 -31 101 -56 80 -41 87 -43 87 -24 0 32 -70 93
-125 108 -31 9 -61 27 -85 51 l-36 37 -12 -52z"/>
<path d="M8108 6312 c-17 -28 -35 -40 -98 -63 -49 -17 -97 -55 -115 -89 -22
-43 -18 -54 13 -32 15 11 52 32 82 46 30 14 70 35 89 48 l34 22 -12 -23 c-7
-12 -57 -51 -111 -86 -89 -58 -115 -81 -145 -129 -9 -14 -17 -11 -63 18 -30
19 -101 54 -159 77 -97 39 -165 80 -153 92 3 3 25 -5 50 -17 25 -12 65 -28 90
-36 25 -7 72 -27 105 -43 46 -23 56 -25 45 -11 -45 56 -111 94 -240 139 -41
14 -91 36 -109 50 -19 13 -37 22 -40 20 -2 -3 8 -36 23 -75 48 -121 122 -185
276 -236 30 -10 61 -22 68 -27 6 -5 12 -6 12 -1 0 12 -28 29 -115 72 -73 36
-140 81 -132 89 3 2 31 -9 64 -25 32 -17 76 -38 98 -48 49 -22 174 -105 196
-130 9 -11 23 -46 31 -78 8 -33 19 -61 25 -63 23 -8 22 35 -2 120 -23 77 -24
94 -14 120 11 26 91 93 183 152 l29 19 -12 -22 c-6 -11 -32 -38 -58 -59 -79
-63 -123 -110 -123 -129 0 -15 4 -14 28 8 15 14 51 38 80 53 62 32 118 93 126
138 6 36 -5 123 -20 149 -9 16 -11 15 -26 -10z"/>
<path d="M7434 6035 c10 -58 44 -154 73 -204 50 -86 124 -151 258 -225 l50
-28 -36 33 c-19 19 -67 60 -105 93 -74 63 -140 134 -131 142 4 5 125 -91 289
-229 84 -71 128 -137 138 -209 5 -35 10 -70 10 -78 0 -11 5 -10 20 5 20 21 20
44 -6 232 -11 84 -3 97 94 160 48 31 101 69 119 86 17 16 37 27 44 25 19 -6
-53 -81 -114 -119 -75 -47 -117 -89 -117 -117 l0 -24 28 29 c15 16 67 51 115
78 112 62 130 87 129 169 -2 63 -23 151 -37 151 -5 0 -13 -13 -18 -30 -15 -47
-32 -60 -97 -74 -79 -18 -120 -45 -148 -101 -25 -50 -16 -61 25 -32 16 11 50
27 76 36 60 20 110 45 119 60 4 6 10 7 14 3 14 -14 -33 -50 -127 -98 -54 -27
-108 -62 -123 -79 -28 -34 -42 -73 -31 -89 15 -26 -21 -7 -73 37 -31 27 -91
73 -132 102 -103 74 -170 130 -170 142 0 5 15 0 33 -11 84 -55 268 -163 272
-159 9 9 -65 106 -103 136 -44 35 -132 82 -155 82 -43 0 -108 43 -158 105
l-32 40 7 -40z"/>
<path d="M1835 6030 c-28 -42 -80 -76 -153 -100 -111 -37 -174 -81 -233 -167
-36 -52 -37 -69 -1 -45 15 11 68 43 117 72 50 29 105 64 123 77 35 26 54 25
32 -2 -8 -9 -72 -59 -144 -111 -72 -53 -150 -113 -173 -136 -32 -29 -44 -36
-48 -25 -4 8 -5 18 -4 23 9 50 -36 97 -145 150 -79 39 -146 89 -146 109 0 4
14 -3 31 -15 17 -12 67 -37 111 -56 44 -18 89 -41 99 -50 31 -28 35 -6 9 43
-28 53 -74 85 -150 103 -68 17 -87 32 -101 83 -13 50 -22 39 -45 -59 -30 -126
-6 -173 120 -239 42 -22 91 -53 108 -68 16 -15 33 -25 36 -22 15 15 -31 65
-117 125 -84 59 -132 112 -117 128 4 3 23 -10 44 -30 20 -20 76 -61 124 -91
50 -33 89 -64 93 -78 4 -12 -1 -85 -11 -162 -17 -137 -17 -140 2 -154 17 -12
20 -12 26 9 3 13 6 42 7 66 1 23 7 52 14 65 29 52 102 128 194 202 54 44 124
101 156 128 33 29 57 43 57 35 0 -14 -88 -102 -205 -206 -65 -57 -48 -53 56
14 136 87 191 157 239 304 17 51 30 96 30 101 0 18 -15 8 -35 -21z"/>
<path d="M7480 5688 c0 -18 7 -77 14 -131 11 -76 23 -117 54 -180 38 -79 67
-117 200 -267 99 -112 77 -52 -37 99 -79 106 -136 199 -127 208 2 2 22 -19 44
-49 22 -29 80 -104 129 -166 81 -102 120 -165 152 -245 16 -40 14 -75 -9 -137
-11 -30 -20 -56 -20 -58 0 -7 46 12 53 22 23 35 77 253 77 314 0 71 38 110
176 181 45 23 100 58 123 77 27 24 41 31 41 21 0 -27 -58 -75 -148 -123 -99
-54 -162 -112 -162 -150 l0 -25 28 26 c15 15 71 48 126 75 177 88 201 118 199
245 -1 84 -17 165 -33 165 -6 0 -10 -4 -10 -10 0 -21 -46 -50 -99 -60 -78 -16
-113 -34 -154 -79 -33 -36 -56 -95 -43 -108 14 -15 276 118 276 139 0 5 5 8
10 8 6 0 10 -6 10 -14 0 -22 -78 -86 -139 -113 -211 -94 -224 -105 -241 -224
-7 -49 -16 -92 -20 -94 -4 -3 -30 30 -58 73 -27 42 -94 127 -147 187 -117 132
-150 174 -142 181 5 5 126 -116 275 -276 l43 -45 -7 40 c-9 54 -48 132 -87
174 -18 18 -66 58 -107 89 -98 73 -169 148 -200 211 -29 59 -40 64 -40 19z"/>
<path d="M1774 5659 c-39 -68 -96 -127 -195 -201 -106 -79 -153 -136 -179
-214 -12 -35 -20 -68 -18 -73 2 -6 72 64 157 154 85 91 157 163 159 160 8 -8
-42 -77 -129 -175 -110 -125 -151 -176 -180 -227 -21 -38 -48 -57 -49 -35 -5
69 -21 157 -34 177 -21 32 -68 61 -181 110 -62 27 -106 55 -139 87 -56 54 -55
76 2 32 20 -17 53 -37 73 -47 63 -29 174 -81 182 -85 12 -6 8 33 -7 69 -27 65
-89 107 -189 128 -43 9 -66 21 -90 46 l-33 34 -12 -70 c-17 -97 -15 -157 7
-204 26 -56 51 -76 171 -136 58 -29 120 -65 139 -80 19 -16 37 -27 39 -25 2 2
-6 22 -17 43 -22 44 -60 76 -141 118 -90 47 -139 84 -155 115 -20 39 -12 38
37 -4 22 -19 84 -58 139 -87 126 -66 142 -85 158 -185 15 -94 49 -236 67 -280
11 -26 50 -52 61 -40 1 1 -7 29 -18 62 -13 36 -19 73 -16 95 9 68 66 164 193
324 69 88 128 166 131 173 3 6 9 12 14 12 13 0 -49 -108 -111 -190 -82 -110
-116 -162 -125 -189 -7 -23 37 23 173 182 101 117 158 279 150 422 l-3 60 -31
-56z"/>
<path d="M1816 5224 c-20 -62 -65 -128 -155 -228 -133 -147 -157 -249 -104
-440 7 -26 18 -10 38 57 10 32 38 92 62 135 96 165 133 235 133 248 0 8 5 14
10 14 24 0 5 -56 -68 -205 -43 -88 -84 -180 -91 -205 -7 -25 -17 -58 -22 -74
-5 -16 -9 -46 -9 -67 0 -63 -11 -53 -73 61 -17 30 -40 73 -53 95 -36 65 -83
83 -314 120 -99 16 -200 56 -200 80 0 10 11 9 48 -5 27 -10 95 -24 151 -30 57
-6 114 -16 128 -21 36 -14 38 -6 10 38 -57 91 -120 118 -250 108 l-82 -7 -43
38 -44 37 7 -49 c25 -172 79 -276 171 -330 39 -23 59 -27 186 -34 79 -4 144
-6 146 -5 6 5 -52 41 -83 52 -16 6 -72 21 -124 33 -52 12 -110 31 -130 42 -77
43 -100 84 -25 44 26 -14 81 -33 123 -42 149 -33 224 -55 252 -74 15 -11 51
-64 80 -118 77 -144 181 -301 204 -308 11 -3 28 -8 38 -10 27 -8 20 11 -23 68
-39 52 -40 54 -40 140 0 124 25 220 97 378 14 30 39 97 55 148 17 50 34 92 39
92 11 0 11 -1 -1 -80 -11 -71 -20 -97 -57 -180 -40 -87 -64 -151 -79 -205 -17
-60 -17 -65 -4 -65 6 0 10 4 10 9 0 5 29 60 65 122 36 63 75 143 87 179 32 94
30 212 -6 355 -37 144 -40 149 -60 89z"/>
<path d="M7455 5248 c-46 -132 -60 -206 -59 -318 1 -120 14 -163 90 -295 25
-44 56 -98 67 -120 18 -33 23 -36 25 -19 4 26 -27 119 -68 209 -48 105 -70
180 -70 241 0 32 3 54 7 50 4 -3 17 -42 29 -85 13 -43 34 -103 48 -132 69
-152 94 -232 102 -330 10 -112 0 -156 -47 -218 -22 -29 -38 -55 -36 -58 3 -2
22 0 43 6 34 9 46 22 97 101 32 50 83 136 112 192 30 56 62 109 71 119 27 30
94 55 209 78 60 13 138 36 172 51 62 28 79 28 46 -2 -37 -32 -92 -56 -179 -77
-129 -31 -158 -41 -190 -66 l-29 -23 90 4 c182 9 211 14 258 44 54 34 97 95
124 175 24 69 48 183 41 190 -3 3 -22 -11 -43 -31 l-38 -36 -91 7 c-103 8
-148 -4 -199 -53 -32 -31 -72 -91 -65 -98 3 -2 17 0 31 5 14 5 71 15 128 21
56 6 125 20 153 31 61 23 57 22 50 4 -11 -26 -107 -65 -204 -80 -284 -46 -281
-44 -387 -252 -15 -29 -32 -53 -39 -53 -7 0 -15 24 -19 56 -10 84 -40 167
-105 290 -72 139 -106 232 -91 247 8 8 11 7 11 -5 0 -18 50 -115 116 -224 39
-66 61 -110 93 -187 6 -15 11 -40 11 -54 0 -48 19 -11 36 68 31 148 -1 241
-141 402 -85 97 -135 178 -135 217 0 22 -18 28 -25 8z"/>
<path d="M2010 4710 c0 -118 -19 -217 -66 -351 -51 -146 -52 -227 -3 -324 19
-37 39 -66 44 -65 6 2 16 27 23 54 7 28 20 71 28 96 33 92 43 158 44 267 0
104 9 145 24 107 3 -9 6 -67 6 -130 0 -89 -6 -138 -26 -222 -15 -59 -32 -149
-38 -201 l-11 -94 -93 101 c-138 148 -132 146 -427 147 -217 0 -244 2 -277 19
-44 23 -50 41 -10 31 57 -14 239 -16 332 -3 l95 14 -45 27 c-73 43 -153 58
-317 60 -132 2 -152 4 -185 24 l-36 21 8 -28 c16 -56 75 -154 121 -201 88 -91
199 -126 353 -113 50 4 94 9 99 10 4 1 35 2 70 3 60 2 61 2 32 15 -37 16 -100
23 -260 31 -134 6 -197 19 -238 48 -39 27 -28 31 34 13 30 -9 90 -16 140 -16
259 0 379 -34 458 -132 23 -29 91 -105 151 -169 100 -106 113 -117 152 -122
23 -3 45 -4 47 -1 3 2 -23 33 -58 68 l-62 63 -6 74 c-3 41 0 108 6 149 33 223
43 321 38 380 l-5 65 19 -45 c24 -61 24 -168 -1 -315 -26 -150 -25 -153 11
-70 56 131 63 156 63 255 0 129 -34 218 -178 460 l-56 94 0 -94z"/>
<path d="M7269 4770 c-37 -56 -117 -199 -146 -260 -75 -158 -91 -272 -53 -386
29 -89 66 -175 72 -169 2 3 -4 53 -14 113 -21 112 -20 280 1 332 12 30 12 30
16 -115 2 -55 13 -160 24 -234 23 -148 26 -235 10 -278 -5 -15 -38 -56 -72
-91 l-62 -64 50 7 c47 6 55 12 138 98 49 51 119 127 155 170 108 126 182 151
465 156 60 1 129 9 158 17 60 18 71 14 32 -13 -44 -30 -98 -41 -243 -48 -151
-7 -241 -19 -267 -34 -14 -8 -8 -10 29 -11 26 0 93 -5 148 -11 236 -27 385 49
480 245 22 45 40 85 40 89 0 4 -17 -3 -37 -15 -33 -20 -54 -23 -167 -24 -177
-3 -230 -11 -308 -47 -38 -18 -68 -34 -68 -38 0 -9 196 -29 281 -29 42 0 97 6
122 14 71 21 62 -7 -9 -34 -53 -19 -73 -21 -278 -18 -220 3 -221 3 -271 -23
-32 -16 -78 -57 -132 -117 -46 -50 -87 -93 -91 -94 -4 -2 -10 24 -14 57 -3 33
-16 105 -28 160 -55 254 -59 295 -39 382 22 90 29 90 23 -2 -7 -108 12 -229
56 -359 16 -50 30 -102 30 -118 0 -43 13 -34 47 35 63 127 65 169 13 327 -53
158 -61 200 -68 330 -7 120 -8 124 -23 100z"/>
<path d="M2466 4168 c12 -74 7 -121 -32 -302 -15 -69 -16 -89 -5 -154 7 -42
24 -101 38 -131 29 -67 82 -151 94 -151 5 0 6 19 3 43 -3 23 1 103 10 177 8
74 18 165 22 202 3 37 10 65 15 62 12 -7 11 -278 0 -362 -6 -37 -13 -102 -16
-144 -4 -43 -11 -78 -15 -78 -5 0 -57 43 -116 95 -152 136 -182 142 -479 105
-88 -11 -180 -20 -205 -20 -58 0 -150 22 -180 43 -23 16 -23 16 16 11 21 -3
55 -10 74 -15 53 -13 113 -11 240 11 63 10 134 20 158 21 23 2 42 6 42 10 0 5
-21 18 -47 29 -134 61 -253 73 -384 41 -120 -29 -165 -27 -233 8 -31 17 -56
27 -56 24 0 -14 109 -139 168 -193 77 -69 155 -113 232 -130 47 -10 76 -9 195
9 77 11 178 23 224 27 83 7 84 7 55 22 -31 17 -128 20 -394 12 -122 -3 -151
-1 -182 13 -21 10 -38 18 -38 20 0 1 73 2 163 3 89 0 201 6 249 12 67 10 103
10 153 1 61 -10 70 -16 151 -88 183 -162 288 -251 298 -251 6 -1 33 -2 59 -4
l49 -4 -50 47 c-32 30 -54 60 -62 86 -7 23 -16 151 -20 300 -5 143 -12 284
-16 314 -5 37 -4 52 3 48 11 -7 13 -14 32 -112 5 -27 10 -115 11 -195 1 -165
9 -167 41 -13 33 154 15 259 -66 380 -39 59 -182 213 -197 213 -6 0 -7 -17 -2
-42z"/>
<path d="M6748 4133 c-149 -155 -204 -268 -195 -408 4 -81 33 -222 49 -239 4
-6 8 61 8 148 0 148 9 228 31 268 5 10 9 28 9 40 0 17 3 19 12 10 9 -9 9 -18
-1 -39 -8 -18 -15 -123 -21 -312 -5 -186 -12 -297 -20 -316 -26 -63 -33 -74
-71 -101 -21 -16 -39 -32 -39 -35 0 -4 25 -5 56 -3 65 4 74 11 259 179 200
182 201 182 441 159 89 -9 202 -14 257 -11 53 3 97 2 97 -2 0 -4 -17 -13 -37
-21 -29 -11 -71 -14 -178 -10 -264 8 -358 6 -389 -11 -28 -16 -28 -16 60 -23
49 -4 114 -11 144 -16 173 -29 219 -32 272 -20 110 26 221 104 324 228 82 99
86 109 28 77 -67 -37 -130 -42 -235 -16 -140 34 -260 22 -392 -38 -53 -24 -54
-41 -2 -41 18 0 87 -9 152 -20 130 -22 190 -25 243 -11 19 5 53 12 75 16 l40
6 -24 -17 c-30 -22 -121 -44 -181 -44 -25 0 -119 9 -210 21 -182 23 -297 21
-349 -6 -18 -9 -77 -57 -132 -106 -55 -49 -104 -89 -108 -89 -5 0 -11 26 -14
58 -3 31 -13 131 -22 222 -14 137 -15 178 -5 240 23 142 26 122 45 -282 4 -82
10 -148 14 -148 12 0 90 147 110 209 28 86 28 205 0 308 -17 61 -20 97 -17
175 2 54 1 98 -2 98 -4 0 -40 -35 -82 -77z"/>
<path d="M2940 3776 c0 -4 9 -24 20 -46 27 -53 35 -133 19 -205 -33 -161 -24
-211 68 -385 31 -58 66 -123 77 -145 l21 -40 8 90 c9 101 2 292 -14 375 -12
65 -33 130 -60 182 -15 30 -10 42 10 24 27 -25 81 -140 99 -215 12 -51 16
-122 16 -311 1 -135 0 -248 -2 -253 -4 -8 -59 28 -181 121 -127 95 -131 97
-246 96 -72 -1 -129 -8 -205 -27 -251 -63 -376 -74 -419 -39 -22 17 -21 17 36
13 73 -4 165 12 312 55 63 19 127 34 143 34 46 0 32 18 -39 52 -63 30 -76 32
-168 32 -97 -1 -130 -8 -240 -54 -68 -28 -91 -32 -157 -28 -54 2 -87 10 -127
31 -30 15 -56 25 -58 23 -2 -2 41 -46 95 -98 112 -108 213 -178 290 -203 71
-23 191 -16 337 20 61 15 148 35 195 44 l85 17 -50 8 c-27 3 -90 2 -140 -4
-232 -27 -286 -31 -370 -25 -58 4 -99 12 -117 23 -26 16 -22 17 95 13 114 -3
189 5 312 32 28 6 97 11 155 11 85 1 112 -3 139 -18 19 -10 115 -79 213 -153
l179 -134 67 3 67 3 -47 30 c-26 16 -51 39 -57 52 -6 12 -15 105 -21 205 -17
306 -30 384 -83 516 -32 77 -15 78 31 1 49 -82 73 -168 86 -319 13 -150 27
-160 34 -25 10 205 -93 401 -285 543 -86 63 -123 86 -123 78z"/>
<path d="M6287 3735 c-190 -128 -303 -288 -329 -467 -11 -70 -2 -242 11 -233
5 2 11 57 14 122 7 134 27 223 68 303 55 110 86 126 44 23 -45 -112 -75 -310
-75 -500 0 -46 -5 -115 -11 -152 -11 -66 -13 -68 -62 -102 l-50 -34 67 -3 66
-3 183 139 c100 76 198 145 217 153 42 17 210 18 285 2 124 -27 198 -35 312
-32 117 4 121 3 95 -13 -18 -11 -59 -19 -117 -23 -84 -6 -141 -2 -370 25 -49
6 -112 8 -140 4 l-50 -8 85 -17 c47 -9 135 -29 195 -45 86 -22 134 -28 220
-28 121 -1 137 4 255 84 56 38 254 219 247 226 -2 2 -34 -9 -70 -26 -51 -23
-81 -30 -129 -30 -61 0 -78 5 -248 68 -31 12 -74 17 -140 16 -84 0 -103 -4
-162 -32 -72 -33 -86 -52 -40 -52 16 0 80 -15 143 -34 150 -44 243 -60 313
-54 l57 5 -31 -20 c-27 -17 -43 -19 -123 -14 -51 3 -117 12 -147 20 -30 8 -82
20 -115 27 -33 7 -76 17 -95 23 -53 16 -219 15 -258 -2 -19 -8 -93 -58 -164
-112 -72 -54 -134 -97 -137 -94 -4 2 -7 122 -6 267 2 277 5 299 55 413 23 53
69 120 77 111 3 -2 -2 -19 -10 -38 -53 -114 -77 -259 -76 -448 1 -204 3 -205
76 -75 123 219 139 282 108 421 -21 96 -17 176 13 233 13 24 21 45 19 47 -2 2
-33 -17 -70 -41z"/>
<path d="M3613 3252 c16 -49 17 -64 7 -117 -6 -33 -20 -85 -30 -115 -42 -122
-43 -181 -8 -275 15 -38 75 -128 122 -180 l35 -40 1 75 c0 41 5 107 11 145 5
39 10 122 10 186 0 100 -3 125 -26 184 -23 62 -24 67 -6 51 29 -26 58 -94 71
-166 9 -50 8 -104 -5 -264 -9 -110 -14 -220 -10 -243 9 -58 -5 -57 -113 15
-138 92 -169 102 -301 102 -88 0 -176 -11 -321 -40 -76 -15 -268 -40 -307 -40
-57 0 -35 17 30 23 59 6 115 16 202 36 158 36 281 59 320 61 22 1 -15 20 -89
45 -44 15 -118 32 -166 38 -76 9 -95 8 -170 -10 -47 -11 -132 -37 -190 -58
-108 -38 -212 -50 -270 -30 -22 7 -23 6 -12 -8 8 -9 53 -42 100 -75 263 -179
367 -195 719 -111 68 16 134 29 148 29 14 0 25 5 25 11 0 13 -121 9 -320 -12
-63 -6 -156 -9 -207 -5 -89 5 -173 24 -173 38 0 4 39 4 88 1 48 -3 150 0 227
6 262 22 332 24 411 11 104 -16 133 -30 323 -155 l165 -107 55 7 c31 4 60 9
64 12 4 3 -20 22 -54 42 -84 51 -88 64 -99 369 -5 134 -11 265 -14 290 -3 26
-3 38 0 27 4 -11 11 -26 17 -33 18 -23 36 -154 37 -272 0 -105 9 -156 23 -133
3 4 11 45 17 90 30 201 -63 424 -234 565 -35 29 -77 61 -93 70 l-30 17 20 -57z"/>
<path d="M5639 3266 c-134 -90 -245 -247 -279 -395 -18 -75 -15 -236 4 -286
l15 -40 0 60 c3 179 40 410 63 387 7 -7 6 -27 -1 -62 -6 -28 -11 -134 -11
-235 0 -277 -13 -325 -102 -378 -36 -21 -56 -38 -47 -41 8 -2 34 -9 59 -15
l45 -10 175 114 c96 62 193 120 215 129 98 36 236 46 385 25 41 -6 158 -12
260 -14 102 -3 187 -5 190 -5 3 -1 -13 -7 -35 -15 -60 -22 -205 -28 -340 -15
-213 20 -325 24 -325 11 0 -6 12 -11 26 -11 14 0 81 -13 148 -29 290 -71 395
-67 569 20 66 33 186 113 232 154 29 26 29 27 5 19 -66 -21 -154 -8 -316 47
-150 50 -165 53 -254 52 -63 0 -121 -7 -170 -21 -83 -22 -155 -51 -148 -58 3
-2 25 -7 49 -10 39 -5 160 -29 274 -55 97 -22 154 -32 215 -38 57 -6 61 -8 36
-15 -31 -9 -160 4 -301 30 -184 35 -255 44 -346 44 -122 0 -175 -17 -299 -98
-52 -34 -100 -62 -107 -62 -9 0 -11 12 -7 44 4 24 1 99 -6 167 -17 164 -18
343 -1 394 16 48 61 129 68 121 3 -2 -4 -31 -16 -64 -31 -90 -35 -170 -17
-331 9 -79 16 -168 16 -199 0 -64 6 -62 75 28 72 94 105 170 105 243 0 35 -4
77 -9 93 -44 144 -53 185 -53 241 0 34 4 69 9 75 10 13 24 48 20 48 -1 0 -32
-20 -68 -44z"/>
<path d="M3550 2275 c-30 -6 -104 -30 -165 -51 -103 -36 -117 -39 -215 -38
-84 1 -115 6 -154 23 -27 12 -51 20 -53 18 -2 -3 39 -44 90 -93 271 -256 536
-299 865 -142 34 17 62 32 62 35 0 7 -54 -2 -102 -16 -173 -50 -226 -60 -318
-60 -90 0 -175 16 -225 43 -30 16 -29 16 30 9 33 -5 110 -7 170 -6 113 2 148
9 405 84 62 19 154 28 191 20 20 -5 83 -38 140 -73 162 -102 240 -148 249
-148 8 0 23 -31 18 -35 -10 -6 -104 -59 -163 -90 -38 -21 -74 -41 -80 -45 -5
-4 -46 -27 -90 -50 -44 -24 -95 -52 -112 -62 -18 -10 -48 -26 -65 -36 -18 -10
-75 -41 -125 -67 -56 -30 -93 -56 -93 -65 0 -18 37 -80 47 -80 5 0 19 9 33 20
14 11 28 20 31 20 8 0 279 151 529 294 102 58 192 106 200 106 14 0 33 -10
135 -70 92 -54 277 -160 279 -160 1 0 87 -47 191 -105 104 -58 192 -105 197
-105 4 0 8 5 8 11 0 6 10 24 21 41 12 16 18 33 13 37 -5 5 -45 27 -89 51 -139
74 -210 113 -220 120 -5 4 -41 24 -80 45 -125 67 -326 179 -343 190 -8 6 11
31 31 41 12 6 83 48 157 94 74 45 151 92 170 104 27 16 50 21 100 19 63 -1 93
-8 245 -52 188 -56 312 -69 470 -48 l60 7 -35 -18 c-58 -31 -151 -45 -257 -39
-86 4 -138 15 -283 59 -19 5 -53 12 -75 14 -38 4 -36 2 35 -32 105 -51 108
-52 175 -70 254 -67 502 14 719 235 62 63 69 82 20 56 -48 -25 -135 -38 -209
-31 -72 6 -111 16 -226 59 -106 39 -187 51 -255 37 -72 -14 -218 -70 -207 -80
16 -13 310 -99 380 -111 43 -7 118 -10 189 -7 l118 6 -39 -21 c-30 -15 -66
-21 -150 -25 -129 -5 -229 11 -358 60 -203 75 -249 88 -322 89 -82 1 -94 -4
-255 -101 -58 -34 -118 -71 -135 -80 -16 -10 -63 -36 -102 -60 l-73 -42 -57
33 c-32 18 -125 73 -208 123 -82 49 -167 98 -187 108 -74 36 -242 18 -351 -39
-48 -25 -198 -71 -271 -84 -98 -17 -271 -7 -319 18 l-38 19 123 -4 c162 -6
255 13 557 114 41 13 -190 94 -264 93 -16 -1 -55 -7 -85 -14z"/>
<path d="M2096 1821 c6 -27 -3 -36 -122 -135 -70 -58 -135 -106 -144 -106 -9
0 -21 5 -28 12 -30 30 -7 -13 33 -62 48 -59 76 -79 55 -39 -15 26 -12 28 167
175 82 67 94 74 113 64 12 -6 23 -10 24 -8 2 2 -21 31 -50 65 -46 54 -53 59
-48 34z"/>
<path d="M7045 1610 c-96 -96 -108 -113 -63 -89 18 10 33 -2 140 -109 115
-115 120 -122 114 -153 -6 -30 3 -24 103 76 115 113 114 112 77 160 -14 19
-15 17 -13 -22 1 -38 -4 -48 -43 -88 -24 -25 -52 -45 -61 -45 -9 0 -40 25 -69
56 l-53 55 34 35 c35 36 57 42 77 22 7 -7 12 -8 12 -2 0 5 -19 28 -41 49 -35
34 -40 36 -34 16 5 -18 0 -30 -26 -57 -18 -19 -38 -34 -44 -34 -15 0 -95 87
-95 104 0 18 76 86 96 86 8 0 24 -5 35 -10 10 -6 19 -7 19 -2 0 11 -44 52 -56
52 -5 0 -54 -45 -109 -100z"/>
<path d="M2247 1626 c5 -33 0 -40 -100 -148 -98 -106 -107 -113 -141 -112
l-37 1 53 -47 c29 -26 55 -46 57 -44 3 2 -1 10 -7 16 -26 26 -11 56 74 149 47
52 89 96 95 97 5 2 9 -84 9 -217 0 -171 3 -221 13 -220 6 0 64 59 127 130 114
128 142 151 163 130 6 -6 16 -11 22 -11 5 0 -15 23 -44 50 -30 28 -56 50 -58
50 -2 0 1 -9 7 -19 5 -11 10 -27 10 -35 0 -17 -146 -186 -161 -186 -5 0 -9 82
-10 193 l-1 192 -38 33 -39 33 6 -35z"/>
<path d="M6865 1451 c-3 -5 -51 -44 -108 -87 -65 -49 -92 -75 -75 -71 33 9 37
4 150 -147 60 -80 87 -124 83 -135 -4 -9 -9 -22 -12 -29 -3 -8 26 10 65 40 39
29 71 57 71 63 1 5 -4 4 -11 -3 -26 -26 -54 -13 -100 50 -25 34 -44 67 -42 73
3 5 20 21 39 34 30 20 39 22 60 13 34 -16 31 -5 -10 43 -34 40 -34 40 -35 13
0 -27 -49 -78 -74 -78 -7 0 -31 26 -54 57 -39 54 -41 58 -25 75 9 10 32 28 51
40 29 18 40 20 63 11 34 -13 35 -11 13 22 -17 26 -38 32 -49 16z"/>
<path d="M2660 1268 c-39 -14 -79 -58 -86 -95 -5 -25 1 -48 26 -99 25 -51 30
-74 25 -100 -11 -59 -78 -74 -121 -26 -22 22 -25 34 -21 69 5 47 -5 48 -29 2
-15 -29 -14 -32 11 -65 33 -44 73 -64 126 -64 33 0 47 6 75 34 48 48 48 88 2
180 -33 64 -32 92 4 126 48 44 113 10 112 -59 -1 -23 0 -41 2 -41 5 0 34 58
34 68 0 13 -71 61 -106 71 -16 5 -40 4 -54 -1z"/>
<path d="M6516 1201 c-59 -35 -59 -36 -31 -41 31 -5 33 -8 157 -215 44 -74 46
-80 31 -97 -9 -10 -12 -18 -6 -18 13 0 133 71 133 79 0 4 -12 7 -27 6 -24 0
-36 13 -91 100 -116 183 -117 185 -104 206 16 26 7 23 -62 -20z"/>
<path d="M2936 1102 c4 -20 -11 -59 -62 -157 -76 -149 -90 -168 -116 -159 -10
3 -18 2 -18 -3 0 -5 35 -26 78 -47 54 -27 72 -32 60 -19 -10 11 -18 28 -18 39
1 28 146 298 162 302 7 1 24 -7 36 -18 51 -47 9 -152 -68 -169 l-35 -8 28 -12
c53 -21 86 -14 128 28 75 74 48 134 -91 205 l-89 45 5 -27z"/>
<path d="M6163 1016 c-63 -30 -83 -52 -40 -41 31 8 35 3 112 -154 67 -136 74
-158 53 -179 -7 -7 -8 -12 -4 -12 13 0 254 119 260 128 7 11 -15 82 -25 82 -4
0 -9 -17 -11 -37 -2 -30 -10 -42 -43 -65 -22 -15 -54 -27 -70 -28 -29 0 -33 6
-105 150 -58 117 -72 152 -62 162 13 13 16 29 5 26 -5 -1 -36 -15 -70 -32z"/>
<path d="M3265 950 c18 -20 17 -24 -40 -168 -32 -81 -62 -153 -68 -159 -5 -7
-21 -13 -35 -13 -36 0 -22 -9 61 -42 76 -29 94 -34 65 -17 -28 16 -22 44 38
194 63 156 70 168 96 161 16 -4 17 -2 7 10 -6 8 -18 14 -26 14 -8 0 -33 9 -55
20 -53 25 -66 25 -43 0z"/>
<path d="M3495 860 c21 -23 19 -33 -32 -209 -31 -104 -44 -136 -61 -145 -26
-14 -19 -26 15 -26 14 0 32 -4 41 -9 9 -4 31 -11 47 -15 l30 -8 -22 24 -23 24
19 67 c10 38 22 71 25 75 11 10 40 -13 48 -39 55 -186 55 -185 133 -204 l30
-7 -21 24 c-23 26 -79 192 -69 208 3 5 14 10 24 10 25 0 69 43 77 74 17 68
-35 110 -185 150 -85 22 -91 23 -76 6z m144 -45 c41 -21 56 -64 40 -110 -8
-20 -20 -41 -27 -48 -16 -13 -91 -12 -104 1 -6 6 -1 38 12 83 30 102 29 100
79 74z"/>
<path d="M5776 862 c-41 -13 -45 -17 -27 -24 11 -4 21 -13 21 -21 0 -30 -43
-137 -55 -137 -15 0 -125 87 -125 99 0 4 6 13 13 20 13 15 -5 13 -95 -9 -45
-11 -66 -30 -34 -30 15 0 161 -106 190 -138 25 -29 54 -144 43 -170 -5 -11
-15 -23 -21 -25 -24 -9 33 4 99 22 39 11 58 20 44 20 -15 1 -31 7 -36 13 -15
20 -46 129 -46 163 -1 31 55 188 74 212 18 21 8 22 -45 5z"/>
<path d="M3946 740 c20 -20 20 -24 7 -108 -7 -48 -17 -118 -23 -155 -12 -83
-24 -107 -53 -108 -12 0 12 -7 53 -15 41 -7 100 -18 131 -24 92 -17 106 -14
118 22 14 39 10 44 -14 18 -20 -23 -103 -28 -150 -10 -27 10 -27 11 -21 78 11
105 11 105 59 98 49 -8 67 -21 67 -49 0 -40 17 -2 24 53 l7 55 -24 -23 c-20
-19 -29 -21 -63 -14 l-39 8 1 50 c0 27 3 61 7 76 7 26 9 27 55 22 57 -8 92
-28 92 -54 0 -11 5 -20 10 -20 6 0 10 18 10 39 l0 40 -47 6 c-27 3 -70 10 -98
15 -27 5 -68 11 -90 15 l-40 6 21 -21z"/>
<path d="M5170 729 c-25 -4 -66 -11 -92 -15 -50 -7 -63 -20 -26 -26 26 -4 32
-22 48 -143 6 -49 16 -114 22 -143 8 -47 7 -56 -9 -74 -18 -20 -18 -20 12 -15
17 4 66 11 109 18 117 16 166 55 166 130 0 39 -48 89 -84 89 -33 0 -33 7 1 42
33 35 37 89 8 117 -24 23 -93 32 -155 20z m82 -36 c41 -47 32 -108 -18 -129
-54 -23 -60 -19 -73 43 -19 98 -18 103 32 103 29 0 49 -6 59 -17z m49 -182
c59 -59 23 -161 -57 -161 -41 0 -45 6 -59 97 -13 84 -8 92 53 93 24 0 42 -8
63 -29z"/>
<path d="M4344 681 c13 -14 16 -46 16 -169 0 -158 -7 -198 -37 -204 -10 -2 33
-8 94 -12 62 -4 127 -4 145 0 46 9 95 45 126 91 23 32 27 48 27 110 0 65 -3
75 -31 109 -51 64 -102 82 -238 87 -110 5 -116 4 -102 -12z m231 -30 c48 -28
68 -73 68 -156 0 -54 -5 -81 -19 -106 -28 -48 -78 -79 -128 -79 -72 0 -71 -1
-68 182 2 100 8 168 15 176 14 17 90 8 132 -17z"/>
</g>
</svg>
